{"accessors" : [{"bufferView" : 0, "byteOffset" : 0, "componentType" : 5123, "count" : 144, "type" : "SCALAR", "max" : [143], "min" : [0]}, {"bufferView" : 1, "byteOffset" : 0, "componentType" : 5126, "count" : 144, "type" : "VEC3", "max" : [18.480276107788086, 45.27238082885742, 13.457635879516602], "min" : [-18.480276107788086, -5.745206832885742, 12.294670104980469], "name" : "POSITION"}, {"bufferView" : 1, "byteOffset" : 12, "componentType" : 5126, "count" : 144, "type" : "VEC3", "max" : [1.0000044107437134, 1.0000044107437134, 1.0000044107437134], "min" : [-1.0000044107437134, -1.0000044107437134, -1.0000044107437134], "name" : "NORMAL"}, {"bufferView" : 1, "byteOffset" : 24, "componentType" : 5126, "count" : 144, "type" : "VEC2", "max" : [0.875, 2], "min" : [0.125, 0.1065070629119873], "name" : "TEXCOORD_0"}, {"bufferView" : 0, "byteOffset" : 288, "componentType" : 5123, "count" : 36, "type" : "SCALAR", "max" : [35], "min" : [0]}, {"bufferView" : 2, "byteOffset" : 0, "componentType" : 5126, "count" : 36, "type" : "VEC3", "max" : [13.92142391204834, 38.7332878112793, 13.122705459594727], "min" : [-13.92142391204834, 1.7414093017578125, 12.878738403320312], "name" : "POSITION"}, {"bufferView" : 2, "byteOffset" : 12, "componentType" : 5126, "count" : 36, "type" : "VEC3", "max" : [1.0000042915344238, 1.0000044107437134, 1.0000044107437134], "min" : [-1.0000042915344238, -1.0000044107437134, -1.0000044107437134], "name" : "NORMAL"}, {"bufferView" : 2, "byteOffset" : 24, "componentType" : 5126, "count" : 36, "type" : "VEC2", "max" : [0.875, 2], "min" : [0.125, 0.25], "name" : "TEXCOORD_0"}, {"bufferView" : 0, "byteOffset" : 360, "componentType" : 5123, "count" : 36, "type" : "SCALAR", "max" : [35], "min" : [0]}, {"bufferView" : 3, "byteOffset" : 0, "componentType" : 5126, "count" : 36, "type" : "VEC3", "max" : [-17.8456974029541, 38.46068572998047, 7.2126545906066895], "min" : [-18.08966636657715, 2.0140132904052734, -9.178462982177734], "name" : "POSITION"}, {"bufferView" : 3, "byteOffset" : 12, "componentType" : 5126, "count" : 36, "type" : "VEC3", "max" : [1.0000044107437134, 1.0000042915344238, 1.0000044107437134], "min" : [-1.0000044107437134, -1.0000042915344238, -1.0000044107437134], "name" : "NORMAL"}, {"bufferView" : 3, "byteOffset" : 24, "componentType" : 5126, "count" : 36, "type" : "VEC2", "max" : [0.875, 2], "min" : [0.125, 0.25], "name" : "TEXCOORD_0"}, {"bufferView" : 0, "byteOffset" : 432, "componentType" : 5123, "count" : 36, "type" : "SCALAR", "max" : [35], "min" : [0]}, {"bufferView" : 4, "byteOffset" : 0, "componentType" : 5126, "count" : 36, "type" : "VEC3", "max" : [18.091306686401367, 38.46068572998047, 7.2126545906066895], "min" : [17.84733772277832, 2.0140132904052734, -9.178462982177734], "name" : "POSITION"}, {"bufferView" : 4, "byteOffset" : 12, "componentType" : 5126, "count" : 36, "type" : "VEC3", "max" : [1.0000044107437134, 1.0000042915344238, 1.0000044107437134], "min" : [-1.0000044107437134, -1.0000042915344238, -1.0000044107437134], "name" : "NORMAL"}, {"bufferView" : 4, "byteOffset" : 24, "componentType" : 5126, "count" : 36, "type" : "VEC2", "max" : [0.875, 2], "min" : [0.125, 0.25], "name" : "TEXCOORD_0"}, {"bufferView" : 0, "byteOffset" : 504, "componentType" : 5123, "count" : 13524, "type" : "SCALAR", "max" : [12866], "min" : [0]}, {"bufferView" : 5, "byteOffset" : 0, "componentType" : 5126, "count" : 12867, "type" : "VEC3", "max" : [13.492868423461914, 2.000974655151367, 5.26863956451416], "min" : [-13.492868423461914, -3.1100826263427734, -7.237785816192627], "name" : "POSITION"}, {"bufferView" : 5, "byteOffset" : 12, "componentType" : 5126, "count" : 12867, "type" : "VEC3", "max" : [1.0000044107437134, 1.0000044107437134, 1.0000044107437134], "min" : [-1.0000044107437134, -1.0000044107437134, -1.0000044107437134], "name" : "NORMAL"}, {"bufferView" : 5, "byteOffset" : 24, "componentType" : 5126, "count" : 12867, "type" : "VEC2", "max" : [0.9620668888092041, 0.994200587272644], "min" : [0.03870731592178345, 0.06850588321685791], "name" : "TEXCOORD_0"}, {"bufferView" : 0, "byteOffset" : 27552, "componentType" : 5123, "count" : 1188, "type" : "SCALAR", "max" : [1138], "min" : [0]}, {"bufferView" : 6, "byteOffset" : 0, "componentType" : 5126, "count" : 1139, "type" : "VEC3", "max" : [-3.3820526599884033, 2.780890464782715, -1.0011383295059204], "min" : [-3.987330913543701, 1.7618227005004883, -1.6165844202041626], "name" : "POSITION"}, {"bufferView" : 6, "byteOffset" : 12, "componentType" : 5126, "count" : 1139, "type" : "VEC3", "max" : [0.9954487085342407, 1.0000044107437134, 0.995137095451355], "min" : [-0.9954485893249512, -1.0000044107437134, -0.9951369762420654], "name" : "NORMAL"}, {"bufferView" : 6, "byteOffset" : 24, "componentType" : 5126, "count" : 1139, "type" : "VEC2", "max" : [0.8262068033218384, 0.9488264322280884], "min" : [0.5250929594039917, 0.15432119369506836], "name" : "TEXCOORD_0"}, {"bufferView" : 0, "byteOffset" : 29928, "componentType" : 5123, "count" : 1188, "type" : "SCALAR", "max" : [1138], "min" : [0]}, {"bufferView" : 7, "byteOffset" : 0, "componentType" : 5126, "count" : 1139, "type" : "VEC3", "max" : [3.976930856704712, 2.780890464782715, -1.0011383295059204], "min" : [3.371652603149414, 1.7618227005004883, -1.6165844202041626], "name" : "POSITION"}, {"bufferView" : 7, "byteOffset" : 12, "componentType" : 5126, "count" : 1139, "type" : "VEC3", "max" : [0.995448648929596, 1.0000044107437134, 0.995137095451355], "min" : [-0.9954487085342407, -1.0000044107437134, -0.9951369762420654], "name" : "NORMAL"}, {"bufferView" : 7, "byteOffset" : 24, "componentType" : 5126, "count" : 1139, "type" : "VEC2", "max" : [0.927639365196228, 0.9473897218704224], "min" : [0.530537486076355, 0.010818958282470703], "name" : "TEXCOORD_0"}, {"bufferView" : 0, "byteOffset" : 32304, "componentType" : 5123, "count" : 132, "type" : "SCALAR", "max" : [131], "min" : [0]}, {"bufferView" : 8, "byteOffset" : 0, "componentType" : 5126, "count" : 132, "type" : "VEC3", "max" : [12.390910148620605, 1.9672422409057617, -0.570736289024353], "min" : [-12.390910148620605, 1.8121824264526367, -6.501822471618652], "name" : "POSITION"}, {"bufferView" : 8, "byteOffset" : 12, "componentType" : 5126, "count" : 132, "type" : "VEC3", "max" : [1.0000044107437134, 1.0000042915344238, 1.0000044107437134], "min" : [-1.0000044107437134, -1.0000042915344238, -1.0000044107437134], "name" : "NORMAL"}, {"bufferView" : 8, "byteOffset" : 24, "componentType" : 5126, "count" : 132, "type" : "VEC2", "max" : [0.963823676109314, 0.992982029914856], "min" : [0.03870731592178345, 0.2295083999633789], "name" : "TEXCOORD_0"}, {"bufferView" : 0, "byteOffset" : 32568, "componentType" : 5123, "count" : 36, "type" : "SCALAR", "max" : [35], "min" : [0]}, {"bufferView" : 9, "byteOffset" : 0, "componentType" : 5126, "count" : 36, "type" : "VEC3", "max" : [1.2154649496078491, -0.33538246154785156, 2.325739860534668], "min" : [-1.2154649496078491, -0.6061477661132812, 0.7865957021713257], "name" : "POSITION"}, {"bufferView" : 9, "byteOffset" : 12, "componentType" : 5126, "count" : 36, "type" : "VEC3", "max" : [1.0000044107437134, 1.0000044107437134, 1.0000044107437134], "min" : [-1.0000044107437134, -1.0000044107437134, -1.0000044107437134], "name" : "NORMAL"}, {"bufferView" : 9, "byteOffset" : 24, "componentType" : 5126, "count" : 36, "type" : "VEC2", "max" : [0.9628076553344727, 0.99242103099823], "min" : [0.7301732301712036, 0.6396190524101257], "name" : "TEXCOORD_0"}, {"bufferView" : 0, "byteOffset" : 32640, "componentType" : 5123, "count" : 180, "type" : "SCALAR", "max" : [176], "min" : [0]}, {"bufferView" : 10, "byteOffset" : 0, "componentType" : 5126, "count" : 177, "type" : "VEC3", "max" : [10.925057411193848, 0.9538230895996094, 2.224459648132324], "min" : [-10.925057411193848, -1.5251541137695312, -1.7834948301315308], "name" : "POSITION"}, {"bufferView" : 10, "byteOffset" : 12, "componentType" : 5126, "count" : 177, "type" : "VEC3", "max" : [1.0000044107437134, 1.0000044107437134, 1.0000044107437134], "min" : [-1.0000044107437134, -1.0000044107437134, -1.0000044107437134], "name" : "NORMAL"}, {"bufferView" : 10, "byteOffset" : 24, "componentType" : 5126, "count" : 177, "type" : "VEC2", "max" : [0.9638351202011108, 0.978844165802002], "min" : [0.2310837209224701, 0.11000120639801025], "name" : "TEXCOORD_0"}, {"bufferView" : 0, "byteOffset" : 33000, "componentType" : 5123, "count" : 36, "type" : "SCALAR", "max" : [35], "min" : [0]}, {"bufferView" : 11, "byteOffset" : 0, "componentType" : 5126, "count" : 36, "type" : "VEC3", "max" : [17.223453521728516, -25.666288375854492, 12.260586738586426], "min" : [-17.223453521728516, -26.666288375854492, -12.260586738586426], "name" : "POSITION"}, {"bufferView" : 11, "byteOffset" : 12, "componentType" : 5126, "count" : 36, "type" : "VEC3", "max" : [1.0000044107437134, 1.0000044107437134, 1.0000044107437134], "min" : [-1.0000044107437134, -1.0000044107437134, -1.0000044107437134], "name" : "NORMAL"}, {"bufferView" : 11, "byteOffset" : 24, "componentType" : 5126, "count" : 36, "type" : "VEC2", "max" : [0.875, 2], "min" : [0.125, 0.25], "name" : "TEXCOORD_0"}, {"bufferView" : 0, "byteOffset" : 33072, "componentType" : 5123, "count" : 348, "type" : "SCALAR", "max" : [341], "min" : [0]}, {"bufferView" : 12, "byteOffset" : 0, "componentType" : 5126, "count" : 342, "type" : "VEC3", "max" : [18.5, 47.5, 13.513577461242676], "min" : [-18.5, -47.5, -13.5], "name" : "POSITION"}, {"bufferView" : 12, "byteOffset" : 12, "componentType" : 5126, "count" : 342, "type" : "VEC3", "max" : [1.0000044107437134, 1.0000044107437134, 1.0000044107437134], "min" : [-1.0000044107437134, -1.0000044107437134, -1.0000044107437134], "name" : "NORMAL"}, {"bufferView" : 12, "byteOffset" : 24, "componentType" : 5126, "count" : 342, "type" : "VEC2", "max" : [0.875, 2], "min" : [0.125, 0.25], "name" : "TEXCOORD_0"}, {"bufferView" : 0, "byteOffset" : 33768, "componentType" : 5123, "count" : 2052, "type" : "SCALAR", "max" : [1745], "min" : [0]}, {"bufferView" : 13, "byteOffset" : 0, "componentType" : 5126, "count" : 1746, "type" : "VEC3", "max" : [16.471525192260742, 21.994243621826172, 16.764158248901367], "min" : [15.604172706604004, 12.873430252075195, 13.4222412109375], "name" : "POSITION"}, {"bufferView" : 13, "byteOffset" : 12, "componentType" : 5126, "count" : 1746, "type" : "VEC3", "max" : [1.0000044107437134, 0.984812319278717, 0.9848522543907166], "min" : [-1.0000044107437134, -1.0000044107437134, -1.0000044107437134], "name" : "NORMAL"}, {"bufferView" : 13, "byteOffset" : 24, "componentType" : 5126, "count" : 1746, "type" : "VEC2", "max" : [0.65625, 0.9976261854171753], "min" : [0.34375, 0.002373814582824707], "name" : "TEXCOORD_0"}, {"bufferView" : 0, "byteOffset" : 37872, "componentType" : 5123, "count" : 84, "type" : "SCALAR", "max" : [81], "min" : [0]}, {"bufferView" : 14, "byteOffset" : 0, "componentType" : 5126, "count" : 82, "type" : "VEC3", "max" : [18.01105308532715, 1.8467490673065186, 12.091429710388184], "min" : [-18.01105308532715, -5.953472137451172, -12.091429710388184], "name" : "POSITION"}, {"bufferView" : 14, "byteOffset" : 12, "componentType" : 5126, "count" : 82, "type" : "VEC3", "max" : [1.0000044107437134, 1.0000044107437134, 1.0000044107437134], "min" : [-1.0000044107437134, -1.0000044107437134, -1.0000044107437134], "name" : "NORMAL"}, {"bufferView" : 14, "byteOffset" : 24, "componentType" : 5126, "count" : 82, "type" : "VEC2", "max" : [0.875, 2], "min" : [0.125, 0.25], "name" : "TEXCOORD_0"}], "asset" : {"generator" : "Aspose.3D 23.4.0", "version" : "2.0"}, "buffers" : [{"uri" : "data:application/octet-stream;base64,", "byteLength" : 646740}], "bufferViews" : [{"buffer" : 0, "byteOffset" : 0, "byteLength" : 38040, "target" : 34963}, {"buffer" : 0, "byteOffset" : 38044, "byteLength" : 4608, "byteStride" : 32, "target" : 34962}, {"buffer" : 0, "byteOffset" : 42656, "byteLength" : 1152, "byteStride" : 32, "target" : 34962}, {"buffer" : 0, "byteOffset" : 43812, "byteLength" : 1152, "byteStride" : 32, "target" : 34962}, {"buffer" : 0, "byteOffset" : 44968, "byteLength" : 1152, "byteStride" : 32, "target" : 34962}, {"buffer" : 0, "byteOffset" : 46124, "byteLength" : 432768, "byteStride" : 32, "target" : 34962}, {"buffer" : 0, "byteOffset" : 478896, "byteLength" : 38016, "byteStride" : 32, "target" : 34962}, {"buffer" : 0, "byteOffset" : 516916, "byteLength" : 38016, "byteStride" : 32, "target" : 34962}, {"buffer" : 0, "byteOffset" : 554936, "byteLength" : 4224, "byteStride" : 32, "target" : 34962}, {"buffer" : 0, "byteOffset" : 559164, "byteLength" : 1152, "byteStride" : 32, "target" : 34962}, {"buffer" : 0, "byteOffset" : 560320, "byteLength" : 5760, "byteStride" : 32, "target" : 34962}, {"buffer" : 0, "byteOffset" : 566084, "byteLength" : 1152, "byteStride" : 32, "target" : 34962}, {"buffer" : 0, "byteOffset" : 567240, "byteLength" : 11136, "byteStride" : 32, "target" : 34962}, {"buffer" : 0, "byteOffset" : 578380, "byteLength" : 65664, "byteStride" : 32, "target" : 34962}, {"buffer" : 0, "byteOffset" : 644048, "byteLength" : 2688, "byteStride" : 32, "target" : 34962}], "materials" : [{"pbrMetallicRoughness" : {"baseColorFactor" : [0.012983032338510335, 0.014443843592229466, 0.02028856305209031, 1], "metallicFactor" : 1, "roughnessFactor" : 0.6406926512718201}, "emissiveFactor" : [0, 0, 0], "alphaMode" : "OPAQUE", "doubleSided" : false}, {"pbrMetallicRoughness" : {"baseColorFactor" : [1, 1, 1, 0.13], "metallicFactor" : 0.79, "roughnessFactor" : 0.11}, "emissiveFactor" : [0, 0, 0], "alphaMode" : "BLEND", "doubleSided" : false}, {"pbrMetallicRoughness" : {"baseColorFactor" : [1, 1, 1, 0.13], "metallicFactor" : 0.79, "roughnessFactor" : 0.11}, "emissiveFactor" : [0, 0, 0], "alphaMode" : "BLEND", "doubleSided" : false}, {"pbrMetallicRoughness" : {"baseColorFactor" : [1, 1, 1, 0.13], "metallicFactor" : 0.79, "roughnessFactor" : 0.11}, "emissiveFactor" : [0, 0, 0], "alphaMode" : "BLEND", "doubleSided" : false}, {"pbrMetallicRoughness" : {"baseColorFactor" : [0.3049873140591091, 0.3049873140591091, 0.3049873140591091, 1], "metallicFactor" : 1, "roughnessFactor" : 0.3}, "emissiveFactor" : [0, 0, 0], "alphaMode" : "OPAQUE", "doubleSided" : false}, {"pbrMetallicRoughness" : {"baseColorFactor" : [0.3049873140591091, 0.3049873140591091, 0.3049873140591091, 1], "metallicFactor" : 1, "roughnessFactor" : 0.3}, "emissiveFactor" : [0, 0, 0], "alphaMode" : "OPAQUE", "doubleSided" : false}, {"pbrMetallicRoughness" : {"baseColorFactor" : [0.3049873140591091, 0.3049873140591091, 0.3049873140591091, 1], "metallicFactor" : 1, "roughnessFactor" : 0.3}, "emissiveFactor" : [0, 0, 0], "alphaMode" : "OPAQUE", "doubleSided" : false}, {"pbrMetallicRoughness" : {"baseColorFactor" : [0.3049873140591091, 0.3049873140591091, 0.3049873140591091, 1], "metallicFactor" : 1, "roughnessFactor" : 0.3}, "emissiveFactor" : [0, 0, 0], "alphaMode" : "OPAQUE", "doubleSided" : false}, {"pbrMetallicRoughness" : {"baseColorFactor" : [0.3049873140591091, 0.3049873140591091, 0.3049873140591091, 1], "metallicFactor" : 1, "roughnessFactor" : 0.3}, "emissiveFactor" : [0, 0, 0], "alphaMode" : "OPAQUE", "doubleSided" : false}, {"pbrMetallicRoughness" : {"baseColorFactor" : [0.3049873140591091, 0.3049873140591091, 0.3049873140591091, 1], "metallicFactor" : 1, "roughnessFactor" : 0.3}, "emissiveFactor" : [0, 0, 0], "alphaMode" : "OPAQUE", "doubleSided" : false}, {"pbrMetallicRoughness" : {"baseColorFactor" : [0.012983032338510335, 0.014443843592229466, 0.02028856305209031, 1], "metallicFactor" : 1, "roughnessFactor" : 0.6406926512718201}, "emissiveFactor" : [0, 0, 0], "alphaMode" : "OPAQUE", "doubleSided" : false}, {"pbrMetallicRoughness" : {"baseColorFactor" : [0.012983032338510335, 0.014443843592229466, 0.02028856305209031, 1], "metallicFactor" : 1, "roughnessFactor" : 0.6406926512718201}, "emissiveFactor" : [0, 0, 0], "alphaMode" : "OPAQUE", "doubleSided" : false}, {"pbrMetallicRoughness" : {"baseColorFactor" : [0.4019777798219466, 0.4019777798219466, 0.4019777798219466, 1], "metallicFactor" : 1, "roughnessFactor" : 0.2}, "emissiveFactor" : [0, 0, 0], "alphaMode" : "OPAQUE", "doubleSided" : false}, {"pbrMetallicRoughness" : {"baseColorFactor" : [0.012983032338510335, 0.014443843592229466, 0.02028856305209031, 1], "metallicFactor" : 1, "roughnessFactor" : 0.6406926512718201}, "emissiveFactor" : [0, 0, 0], "alphaMode" : "OPAQUE", "doubleSided" : false}], "meshes" : [{"primitives" : [{"attributes" : {"POSITION" : 1, "NORMAL" : 2, "TEXCOORD_0" : 3}, "indices" : 0, "material" : 0, "mode" : 4}]}, {"primitives" : [{"attributes" : {"POSITION" : 5, "NORMAL" : 6, "TEXCOORD_0" : 7}, "indices" : 4, "material" : 1, "mode" : 4}]}, {"primitives" : [{"attributes" : {"POSITION" : 9, "NORMAL" : 10, "TEXCOORD_0" : 11}, "indices" : 8, "material" : 2, "mode" : 4}]}, {"primitives" : [{"attributes" : {"POSITION" : 13, "NORMAL" : 14, "TEXCOORD_0" : 15}, "indices" : 12, "material" : 3, "mode" : 4}]}, {"primitives" : [{"attributes" : {"POSITION" : 17, "NORMAL" : 18, "TEXCOORD_0" : 19}, "indices" : 16, "material" : 4, "mode" : 4}]}, {"primitives" : [{"attributes" : {"POSITION" : 21, "NORMAL" : 22, "TEXCOORD_0" : 23}, "indices" : 20, "material" : 5, "mode" : 4}]}, {"primitives" : [{"attributes" : {"POSITION" : 25, "NORMAL" : 26, "TEXCOORD_0" : 27}, "indices" : 24, "material" : 6, "mode" : 4}]}, {"primitives" : [{"attributes" : {"POSITION" : 29, "NORMAL" : 30, "TEXCOORD_0" : 31}, "indices" : 28, "material" : 7, "mode" : 4}]}, {"primitives" : [{"attributes" : {"POSITION" : 33, "NORMAL" : 34, "TEXCOORD_0" : 35}, "indices" : 32, "material" : 8, "mode" : 4}]}, {"primitives" : [{"attributes" : {"POSITION" : 37, "NORMAL" : 38, "TEXCOORD_0" : 39}, "indices" : 36, "material" : 9, "mode" : 4}]}, {"primitives" : [{"attributes" : {"POSITION" : 41, "NORMAL" : 42, "TEXCOORD_0" : 43}, "indices" : 40, "material" : 10, "mode" : 4}]}, {"primitives" : [{"attributes" : {"POSITION" : 45, "NORMAL" : 46, "TEXCOORD_0" : 47}, "indices" : 44, "material" : 11, "mode" : 4}]}, {"primitives" : [{"attributes" : {"POSITION" : 49, "NORMAL" : 50, "TEXCOORD_0" : 51}, "indices" : 48, "material" : 12, "mode" : 4}]}, {"primitives" : [{"attributes" : {"POSITION" : 53, "NORMAL" : 54, "TEXCOORD_0" : 55}, "indices" : 52, "material" : 13, "mode" : 4}]}], "nodes" : [{"matrix" : [0.010065462770798223, 0, 0, 0, 0, 0.010065462770798223, 0, 0, 0, 0, 0.010065462770798223, 0, 0, 0.4895442638238229, 0, 1], "mesh" : 0, "name" : "mesh_0"}, {"matrix" : [0.010065462770798223, 0, 0, 0, 0, 0.010065462770798223, 0, 0, 0, 0, 0.010065462770798223, 0, 0, 0.4895442638238229, 0, 1], "mesh" : 1, "name" : "mesh_1"}, {"matrix" : [0.010065462770798223, 0, 0, 0, 0, 0.010065462770798223, 0, 0, 0, 0, 0.010065462770798223, 0, 0, 0.4895442638238229, 0, 1], "mesh" : 2, "name" : "mesh_2"}, {"matrix" : [0.010065462770798223, 0, 0, 0, 0, 0.010065462770798223, 0, 0, 0, 0, 0.010065462770798223, 0, 0, 0.4895442638238229, 0, 1], "mesh" : 3, "name" : "mesh_3"}, {"matrix" : [0.010065462770798223, 0, 0, 0, 0, 0.010065462770798223, 0, 0, 0, 0, 0.010065462770798223, 0, 0, 0.4895442638238229, 0, 1], "mesh" : 4, "name" : "mesh_4"}, {"matrix" : [0.010065462770798223, 0, 0, 0, 0, 0.010065462770798223, 0, 0, 0, 0, 0.010065462770798223, 0, 0, 0.4895442638238229, 0, 1], "mesh" : 5, "name" : "mesh_5"}, {"matrix" : [0.010065462770798223, 0, 0, 0, 0, 0.010065462770798223, 0, 0, 0, 0, 0.010065462770798223, 0, 0, 0.4895442638238229, 0, 1], "mesh" : 6, "name" : "mesh_6"}, {"matrix" : [0.010065462770798223, 0, 0, 0, 0, 0.010065462770798223, 0, 0, 0, 0, 0.010065462770798223, 0, 0, 0.4895442638238229, 0, 1], "mesh" : 7, "name" : "mesh_7"}, {"matrix" : [0.010065462770798223, 0, 0, 0, 0, 0.010065462770798223, 0, 0, 0, 0, 0.010065462770798223, 0, 0, 0.4895442638238229, 0, 1], "mesh" : 8, "name" : "mesh_8"}, {"matrix" : [0.010065462770798223, 0, 0, 0, 0, 0.010065462770798223, 0, 0, 0, 0, 0.010065462770798223, 0, 0, 0.4895442638238229, 0, 1], "mesh" : 9, "name" : "mesh_9"}, {"matrix" : [0.010065462770798223, 0, 0, 0, 0, 0.010065462770798223, 0, 0, 0, 0, 0.010065462770798223, 0, 0, 0.4895442638238229, 0, 1], "mesh" : 10, "name" : "mesh_10"}, {"matrix" : [0.010065462770798223, 0, 0, 0, 0, 0.010065462770798223, 0, 0, 0, 0, 0.010065462770798223, 0, 0, 0.4895442638238229, 0, 1], "mesh" : 11, "name" : "mesh_11"}, {"matrix" : [0.010065462770798223, 0, 0, 0, 0, 0.010065462770798223, 0, 0, 0, 0, 0.010065462770798223, 0, 0, 0.4895442638238229, 0, 1], "mesh" : 12, "name" : "mesh_12"}, {"matrix" : [0.010065462770798223, 0, 0, 0, 0, 0.010065462770798223, 0, 0, 0, 0, 0.010065462770798223, 0, 0, 0.4895442638238229, 0, 1], "mesh" : 13, "name" : "mesh_13"}, {"children" : [0, 1, 2, 3, 4, 5, 6, 7, 8, 9, 10, 11, 12, 13], "name" : "92a44e00-0d40-44e0-994b-7d4c8241446d"}, {"children" : [14], "name" : "defaultScene"}], "scene" : 0, "scenes" : [{"nodes" : [15]}]}