{"accessors" : [{"bufferView" : 0, "byteOffset" : 0, "componentType" : 5123, "count" : 19020, "type" : "SCALAR", "max" : [17951], "min" : [0]}, {"bufferView" : 1, "byteOffset" : 0, "componentType" : 5126, "count" : 17952, "type" : "VEC3", "max" : [18.5, 47.5, 16.764158248901367], "min" : [-18.5, -47.5, -13.5], "name" : "POSITION"}, {"bufferView" : 1, "byteOffset" : 12, "componentType" : 5126, "count" : 17952, "type" : "VEC3", "max" : [1.0000044107437134, 1.0000044107437134, 1.0000044107437134], "min" : [-1.0000044107437134, -1.0000044107437134, -1.0000044107437134], "name" : "NORMAL"}, {"bufferView" : 1, "byteOffset" : 24, "componentType" : 5126, "count" : 17952, "type" : "VEC2", "max" : [0.9638351202011108, 2], "min" : [0.03870731592178345, 0.002373814582824707], "name" : "TEXCOORD_0"}], "asset" : {"generator" : "Aspose.3D 23.4.0", "version" : "2.0"}, "buffers" : [{"uri" : "data:application/octet-stream;base64,", "byteLength" : 646688}], "bufferViews" : [{"buffer" : 0, "byteOffset" : 0, "byteLength" : 38040, "target" : 34963}, {"buffer" : 0, "byteOffset" : 38044, "byteLength" : 608640, "byteStride" : 32, "target" : 34962}], "materials" : [{"pbrMetallicRoughness" : {"baseColorFactor" : [0.07808500528335571, 0.09339120239019394, 0.11500000208616257, 1], "metallicFactor" : 1, "roughnessFactor" : 0.6406926512718201}, "emissiveFactor" : [0, 0, 0], "alphaMode" : "OPAQUE", "doubleSided" : false}], "meshes" : [{"primitives" : [{"attributes" : {"POSITION" : 1, "NORMAL" : 2, "TEXCOORD_0" : 3}, "indices" : 0, "material" : 0, "mode" : 4}]}], "nodes" : [{"mesh" : 0, "name" : "Node #34"}], "scene" : 0, "scenes" : [{"nodes" : [0]}]}