{"accessors" : [{"bufferView" : 0, "byteOffset" : 0, "componentType" : 5123, "count" : 36, "type" : "SCALAR", "max" : [35], "min" : [0]}, {"bufferView" : 1, "byteOffset" : 0, "componentType" : 5126, "count" : 36, "type" : "VEC3", "max" : [0.05049610137939453, -0.07991790771484375, 0.01580977439880371], "min" : [0.03190875053405762, -0.08318710327148438, -0.012502193450927734], "name" : "POSITION"}, {"bufferView" : 1, "byteOffset" : 12, "componentType" : 5126, "count" : 36, "type" : "VEC3", "max" : [1.0000044107437134, 1.0000044107437134, 1.0000044107437134], "min" : [-1.0000044107437134, -1.0000044107437134, -1.0000044107437134], "name" : "NORMAL"}, {"bufferView" : 1, "byteOffset" : 24, "componentType" : 5126, "count" : 36, "type" : "VEC2", "max" : [0.9628076553344727, 0.99242103099823], "min" : [0.7301732301712036, 0.6396190524101257], "name" : "TEXCOORD_0"}, {"bufferView" : 0, "byteOffset" : 72, "componentType" : 5123, "count" : 12714, "type" : "SCALAR", "max" : [12105], "min" : [0]}, {"bufferView" : 2, "byteOffset" : 0, "componentType" : 5126, "count" : 12106, "type" : "VEC3", "max" : [0.07551765441894531, -0.05170249938964844, 0.1557483673095703], "min" : [-0.07551765441894531, -0.11342620849609375, -0.15244102478027344], "name" : "POSITION"}, {"bufferView" : 2, "byteOffset" : 12, "componentType" : 5126, "count" : 12106, "type" : "VEC3", "max" : [1.0000044107437134, 1.0000044107437134, 1.0000044107437134], "min" : [-1.0000044107437134, -1.0000044107437134, -1.0000044107437134], "name" : "NORMAL"}, {"bufferView" : 2, "byteOffset" : 24, "componentType" : 5126, "count" : 12106, "type" : "VEC2", "max" : [0.9542115330696106, 0.9980079531669617], "min" : [0.0019046140369027853, 0.0019919276237487793], "name" : "TEXCOORD_0"}, {"bufferView" : 0, "byteOffset" : 25500, "componentType" : 5123, "count" : 1188, "type" : "SCALAR", "max" : [1138], "min" : [0]}, {"bufferView" : 3, "byteOffset" : 0, "componentType" : 5126, "count" : 1139, "type" : "VEC3", "max" : [0.0007181167602539062, -0.03737831115722656, 0.04741048812866211], "min" : [-0.0067138671875, -0.05495262145996094, 0.04046440124511719], "name" : "POSITION"}, {"bufferView" : 3, "byteOffset" : 12, "componentType" : 5126, "count" : 1139, "type" : "VEC3", "max" : [0.9946180582046509, 1.0000044107437134, 0.9958880543708801], "min" : [-0.9946180582046509, -1.0000044107437134, -0.9958880543708801], "name" : "NORMAL"}, {"bufferView" : 3, "byteOffset" : 24, "componentType" : 5126, "count" : 1139, "type" : "VEC2", "max" : [0.8262068033218384, 0.9488264322280884], "min" : [0.5250929594039917, 0.15432119369506836], "name" : "TEXCOORD_0"}, {"bufferView" : 0, "byteOffset" : 27876, "componentType" : 5123, "count" : 132, "type" : "SCALAR", "max" : [131], "min" : [0]}, {"bufferView" : 4, "byteOffset" : 0, "componentType" : 5126, "count" : 132, "type" : "VEC3", "max" : [0.004131317138671875, -0.05211067199707031, 0.14457130432128906], "min" : [-0.06409645080566406, -0.053981781005859375, -0.1412639617919922], "name" : "POSITION"}, {"bufferView" : 4, "byteOffset" : 12, "componentType" : 5126, "count" : 132, "type" : "VEC3", "max" : [1.0000044107437134, 1.0000044107437134, 1.0000042915344238], "min" : [-1.0000044107437134, -1.0000044107437134, -1.0000042915344238], "name" : "NORMAL"}, {"bufferView" : 4, "byteOffset" : 24, "componentType" : 5126, "count" : 132, "type" : "VEC2", "max" : [0.963823676109314, 0.992982029914856], "min" : [0.03870731592178345, 0.2295083999633789], "name" : "TEXCOORD_0"}, {"bufferView" : 0, "byteOffset" : 28140, "componentType" : 5123, "count" : 1188, "type" : "SCALAR", "max" : [1138], "min" : [0]}, {"bufferView" : 5, "byteOffset" : 0, "componentType" : 5126, "count" : 1139, "type" : "VEC3", "max" : [0.0007181167602539062, -0.03737831115722656, -0.03703784942626953], "min" : [-0.0067138671875, -0.05495262145996094, -0.04398345947265625], "name" : "POSITION"}, {"bufferView" : 5, "byteOffset" : 12, "componentType" : 5126, "count" : 1139, "type" : "VEC3", "max" : [0.9946180582046509, 1.0000044107437134, 0.9958880543708801], "min" : [-0.9946181178092957, -1.0000044107437134, -0.9958880543708801], "name" : "NORMAL"}, {"bufferView" : 5, "byteOffset" : 24, "componentType" : 5126, "count" : 1139, "type" : "VEC2", "max" : [0.927639365196228, 0.9473897218704224], "min" : [0.530537486076355, 0.010818958282470703], "name" : "TEXCOORD_0"}, {"bufferView" : 0, "byteOffset" : 30516, "componentType" : 5123, "count" : 180, "type" : "SCALAR", "max" : [176], "min" : [0]}, {"bufferView" : 6, "byteOffset" : 0, "componentType" : 5126, "count" : 177, "type" : "VEC3", "max" : [0.04927253723144531, -0.06434822082519531, 0.1288928985595703], "min" : [0.0008716583251953125, -0.09428596496582031, -0.12558555603027344], "name" : "POSITION"}, {"bufferView" : 6, "byteOffset" : 12, "componentType" : 5126, "count" : 177, "type" : "VEC3", "max" : [1.0000044107437134, 1.0000044107437134, 1.0000044107437134], "min" : [-1.0000044107437134, -1.0000044107437134, -1.0000044107437134], "name" : "NORMAL"}, {"bufferView" : 6, "byteOffset" : 24, "componentType" : 5126, "count" : 177, "type" : "VEC2", "max" : [0.9638351202011108, 0.978844165802002], "min" : [0.2310837209224701, 0.11000120639801025], "name" : "TEXCOORD_0"}, {"bufferView" : 0, "byteOffset" : 30876, "componentType" : 5123, "count" : 1200, "type" : "SCALAR", "max" : [1145], "min" : [0]}, {"bufferView" : 7, "byteOffset" : 0, "componentType" : 5126, "count" : 1146, "type" : "VEC3", "max" : [0.10870665311813354, -0.12841469049453735, -0.23522090911865234], "min" : [-0.0870673656463623, -0.14843779802322388, -0.25524401664733887], "name" : "POSITION"}, {"bufferView" : 7, "byteOffset" : 12, "componentType" : 5126, "count" : 1146, "type" : "VEC3", "max" : [1.0000044107437134, 1.0000044107437134, 1.0000044107437134], "min" : [-1.0000044107437134, -1.0000044107437134, -1.0000044107437134], "name" : "NORMAL"}, {"bufferView" : 7, "byteOffset" : 24, "componentType" : 5126, "count" : 1146, "type" : "VEC2", "max" : [0.65625, 0.9950888752937317], "min" : [0.3437499701976776, 7.450580596923828E-08], "name" : "TEXCOORD_0"}, {"bufferView" : 0, "byteOffset" : 33276, "componentType" : 5123, "count" : 312, "type" : "SCALAR", "max" : [300], "min" : [0]}, {"bufferView" : 8, "byteOffset" : 0, "componentType" : 5126, "count" : 301, "type" : "VEC3", "max" : [0.10442209243774414, 0.19999998807907104, 0.3000001013278961], "min" : [0.10089462995529175, -0.19999998807907104, -0.30000007152557373], "name" : "POSITION"}, {"bufferView" : 8, "byteOffset" : 12, "componentType" : 5126, "count" : 301, "type" : "VEC3", "max" : [0.958148181438446, 0.9984073042869568, 0.9984068870544434], "min" : [-0.9581629633903503, -0.998407244682312, -0.9984076023101807], "name" : "NORMAL"}, {"bufferView" : 8, "byteOffset" : 24, "componentType" : 5126, "count" : 301, "type" : "VEC2", "max" : [0.08701261132955551, 0.9980079531669617], "min" : [0.0001736778940539807, 0.00199204683303833], "name" : "TEXCOORD_0"}, {"bufferView" : 0, "byteOffset" : 33900, "componentType" : 5123, "count" : 1200, "type" : "SCALAR", "max" : [1145], "min" : [0]}, {"bufferView" : 9, "byteOffset" : 0, "componentType" : 5126, "count" : 1146, "type" : "VEC3", "max" : [0.10870666056871414, -0.12841469049453735, 0.2537952661514282], "min" : [-0.0870673805475235, -0.14843779802322388, 0.2337721884250641], "name" : "POSITION"}, {"bufferView" : 9, "byteOffset" : 12, "componentType" : 5126, "count" : 1146, "type" : "VEC3", "max" : [1.0000044107437134, 1.0000044107437134, 1.0000044107437134], "min" : [-1.0000044107437134, -1.0000044107437134, -1.0000044107437134], "name" : "NORMAL"}, {"bufferView" : 9, "byteOffset" : 24, "componentType" : 5126, "count" : 1146, "type" : "VEC2", "max" : [0.65625, 0.9950888752937317], "min" : [0.3437499701976776, 7.450580596923828E-08], "name" : "TEXCOORD_0"}, {"bufferView" : 0, "byteOffset" : 36300, "componentType" : 5123, "count" : 12, "type" : "SCALAR", "max" : [11], "min" : [0]}, {"bufferView" : 10, "byteOffset" : 0, "componentType" : 5126, "count" : 12, "type" : "VEC3", "max" : [0.10442209243774414, 0.19945457577705383, 0.29945462942123413], "min" : [0.10089462995529175, -0.19945457577705383, -0.29945462942123413], "name" : "POSITION"}, {"bufferView" : 10, "byteOffset" : 12, "componentType" : 5126, "count" : 12, "type" : "VEC3", "max" : [1.0000044107437134, 0, 0], "min" : [-1.0000044107437134, 0, 0], "name" : "NORMAL"}, {"bufferView" : 10, "byteOffset" : 24, "componentType" : 5126, "count" : 12, "type" : "VEC2", "max" : [0.8747727274894714, 0.9996591210365295], "min" : [0.12522727251052856, 0.7503408789634705], "name" : "TEXCOORD_0"}, {"bufferView" : 0, "byteOffset" : 36324, "componentType" : 5123, "count" : 1200, "type" : "SCALAR", "max" : [1145], "min" : [0]}, {"bufferView" : 11, "byteOffset" : 0, "componentType" : 5126, "count" : 1146, "type" : "VEC3", "max" : [0.10870666056871414, 0.16767150163650513, 0.2537952661514282], "min" : [-0.0870673805475235, 0.147648423910141, 0.2337721884250641], "name" : "POSITION"}, {"bufferView" : 11, "byteOffset" : 12, "componentType" : 5126, "count" : 1146, "type" : "VEC3", "max" : [1.0000044107437134, 1.0000044107437134, 1.0000044107437134], "min" : [-1.0000044107437134, -1.0000044107437134, -1.0000044107437134], "name" : "NORMAL"}, {"bufferView" : 11, "byteOffset" : 24, "componentType" : 5126, "count" : 1146, "type" : "VEC2", "max" : [0.65625, 0.9950888752937317], "min" : [0.3437499701976776, 7.450580596923828E-08], "name" : "TEXCOORD_0"}, {"bufferView" : 0, "byteOffset" : 38724, "componentType" : 5123, "count" : 1200, "type" : "SCALAR", "max" : [1145], "min" : [0]}, {"bufferView" : 12, "byteOffset" : 0, "componentType" : 5126, "count" : 1146, "type" : "VEC3", "max" : [0.10870665311813354, 0.16767150163650513, -0.23522090911865234], "min" : [-0.0870673656463623, 0.147648423910141, -0.25524401664733887], "name" : "POSITION"}, {"bufferView" : 12, "byteOffset" : 12, "componentType" : 5126, "count" : 1146, "type" : "VEC3", "max" : [1.0000044107437134, 1.0000044107437134, 1.0000044107437134], "min" : [-1.0000044107437134, -1.0000044107437134, -1.0000044107437134], "name" : "NORMAL"}, {"bufferView" : 12, "byteOffset" : 24, "componentType" : 5126, "count" : 1146, "type" : "VEC2", "max" : [0.65625, 0.9950888752937317], "min" : [0.3437499701976776, 7.450580596923828E-08], "name" : "TEXCOORD_0"}, {"bufferView" : 0, "byteOffset" : 41124, "componentType" : 5123, "count" : 8052, "type" : "SCALAR", "max" : [7464], "min" : [0]}, {"bufferView" : 13, "byteOffset" : 0, "componentType" : 5126, "count" : 7465, "type" : "VEC3", "max" : [0.07957284152507782, -0.05392826348543167, 0.2029595971107483], "min" : [-0.07957284152507782, -0.14520736038684845, -0.2029595971107483], "name" : "POSITION"}, {"bufferView" : 13, "byteOffset" : 12, "componentType" : 5126, "count" : 7465, "type" : "VEC3", "max" : [1.0000044107437134, 1.0000044107437134, 1.0000044107437134], "min" : [-1.0000044107437134, -1.0000044107437134, -1.0000044107437134], "name" : "NORMAL"}, {"bufferView" : 13, "byteOffset" : 24, "componentType" : 5126, "count" : 7465, "type" : "VEC2", "max" : [0.9980080127716064, 0.9980129599571228], "min" : [0.00199203216470778, 0.004482448101043701], "name" : "TEXCOORD_0"}, {"bufferView" : 0, "byteOffset" : 57228, "componentType" : 5123, "count" : 564, "type" : "SCALAR", "max" : [526], "min" : [0]}, {"bufferView" : 14, "byteOffset" : 0, "componentType" : 5126, "count" : 527, "type" : "VEC3", "max" : [-0.08711263537406921, 0.19999998807907104, 0.3000001013278961], "min" : [-0.10500001907348633, -0.19999998807907104, -0.30000007152557373], "name" : "POSITION"}, {"bufferView" : 14, "byteOffset" : 12, "componentType" : 5126, "count" : 527, "type" : "VEC3", "max" : [1.0000041723251343, 0.9999191761016846, 0.9999191164970398], "min" : [-1.0000041723251343, -0.9999191761016846, -0.999919056892395], "name" : "NORMAL"}, {"bufferView" : 14, "byteOffset" : 24, "componentType" : 5126, "count" : 527, "type" : "VEC2", "max" : [0.875, 1], "min" : [0.125, 0.0006338357925415039], "name" : "TEXCOORD_0"}], "asset" : {"generator" : "Aspose.3D 23.7.0", "version" : "2.0"}, "buffers" : [{"uri" : "data:application/octet-stream;base64,", "byteLength" : 992112}], "bufferViews" : [{"buffer" : 0, "byteOffset" : 0, "byteLength" : 58356, "target" : 34963}, {"buffer" : 0, "byteOffset" : 58360, "byteLength" : 1152, "byteStride" : 32, "target" : 34962}, {"buffer" : 0, "byteOffset" : 59516, "byteLength" : 406848, "byteStride" : 32, "target" : 34962}, {"buffer" : 0, "byteOffset" : 466368, "byteLength" : 38016, "byteStride" : 32, "target" : 34962}, {"buffer" : 0, "byteOffset" : 504388, "byteLength" : 4224, "byteStride" : 32, "target" : 34962}, {"buffer" : 0, "byteOffset" : 508616, "byteLength" : 38016, "byteStride" : 32, "target" : 34962}, {"buffer" : 0, "byteOffset" : 546636, "byteLength" : 5760, "byteStride" : 32, "target" : 34962}, {"buffer" : 0, "byteOffset" : 552400, "byteLength" : 38400, "byteStride" : 32, "target" : 34962}, {"buffer" : 0, "byteOffset" : 590804, "byteLength" : 9984, "byteStride" : 32, "target" : 34962}, {"buffer" : 0, "byteOffset" : 600792, "byteLength" : 38400, "byteStride" : 32, "target" : 34962}, {"buffer" : 0, "byteOffset" : 639196, "byteLength" : 384, "byteStride" : 32, "target" : 34962}, {"buffer" : 0, "byteOffset" : 639584, "byteLength" : 38400, "byteStride" : 32, "target" : 34962}, {"buffer" : 0, "byteOffset" : 677988, "byteLength" : 38400, "byteStride" : 32, "target" : 34962}, {"buffer" : 0, "byteOffset" : 716392, "byteLength" : 257664, "byteStride" : 32, "target" : 34962}, {"buffer" : 0, "byteOffset" : 974060, "byteLength" : 18048, "byteStride" : 32, "target" : 34962}], "materials" : [{"pbrMetallicRoughness" : {"baseColorFactor" : [0, 0, 0, 1], "metallicFactor" : 1, "roughnessFactor" : 0.33000001311302185}, "emissiveFactor" : [0, 0, 0], "alphaMode" : "OPAQUE", "doubleSided" : false}, {"pbrMetallicRoughness" : {"baseColorFactor" : [0, 0, 0, 1], "metallicFactor" : 1, "roughnessFactor" : 0.33000001311302185}, "emissiveFactor" : [0, 0, 0], "alphaMode" : "OPAQUE", "doubleSided" : false}, {"pbrMetallicRoughness" : {"baseColorFactor" : [0, 0, 0, 1], "metallicFactor" : 1, "roughnessFactor" : 0.33000001311302185}, "emissiveFactor" : [0, 0, 0], "alphaMode" : "OPAQUE", "doubleSided" : false}, {"pbrMetallicRoughness" : {"baseColorFactor" : [0, 0, 0, 1], "metallicFactor" : 1, "roughnessFactor" : 0.33000001311302185}, "emissiveFactor" : [0, 0, 0], "alphaMode" : "OPAQUE", "doubleSided" : false}, {"pbrMetallicRoughness" : {"baseColorFactor" : [0, 0, 0, 1], "metallicFactor" : 1, "roughnessFactor" : 0.33000001311302185}, "emissiveFactor" : [0, 0, 0], "alphaMode" : "OPAQUE", "doubleSided" : false}, {"pbrMetallicRoughness" : {"baseColorFactor" : [0.5, 0.5, 0.5, 1], "metallicFactor" : 0, "roughnessFactor" : 1}, "emissiveFactor" : [0, 0, 0], "alphaMode" : "OPAQUE", "doubleSided" : false}, {"pbrMetallicRoughness" : {"baseColorFactor" : [0.39086294174194336, 0.39086294174194336, 0.39086294174194336, 1], "metallicFactor" : 0.9264069199562073, "roughnessFactor" : 0.33000001311302185}, "emissiveFactor" : [0, 0, 0], "alphaMode" : "OPAQUE", "doubleSided" : false}, {"pbrMetallicRoughness" : {"baseColorFactor" : [0.016499996185302734, 0.5, 0.3493978977203369, 1], "metallicFactor" : 0.9264069199562073, "roughnessFactor" : 0.33000001311302185}, "emissiveFactor" : [0, 0, 0], "alphaMode" : "OPAQUE", "doubleSided" : false}, {"pbrMetallicRoughness" : {"baseColorFactor" : [0.39086294174194336, 0.39086294174194336, 0.39086294174194336, 1], "metallicFactor" : 0.9264069199562073, "roughnessFactor" : 0.33000001311302185}, "emissiveFactor" : [0, 0, 0], "alphaMode" : "OPAQUE", "doubleSided" : false}, {"pbrMetallicRoughness" : {"baseColorFactor" : [1, 1, 1, 1], "metallicFactor" : 0, "roughnessFactor" : 0.33000001311302185}, "emissiveFactor" : [0, 0, 0], "alphaMode" : "OPAQUE", "doubleSided" : false}, {"pbrMetallicRoughness" : {"baseColorFactor" : [0.39086294174194336, 0.39086294174194336, 0.39086294174194336, 1], "metallicFactor" : 0.9264069199562073, "roughnessFactor" : 0.33000001311302185}, "emissiveFactor" : [0, 0, 0], "alphaMode" : "OPAQUE", "doubleSided" : false}, {"pbrMetallicRoughness" : {"baseColorFactor" : [0.39086294174194336, 0.39086294174194336, 0.39086294174194336, 1], "metallicFactor" : 0.9264069199562073, "roughnessFactor" : 0.33000001311302185}, "emissiveFactor" : [0, 0, 0], "alphaMode" : "OPAQUE", "doubleSided" : false}, {"pbrMetallicRoughness" : {"baseColorFactor" : [1, 1, 1, 1], "metallicFactor" : 0.2595111131668091, "roughnessFactor" : 1}, "emissiveFactor" : [0, 0, 0], "alphaMode" : "OPAQUE", "doubleSided" : false}, {"pbrMetallicRoughness" : {"baseColorFactor" : [0.03211009129881859, 0.03211009129881859, 0.03211009129881859, 1], "metallicFactor" : 1, "roughnessFactor" : 0.6299999952316284}, "emissiveFactor" : [0, 0, 0], "alphaMode" : "OPAQUE", "doubleSided" : false}], "meshes" : [{"primitives" : [{"attributes" : {"POSITION" : 1, "NORMAL" : 2, "TEXCOORD_0" : 3}, "indices" : 0, "material" : 0, "mode" : 4}]}, {"primitives" : [{"attributes" : {"POSITION" : 5, "NORMAL" : 6, "TEXCOORD_0" : 7}, "indices" : 4, "material" : 1, "mode" : 4}]}, {"primitives" : [{"attributes" : {"POSITION" : 9, "NORMAL" : 10, "TEXCOORD_0" : 11}, "indices" : 8, "material" : 2, "mode" : 4}]}, {"primitives" : [{"attributes" : {"POSITION" : 13, "NORMAL" : 14, "TEXCOORD_0" : 15}, "indices" : 12, "material" : 3, "mode" : 4}]}, {"primitives" : [{"attributes" : {"POSITION" : 17, "NORMAL" : 18, "TEXCOORD_0" : 19}, "indices" : 16, "material" : 4, "mode" : 4}]}, {"primitives" : [{"attributes" : {"POSITION" : 21, "NORMAL" : 22, "TEXCOORD_0" : 23}, "indices" : 20, "material" : 5, "mode" : 4}]}, {"primitives" : [{"attributes" : {"POSITION" : 25, "NORMAL" : 26, "TEXCOORD_0" : 27}, "indices" : 24, "material" : 6, "mode" : 4}]}, {"primitives" : [{"attributes" : {"POSITION" : 29, "NORMAL" : 30, "TEXCOORD_0" : 31}, "indices" : 28, "material" : 7, "mode" : 4}]}, {"primitives" : [{"attributes" : {"POSITION" : 33, "NORMAL" : 34, "TEXCOORD_0" : 35}, "indices" : 32, "material" : 8, "mode" : 4}]}, {"primitives" : [{"attributes" : {"POSITION" : 37, "NORMAL" : 38, "TEXCOORD_0" : 39}, "indices" : 36, "material" : 9, "mode" : 4}]}, {"primitives" : [{"attributes" : {"POSITION" : 41, "NORMAL" : 42, "TEXCOORD_0" : 43}, "indices" : 40, "material" : 10, "mode" : 4}]}, {"primitives" : [{"attributes" : {"POSITION" : 45, "NORMAL" : 46, "TEXCOORD_0" : 47}, "indices" : 44, "material" : 11, "mode" : 4}]}, {"primitives" : [{"attributes" : {"POSITION" : 49, "NORMAL" : 50, "TEXCOORD_0" : 51}, "indices" : 48, "material" : 12, "mode" : 4}]}, {"primitives" : [{"attributes" : {"POSITION" : 53, "NORMAL" : 54, "TEXCOORD_0" : 55}, "indices" : 52, "material" : 13, "mode" : 4}]}], "nodes" : [{"mesh" : 0, "name" : "Node #1"}, {"mesh" : 1, "name" : "Node #2"}, {"mesh" : 2, "name" : "Node #3"}, {"mesh" : 3, "name" : "Node #4"}, {"mesh" : 4, "name" : "Node #5"}, {"mesh" : 5, "name" : "Node #6"}, {"mesh" : 6, "name" : "Node #7"}, {"mesh" : 7, "name" : "Node #8"}, {"mesh" : 8, "name" : "Node #9"}, {"mesh" : 9, "name" : "Node #10"}, {"mesh" : 10, "name" : "Node #11"}, {"mesh" : 11, "name" : "Node #12"}, {"mesh" : 12, "name" : "Node #13"}, {"mesh" : 13, "name" : "Node #14"}, {"children" : [0, 1, 2, 3, 4, 5, 6, 7, 8, 9, 10, 11, 12, 13], "matrix" : [2.220446049250313E-16, 0, 1.0000000000000002, 0, 0, 1, 0, 0, -1.0000000000000002, 0, 2.220446049250313E-16, 0, 0, 0, 0, 1], "name" : "Node #0"}], "scene" : 0, "scenes" : [{"nodes" : [14]}]}