{"accessors" : [{"bufferView" : 0, "byteOffset" : 0, "componentType" : 5123, "count" : 2052, "type" : "SCALAR", "max" : [1745], "min" : [0]}, {"bufferView" : 1, "byteOffset" : 0, "componentType" : 5126, "count" : 1746, "type" : "VEC3", "max" : [16.471525192260742, 21.994243621826172, 18.535991668701172], "min" : [15.604172706604004, 12.873430252075195, 15.194074630737305], "name" : "POSITION"}, {"bufferView" : 1, "byteOffset" : 12, "componentType" : 5126, "count" : 1746, "type" : "VEC3", "max" : [1.0000044107437134, 0.9848130345344543, 0.9848619699478149], "min" : [-1.0000044107437134, -1.0000044107437134, -1.0000044107437134], "name" : "NORMAL"}, {"bufferView" : 1, "byteOffset" : 24, "componentType" : 5126, "count" : 1746, "type" : "VEC2", "max" : [0.65625, 0.9976261854171753], "min" : [0.34375, 0.002373814582824707], "name" : "TEXCOORD_0"}, {"bufferView" : 0, "byteOffset" : 4104, "componentType" : 5123, "count" : 336, "type" : "SCALAR", "max" : [334], "min" : [0]}, {"bufferView" : 2, "byteOffset" : 0, "componentType" : 5126, "count" : 335, "type" : "VEC3", "max" : [0.309017151594162, 1.000000238418579, 0.9980270266532898], "min" : [-0.9921152591705322, -1, 0.12273626029491425], "name" : "POSITION"}, {"bufferView" : 2, "byteOffset" : 12, "componentType" : 5126, "count" : 335, "type" : "VEC3", "max" : [0.9822915196418762, 1.0000044107437134, 0.9980311989784241], "min" : [-0.982291579246521, -1.0000044107437134, -1.0000044107437134], "name" : "NORMAL"}, {"bufferView" : 2, "byteOffset" : 24, "componentType" : 5126, "count" : 335, "type" : "VEC2", "max" : [0.5699998140335083, 0.8241666555404663], "min" : [0.34498199820518494, 0.17583322525024414], "name" : "TEXCOORD_0"}, {"bufferView" : 0, "byteOffset" : 4776, "componentType" : 5123, "count" : 2124, "type" : "SCALAR", "max" : [1998], "min" : [0]}, {"bufferView" : 3, "byteOffset" : 0, "componentType" : 5126, "count" : 1999, "type" : "VEC3", "max" : [0.42442551255226135, 1.0000007152557373, 0.9980271458625793], "min" : [-0.9999336004257202, -1.1091316938400269, 0.003619917668402195], "name" : "POSITION"}, {"bufferView" : 3, "byteOffset" : 12, "componentType" : 5126, "count" : 1999, "type" : "VEC3", "max" : [0.9977819323539734, 1.0000044107437134, 0.9997679591178894], "min" : [-0.9997920393943787, -1.0000044107437134, -1.0000044107437134], "name" : "NORMAL"}, {"bufferView" : 3, "byteOffset" : 24, "componentType" : 5126, "count" : 1999, "type" : "VEC2", "max" : [0.65625, 0.9753625392913818], "min" : [0.34391728043556213, 0.02239137887954712], "name" : "TEXCOORD_0"}, {"bufferView" : 0, "byteOffset" : 9024, "componentType" : 5123, "count" : 1188, "type" : "SCALAR", "max" : [1109], "min" : [0]}, {"bufferView" : 4, "byteOffset" : 0, "componentType" : 5126, "count" : 1110, "type" : "VEC3", "max" : [0.4242948293685913, 1, 0.9980271458625793], "min" : [-0.9999538660049438, 0.6955204010009766, 0.003619917668402195], "name" : "POSITION"}, {"bufferView" : 4, "byteOffset" : 12, "componentType" : 5126, "count" : 1110, "type" : "VEC3", "max" : [0.9996285438537598, 1.0000044107437134, 0.9997679591178894], "min" : [-0.9993699789047241, -1.0000044107437134, -1.0000044107437134], "name" : "NORMAL"}, {"bufferView" : 4, "byteOffset" : 24, "componentType" : 5126, "count" : 1110, "type" : "VEC2", "max" : [0.65625, 0.8560184836387634], "min" : [0.34391728043556213, 0.02239137887954712], "name" : "TEXCOORD_0"}, {"bufferView" : 0, "byteOffset" : 11400, "componentType" : 5123, "count" : 672, "type" : "SCALAR", "max" : [668], "min" : [0]}, {"bufferView" : 5, "byteOffset" : 0, "componentType" : 5126, "count" : 669, "type" : "VEC3", "max" : [0.42577943205833435, 0.31516778469085693, 0.9980270266532898], "min" : [-1.0002027750015259, -1.109131932258606, 0.0036199172027409077], "name" : "POSITION"}, {"bufferView" : 5, "byteOffset" : 12, "componentType" : 5126, "count" : 669, "type" : "VEC3", "max" : [0.9977819323539734, 1.0000044107437134, 0.9997679591178894], "min" : [-0.9977862238883972, -1.0000044107437134, -1.0000044107437134], "name" : "NORMAL"}, {"bufferView" : 5, "byteOffset" : 24, "componentType" : 5126, "count" : 669, "type" : "VEC2", "max" : [0.65625, 0.9753625392913818], "min" : [0.34391728043556213, 0.14229923486709595], "name" : "TEXCOORD_0"}, {"bufferView" : 0, "byteOffset" : 12744, "componentType" : 5123, "count" : 312, "type" : "SCALAR", "max" : [309], "min" : [0]}, {"bufferView" : 6, "byteOffset" : 0, "componentType" : 5126, "count" : 310, "type" : "VEC3", "max" : [-0.608432948589325, 2.513035535812378, 0.770513653755188], "min" : [-1.0002027750015259, -1.109131932258606, 0.0036199172027409077], "name" : "POSITION"}, {"bufferView" : 6, "byteOffset" : 12, "componentType" : 5126, "count" : 310, "type" : "VEC3", "max" : [0.9977819323539734, 1.0000044107437134, 0.9997679591178894], "min" : [-0.9977862238883972, -1.0000044107437134, -0.999945878982544], "name" : "NORMAL"}, {"bufferView" : 6, "byteOffset" : 24, "componentType" : 5126, "count" : 310, "type" : "VEC2", "max" : [0.65625, 0.9753625392913818], "min" : [0.3439387381076813, 0.5992353558540344], "name" : "TEXCOORD_0"}, {"bufferView" : 0, "byteOffset" : 13368, "componentType" : 5123, "count" : 312, "type" : "SCALAR", "max" : [310], "min" : [0]}, {"bufferView" : 7, "byteOffset" : 0, "componentType" : 5126, "count" : 311, "type" : "VEC3", "max" : [0.42577943205833435, 2.513035535812378, 0.9980270266532898], "min" : [-0.4257793128490448, -1.109131932258606, 0.863669753074646], "name" : "POSITION"}, {"bufferView" : 7, "byteOffset" : 12, "componentType" : 5126, "count" : 311, "type" : "VEC3", "max" : [0.9048079252243042, 1.0000044107437134, 0.9980311989784241], "min" : [-0.9121599793434143, -1.0000044107437134, -1.0000044107437134], "name" : "NORMAL"}, {"bufferView" : 7, "byteOffset" : 24, "componentType" : 5126, "count" : 311, "type" : "VEC2", "max" : [0.5995975136756897, 0.9644087553024292], "min" : [0.34391728043556213, 0.14229923486709595], "name" : "TEXCOORD_0"}, {"bufferView" : 0, "byteOffset" : 13992, "componentType" : 5123, "count" : 372, "type" : "SCALAR", "max" : [371], "min" : [0]}, {"bufferView" : 8, "byteOffset" : 0, "componentType" : 5126, "count" : 372, "type" : "VEC3", "max" : [0.9685831665992737, 0.8571687936782837, 0.9980270862579346], "min" : [-1.0000007152557373, -1, -0.7705137133598328], "name" : "POSITION"}, {"bufferView" : 8, "byteOffset" : 12, "componentType" : 5126, "count" : 372, "type" : "VEC3", "max" : [0.9510608315467834, 1.0000044107437134, 1.0000044107437134], "min" : [-0.9980311393737793, -1.0000044107437134, -0.8443316221237183], "name" : "NORMAL"}, {"bufferView" : 8, "byteOffset" : 24, "componentType" : 5126, "count" : 372, "type" : "VEC2", "max" : [0.6513412594795227, 0.9641427397727966], "min" : [0.3437499403953552, 0.035857200622558594], "name" : "TEXCOORD_0"}, {"bufferView" : 0, "byteOffset" : 14736, "componentType" : 5123, "count" : 372, "type" : "SCALAR", "max" : [371], "min" : [0]}, {"bufferView" : 9, "byteOffset" : 0, "componentType" : 5126, "count" : 372, "type" : "VEC3", "max" : [0.9685831665992737, 0.8571687936782837, 0.9980270862579346], "min" : [-1.0000007152557373, -1, -0.7705137133598328], "name" : "POSITION"}, {"bufferView" : 9, "byteOffset" : 12, "componentType" : 5126, "count" : 372, "type" : "VEC3", "max" : [0.9510608315467834, 1.0000044107437134, 1.0000044107437134], "min" : [-0.9980311393737793, -1.0000044107437134, -0.8443316221237183], "name" : "NORMAL"}, {"bufferView" : 9, "byteOffset" : 24, "componentType" : 5126, "count" : 372, "type" : "VEC2", "max" : [0.6513412594795227, 0.9641427397727966], "min" : [0.3437499403953552, 0.035857200622558594], "name" : "TEXCOORD_0"}, {"bufferView" : 0, "byteOffset" : 15480, "componentType" : 5123, "count" : 15438, "type" : "SCALAR", "max" : [14728], "min" : [0]}, {"bufferView" : 10, "byteOffset" : 0, "componentType" : 5126, "count" : 14729, "type" : "VEC3", "max" : [0.1190401166677475, 0.5304113030433655, 0.07624257355928421], "min" : [-0.1190401166677475, 0.45799505710601807, -0.07749570161104202], "name" : "POSITION"}, {"bufferView" : 10, "byteOffset" : 12, "componentType" : 5126, "count" : 14729, "type" : "VEC3", "max" : [1.0000044107437134, 1.0000044107437134, 1.0000044107437134], "min" : [-1.0000044107437134, -1.0000044107437134, -1.0000044107437134], "name" : "NORMAL"}, {"bufferView" : 10, "byteOffset" : 24, "componentType" : 5126, "count" : 14729, "type" : "VEC2", "max" : [0.9638351202011108, 0.994200587272644], "min" : [0.03870731592178345, 0.010818958282470703], "name" : "TEXCOORD_0"}, {"bufferView" : 0, "byteOffset" : 46356, "componentType" : 5123, "count" : 36, "type" : "SCALAR", "max" : [35], "min" : [0]}, {"bufferView" : 11, "byteOffset" : 0, "componentType" : 5126, "count" : 36, "type" : "VEC3", "max" : [0.5, 0.5, 0.5], "min" : [-0.5, -0.5, -0.5], "name" : "POSITION"}, {"bufferView" : 11, "byteOffset" : 12, "componentType" : 5126, "count" : 36, "type" : "VEC3", "max" : [1.0000044107437134, 1.0000044107437134, 1.0000044107437134], "min" : [-1.0000044107437134, -1.0000044107437134, -1.0000044107437134], "name" : "NORMAL"}, {"bufferView" : 11, "byteOffset" : 24, "componentType" : 5126, "count" : 36, "type" : "VEC2", "max" : [0.875, 2], "min" : [0.125, 0.25], "name" : "TEXCOORD_0"}, {"bufferView" : 0, "byteOffset" : 46428, "componentType" : 5123, "count" : 1158, "type" : "SCALAR", "max" : [1137], "min" : [0]}, {"bufferView" : 12, "byteOffset" : 0, "componentType" : 5126, "count" : 1138, "type" : "VEC3", "max" : [0.20139455795288086, 0.4654042720794678, 0.20582009851932526], "min" : [-0.20751024782657623, 0.36420708894729614, -0.1615326702594757], "name" : "POSITION"}, {"bufferView" : 12, "byteOffset" : 12, "componentType" : 5126, "count" : 1138, "type" : "VEC3", "max" : [0.9510605931282043, 1.0000044107437134, 1.0000044107437134], "min" : [-0.9980311393737793, -1.0000044107437134, -0.8459994792938232], "name" : "NORMAL"}, {"bufferView" : 12, "byteOffset" : 24, "componentType" : 5126, "count" : 1138, "type" : "VEC2", "max" : [0.875, 2], "min" : [0.125, 0.035857200622558594], "name" : "TEXCOORD_0"}], "asset" : {"generator" : "Aspose.3D 23.6.0", "version" : "2.0"}, "buffers" : [{"uri" : "data:application/octet-stream;base64,", "byteLength" : 828700}], "bufferViews" : [{"buffer" : 0, "byteOffset" : 0, "byteLength" : 48744, "target" : 34963}, {"buffer" : 0, "byteOffset" : 48748, "byteLength" : 65664, "byteStride" : 32, "target" : 34962}, {"buffer" : 0, "byteOffset" : 114416, "byteLength" : 10752, "byteStride" : 32, "target" : 34962}, {"buffer" : 0, "byteOffset" : 125172, "byteLength" : 67968, "byteStride" : 32, "target" : 34962}, {"buffer" : 0, "byteOffset" : 193144, "byteLength" : 38016, "byteStride" : 32, "target" : 34962}, {"buffer" : 0, "byteOffset" : 231164, "byteLength" : 21504, "byteStride" : 32, "target" : 34962}, {"buffer" : 0, "byteOffset" : 252672, "byteLength" : 9984, "byteStride" : 32, "target" : 34962}, {"buffer" : 0, "byteOffset" : 262660, "byteLength" : 9984, "byteStride" : 32, "target" : 34962}, {"buffer" : 0, "byteOffset" : 272648, "byteLength" : 11904, "byteStride" : 32, "target" : 34962}, {"buffer" : 0, "byteOffset" : 284556, "byteLength" : 11904, "byteStride" : 32, "target" : 34962}, {"buffer" : 0, "byteOffset" : 296464, "byteLength" : 494016, "byteStride" : 32, "target" : 34962}, {"buffer" : 0, "byteOffset" : 790484, "byteLength" : 1152, "byteStride" : 32, "target" : 34962}, {"buffer" : 0, "byteOffset" : 791640, "byteLength" : 37056, "byteStride" : 32, "target" : 34962}], "materials" : [{"pbrMetallicRoughness" : {"baseColorFactor" : [0.3277780980458375, 0.3277780980458375, 0.3277780980458375, 1], "metallicFactor" : 1, "roughnessFactor" : 0.18}, "emissiveFactor" : [0, 0, 0], "alphaMode" : "OPAQUE", "doubleSided" : false}, {"pbrMetallicRoughness" : {"baseColorFactor" : [1, 1, 1, 0.15000000000000002], "metallicFactor" : 0.86, "roughnessFactor" : 0.06428571790456772}, "emissiveFactor" : [0, 0, 0], "alphaMode" : "BLEND", "doubleSided" : false}, {"pbrMetallicRoughness" : {"baseColorFactor" : [0.030713443727452196, 0.04091519690055698, 0.054480276435339814, 1], "metallicFactor" : 1, "roughnessFactor" : 0.6406926512718201}, "emissiveFactor" : [0, 0, 0], "alphaMode" : "OPAQUE", "doubleSided" : false}, {"pbrMetallicRoughness" : {"baseColorFactor" : [0.030713443727452196, 0.04091519690055698, 0.054480276435339814, 1], "metallicFactor" : 1, "roughnessFactor" : 0.6406926512718201}, "emissiveFactor" : [0, 0, 0], "alphaMode" : "OPAQUE", "doubleSided" : false}, {"pbrMetallicRoughness" : {"baseColorFactor" : [0.030713443727452196, 0.04091519690055698, 0.054480276435339814, 1], "metallicFactor" : 1, "roughnessFactor" : 0.6406926512718201}, "emissiveFactor" : [0, 0, 0], "alphaMode" : "OPAQUE", "doubleSided" : false}, {"pbrMetallicRoughness" : {"baseColorFactor" : [0.030713443727452196, 0.04091519690055698, 0.054480276435339814, 1], "metallicFactor" : 1, "roughnessFactor" : 0.6406926512718201}, "emissiveFactor" : [0, 0, 0], "alphaMode" : "OPAQUE", "doubleSided" : false}, {"pbrMetallicRoughness" : {"baseColorFactor" : [0.030713443727452196, 0.04091519690055698, 0.054480276435339814, 1], "metallicFactor" : 1, "roughnessFactor" : 0.6406926512718201}, "emissiveFactor" : [0, 0, 0], "alphaMode" : "OPAQUE", "doubleSided" : false}, {"pbrMetallicRoughness" : {"baseColorFactor" : [0.030713443727452196, 0.04091519690055698, 0.054480276435339814, 1], "metallicFactor" : 1, "roughnessFactor" : 0.6406926512718201}, "emissiveFactor" : [0, 0, 0], "alphaMode" : "OPAQUE", "doubleSided" : false}, {"pbrMetallicRoughness" : {"baseColorFactor" : [0.030713443727452196, 0.04091519690055698, 0.054480276435339814, 1], "metallicFactor" : 1, "roughnessFactor" : 0.6406926512718201}, "emissiveFactor" : [0, 0, 0], "alphaMode" : "OPAQUE", "doubleSided" : false}, {"pbrMetallicRoughness" : {"baseColorFactor" : [0.3277780980458375, 0.3277780980458375, 0.3277780980458375, 1], "metallicFactor" : 1, "roughnessFactor" : 0.18}, "emissiveFactor" : [0, 0, 0], "alphaMode" : "OPAQUE", "doubleSided" : false}, {"pbrMetallicRoughness" : {"baseColorFactor" : [0.030713443727452196, 0.04091519690055698, 0.054480276435339814, 1], "metallicFactor" : 1, "roughnessFactor" : 0.6406926512718201}, "emissiveFactor" : [0, 0, 0], "alphaMode" : "OPAQUE", "doubleSided" : false}, {"pbrMetallicRoughness" : {"baseColorFactor" : [0.030713443727452196, 0.04091519690055698, 0.054480276435339814, 1], "metallicFactor" : 1, "roughnessFactor" : 0.49}, "emissiveFactor" : [0, 0, 0], "alphaMode" : "OPAQUE", "doubleSided" : false}], "meshes" : [{"primitives" : [{"attributes" : {"POSITION" : 1, "NORMAL" : 2, "TEXCOORD_0" : 3}, "indices" : 0, "material" : 0, "mode" : 4}]}, {"primitives" : [{"attributes" : {"POSITION" : 5, "NORMAL" : 6, "TEXCOORD_0" : 7}, "indices" : 4, "material" : 1, "mode" : 4}]}, {"primitives" : [{"attributes" : {"POSITION" : 9, "NORMAL" : 10, "TEXCOORD_0" : 11}, "indices" : 8, "material" : 2, "mode" : 4}]}, {"primitives" : [{"attributes" : {"POSITION" : 13, "NORMAL" : 14, "TEXCOORD_0" : 15}, "indices" : 12, "material" : 3, "mode" : 4}]}, {"primitives" : [{"attributes" : {"POSITION" : 17, "NORMAL" : 18, "TEXCOORD_0" : 19}, "indices" : 16, "material" : 4, "mode" : 4}]}, {"primitives" : [{"attributes" : {"POSITION" : 21, "NORMAL" : 22, "TEXCOORD_0" : 23}, "indices" : 20, "material" : 5, "mode" : 4}]}, {"primitives" : [{"attributes" : {"POSITION" : 25, "NORMAL" : 26, "TEXCOORD_0" : 27}, "indices" : 24, "material" : 6, "mode" : 4}]}, {"primitives" : [{"attributes" : {"POSITION" : 29, "NORMAL" : 30, "TEXCOORD_0" : 31}, "indices" : 28, "material" : 7, "mode" : 4}]}, {"primitives" : [{"attributes" : {"POSITION" : 33, "NORMAL" : 34, "TEXCOORD_0" : 35}, "indices" : 32, "material" : 8, "mode" : 4}]}, {"primitives" : [{"attributes" : {"POSITION" : 37, "NORMAL" : 38, "TEXCOORD_0" : 39}, "indices" : 36, "material" : 9, "mode" : 4}]}, {"primitives" : [{"attributes" : {"POSITION" : 41, "NORMAL" : 42, "TEXCOORD_0" : 43}, "indices" : 40, "material" : 10, "mode" : 4}]}, {"primitives" : [{"attributes" : {"POSITION" : 45, "NORMAL" : 46, "TEXCOORD_0" : 47}, "indices" : 44, "material" : 11, "mode" : 4}]}], "nodes" : [{"matrix" : [0.009591730897718583, 0, -0.0030515961685773085, 0, 0, 0.010065462770798223, 0, 0, 0.0030515961685773085, 0, 0.009591730897718583, 0, -0.13455601036548615, 0.473604419455437, -1.6651090383529663, 1], "mesh" : 0, "name" : "mesh_0"}, {"children" : [0], "matrix" : [1, 0, 0, 0, 0, 1, 0, 0, 0, 0, 1, 0, 0, 0, 1.7718334197998047, 1], "name" : "96491175-55b5-4fa0-911c-8c9c63c8a40d"}, {"matrix" : [0.4223218205279222, 0, 0, 0, 0, 0.4364654757580652, 0, 0, 0, 0, 0.4223218205279222, 0, 0, 1.3248319390438592, 0, 1], "mesh" : 1, "name" : "mesh_1"}, {"matrix" : [0.43, 0, 0, 0, 0, 0.5307231554514443, 0, 0, 0, 0, 0.43, 0, 0, 1.3490460875652825, 0, 1], "mesh" : 2, "name" : "mesh_2"}, {"matrix" : [0.43, 0, 0, 0, 0, 0.14476335268798532, 0, 0, 0, 0, 0.43, 0, 0, 1.7813039913070454, 0, 1], "mesh" : 3, "name" : "mesh_3"}, {"matrix" : [0.43, 0, 0, 0, 0, 0.5307231554514443, 0, 0, 0, 0, 0.43, 0, 0, 0.5921956711910247, 0, 1], "mesh" : 4, "name" : "mesh_4"}, {"matrix" : [-0.18356617442956197, 0, -0.38884889045141374, 0, 0, 0.5307231554514443, 0, 0, 0.38884889045141374, 0, -0.18356617442956197, 0, 0, 0.5921956711910247, 0, 1], "mesh" : 5, "name" : "mesh_5"}, {"matrix" : [-0.18249339103349554, 0, 0.3893535183211983, 0, 0, 0.5307231554514443, 0, 0, -0.3893535183211983, 0, -0.18249339103349554, 0, 0, 0.5921956711910247, 0, 1], "mesh" : 6, "name" : "mesh_6"}, {"matrix" : [0.4429440641780321, 0, 0, 0, 0, 0.001661082948221474, 0, 0, 0, 0, 0.4429440641780321, 0, 0, 1.9283206467750915, 0, 1], "mesh" : 7, "name" : "mesh_7"}, {"matrix" : [0.4429440641780321, 0, 0, 0, 0, 0.001661082948221474, 0, 0, 0, 0, 0.4429440641780321, 0, 0, 0.0013185782308092686, 0, 1], "mesh" : 8, "name" : "mesh_8"}, {"children" : [2, 3, 4, 5, 6, 7, 8, 9], "matrix" : [0.4987246693477635, 0, 0, 0, 0, 0.4987246693477635, 0, 0, 0, 0, 0.4987246693477635, 0, 0, 0, 0, 1], "name" : "8c1759d0-ba76-43ae-a6fa-1f0d7e28859c"}, {"matrix" : [0.8460545042465761, 0, 0.533096403893405, 0, 0, 1, 0, 0, -0.533096403893405, 0, 0.8460545042465761, 0, -0.025726265606379348, -0.054463621044832766, 0.039806373607013806, 1], "mesh" : 9, "name" : "mesh_9"}, {"matrix" : [0.0028150412439907993, 0, -0.0044392945927987145, 0, 0, 0.9560073955150195, 0, 0, 0.3432283035976936, 0, 0.2176476038107148, 0, 0.033721125296761655, 0.48054797823154954, -0.05363477395297779, 1], "mesh" : 10, "name" : "mesh_10"}, {"mesh" : 11, "name" : "mesh_11"}, {"children" : [1, 10, 11, 12, 13], "name" : "defaultScene"}], "scene" : 0, "scenes" : [{"nodes" : [14]}]}