{"extensionsUsed" : ["KHR_materials_variants"], "accessors" : [{"bufferView" : 0, "byteOffset" : 0, "componentType" : 5123, "count" : 420, "type" : "SCALAR", "max" : [408], "min" : [0]}, {"bufferView" : 1, "byteOffset" : 0, "componentType" : 5126, "count" : 409, "type" : "VEC3", "max" : [22.7076473236084, -18.797006607055664, 9.797294616699219], "min" : [-22.709455490112305, -29.522600173950195, -8.171514511108398], "name" : "POSITION"}, {"bufferView" : 1, "byteOffset" : 12, "componentType" : 5126, "count" : 409, "type" : "VEC3", "max" : [1.0000044107437134, 1.0000044107437134, 1.0000044107437134], "min" : [-1.0000044107437134, -1.0000044107437134, -1.0000044107437134], "name" : "NORMAL"}, {"bufferView" : 1, "byteOffset" : 24, "componentType" : 5126, "count" : 409, "type" : "VEC2", "max" : [0.9753024578094482, 0.9926588535308838], "min" : [0.051126718521118164, 0.06655585765838623], "name" : "TEXCOORD_0"}, {"bufferView" : 0, "byteOffset" : 840, "componentType" : 5123, "count" : 480, "type" : "SCALAR", "max" : [439], "min" : [0]}, {"bufferView" : 2, "byteOffset" : 0, "componentType" : 5126, "count" : 440, "type" : "VEC3", "max" : [-14.438282012939453, -19.560949325561523, 12.791261672973633], "min" : [-16.438282012939453, -21.560949325561523, 9.762493133544922], "name" : "POSITION"}, {"bufferView" : 2, "byteOffset" : 12, "componentType" : 5126, "count" : 440, "type" : "VEC3", "max" : [1.0000044107437134, 1.0000044107437134, 1.0000044107437134], "min" : [-1.0000044107437134, -1.0000044107437134, -1.0000044107437134], "name" : "NORMAL"}, {"bufferView" : 2, "byteOffset" : 24, "componentType" : 5126, "count" : 440, "type" : "VEC2", "max" : [0.9909114837646484, 0.48108696937561035], "min" : [0.630499541759491, 0.0724976658821106], "name" : "TEXCOORD_0"}, {"bufferView" : 0, "byteOffset" : 1800, "componentType" : 5123, "count" : 624, "type" : "SCALAR", "max" : [562], "min" : [0]}, {"bufferView" : 3, "byteOffset" : 0, "componentType" : 5126, "count" : 563, "type" : "VEC3", "max" : [0.5000000596046448, 0.5000002384185791, 0.5], "min" : [-0.5000000596046448, -0.5, -0.5], "name" : "POSITION"}, {"bufferView" : 3, "byteOffset" : 12, "componentType" : 5126, "count" : 563, "type" : "VEC3", "max" : [1.0000042915344238, 1.0000039339065552, 0.0447302907705307], "min" : [-1.0000042915344238, -1.0000039339065552, -0.04472776874899864], "name" : "NORMAL"}, {"bufferView" : 3, "byteOffset" : 24, "componentType" : 5126, "count" : 563, "type" : "VEC2", "max" : [0.875, 2], "min" : [0.125, 0.019793927669525146], "name" : "TEXCOORD_0"}, {"bufferView" : 0, "byteOffset" : 3048, "componentType" : 5123, "count" : 480, "type" : "SCALAR", "max" : [439], "min" : [0]}, {"bufferView" : 4, "byteOffset" : 0, "componentType" : 5126, "count" : 440, "type" : "VEC3", "max" : [16.18606948852539, -19.560949325561523, 12.791261672973633], "min" : [14.186068534851074, -21.560949325561523, 9.762493133544922], "name" : "POSITION"}, {"bufferView" : 4, "byteOffset" : 12, "componentType" : 5126, "count" : 440, "type" : "VEC3", "max" : [1.0000044107437134, 1.0000044107437134, 1.0000044107437134], "min" : [-1.0000044107437134, -1.0000044107437134, -1.0000044107437134], "name" : "NORMAL"}, {"bufferView" : 4, "byteOffset" : 24, "componentType" : 5126, "count" : 440, "type" : "VEC2", "max" : [0.7929054498672485, 0.5889120697975159], "min" : [0.01050904393196106, 0.22460830211639404], "name" : "TEXCOORD_0"}, {"bufferView" : 0, "byteOffset" : 4008, "componentType" : 5123, "count" : 16068, "type" : "SCALAR", "max" : [15314], "min" : [0]}, {"bufferView" : 5, "byteOffset" : 0, "componentType" : 5126, "count" : 15315, "type" : "VEC3", "max" : [16.20712661743164, -17.516422271728516, 8.36992073059082], "min" : [-16.20712661743164, -24.592437744140625, -6.652328014373779], "name" : "POSITION"}, {"bufferView" : 5, "byteOffset" : 12, "componentType" : 5126, "count" : 15315, "type" : "VEC3", "max" : [1.0000044107437134, 1.0000044107437134, 1.0000044107437134], "min" : [-1.0000044107437134, -1.0000044107437134, -1.0000044107437134], "name" : "NORMAL"}, {"bufferView" : 5, "byteOffset" : 24, "componentType" : 5126, "count" : 15315, "type" : "VEC2", "max" : [0.963823676109314, 0.994200587272644], "min" : [0.03870731592178345, 0.010818958282470703], "name" : "TEXCOORD_0"}, {"bufferView" : 0, "byteOffset" : 36144, "componentType" : 5123, "count" : 36, "type" : "SCALAR", "max" : [35], "min" : [0]}, {"bufferView" : 6, "byteOffset" : 0, "componentType" : 5126, "count" : 36, "type" : "VEC3", "max" : [0.4990387558937073, 0.49770158529281616, 0.5], "min" : [-0.4990387558937073, -0.49770140647888184, -0.5], "name" : "POSITION"}, {"bufferView" : 6, "byteOffset" : 12, "componentType" : 5126, "count" : 36, "type" : "VEC3", "max" : [0, 0, 1.0000044107437134], "min" : [0, 0, -1.0000044107437134], "name" : "NORMAL"}, {"bufferView" : 6, "byteOffset" : 24, "componentType" : 5126, "count" : 36, "type" : "VEC2", "max" : [0.6247596740722656, 0.9994253516197205], "min" : [0.3752403259277344, 0.25057464838027954], "name" : "TEXCOORD_0"}, {"bufferView" : 0, "byteOffset" : 36216, "componentType" : 5123, "count" : 180, "type" : "SCALAR", "max" : [176], "min" : [0]}, {"bufferView" : 7, "byteOffset" : 0, "componentType" : 5126, "count" : 177, "type" : "VEC3", "max" : [13.12276840209961, -19.711027145385742, 4.628696918487549], "min" : [-13.12276840209961, -22.68868064880371, -0.1855074167251587], "name" : "POSITION"}, {"bufferView" : 7, "byteOffset" : 12, "componentType" : 5126, "count" : 177, "type" : "VEC3", "max" : [1.0000044107437134, 1.0000044107437134, 1.0000044107437134], "min" : [-1.0000044107437134, -1.0000044107437134, -1.0000044107437134], "name" : "NORMAL"}, {"bufferView" : 7, "byteOffset" : 24, "componentType" : 5126, "count" : 177, "type" : "VEC2", "max" : [0.9638351202011108, 0.978844165802002], "min" : [0.2310837209224701, 0.11000120639801025], "name" : "TEXCOORD_0"}, {"bufferView" : 0, "byteOffset" : 36576, "componentType" : 5123, "count" : 960, "type" : "SCALAR", "max" : [958], "min" : [0]}, {"bufferView" : 8, "byteOffset" : 0, "componentType" : 5126, "count" : 959, "type" : "VEC3", "max" : [29.159103393554688, 29.15904426574707, 9.613338470458984], "min" : [-29.159059524536133, -29.159086227416992, -8.39079761505127], "name" : "POSITION"}, {"bufferView" : 8, "byteOffset" : 12, "componentType" : 5126, "count" : 959, "type" : "VEC3", "max" : [1.0000044107437134, 1.0000044107437134, 1.0000044107437134], "min" : [-1.0000044107437134, -1.0000044107437134, -1.0000044107437134], "name" : "NORMAL"}, {"bufferView" : 8, "byteOffset" : 24, "componentType" : 5126, "count" : 959, "type" : "VEC2", "max" : [0.4786195456981659, 0.993760883808136], "min" : [0.01050904393196106, 0.06287133693695068], "name" : "TEXCOORD_0"}, {"bufferView" : 0, "byteOffset" : 38496, "componentType" : 5123, "count" : 7200, "type" : "SCALAR", "max" : [6884], "min" : [0]}, {"bufferView" : 9, "byteOffset" : 0, "componentType" : 5126, "count" : 6885, "type" : "VEC3", "max" : [29.90701675415039, 29.90695571899414, 9.924860954284668], "min" : [-29.906972885131836, -29.906997680664062, -9.924860954284668], "name" : "POSITION"}, {"bufferView" : 9, "byteOffset" : 12, "componentType" : 5126, "count" : 6885, "type" : "VEC3", "max" : [1.0000044107437134, 1.0000044107437134, 1.0000044107437134], "min" : [-1.0000044107437134, -1.0000044107437134, -1.0000044107437134], "name" : "NORMAL"}, {"bufferView" : 9, "byteOffset" : 24, "componentType" : 5126, "count" : 6885, "type" : "VEC2", "max" : [0.6578108072280884, 0.993760883808136], "min" : [0.01050904393196106, 0.0031831860542297363], "name" : "TEXCOORD_0"}, {"bufferView" : 0, "byteOffset" : 52896, "componentType" : 5123, "count" : 252, "type" : "SCALAR", "max" : [241], "min" : [0]}, {"bufferView" : 10, "byteOffset" : 0, "componentType" : 5126, "count" : 242, "type" : "VEC3", "max" : [0.23404625058174133, 0.15285521745681763, -0.09918452799320221], "min" : [-0.23404625058174133, 0.05719597637653351, -0.11408843100070953], "name" : "POSITION"}, {"bufferView" : 10, "byteOffset" : 12, "componentType" : 5126, "count" : 242, "type" : "VEC3", "max" : [1.0000044107437134, 1.0000044107437134, 1.0000041723251343], "min" : [-1.0000044107437134, -1.0000044107437134, -1.0000041723251343], "name" : "NORMAL"}, {"bufferView" : 10, "byteOffset" : 24, "componentType" : 5126, "count" : 242, "type" : "VEC2", "max" : [0.875, 2], "min" : [0.125, 0.035368144512176514], "name" : "TEXCOORD_0"}], "asset" : {"generator" : "Aspose.3D 23.7.0", "version" : "2.0"}, "buffers" : [{"uri" : "data:application/octet-stream;base64,", "byteLength" : 907844}], "bufferViews" : [{"buffer" : 0, "byteOffset" : 0, "byteLength" : 53400, "target" : 34963}, {"buffer" : 0, "byteOffset" : 53404, "byteLength" : 13440, "byteStride" : 32, "target" : 34962}, {"buffer" : 0, "byteOffset" : 66848, "byteLength" : 15360, "byteStride" : 32, "target" : 34962}, {"buffer" : 0, "byteOffset" : 82212, "byteLength" : 19968, "byteStride" : 32, "target" : 34962}, {"buffer" : 0, "byteOffset" : 102184, "byteLength" : 15360, "byteStride" : 32, "target" : 34962}, {"buffer" : 0, "byteOffset" : 117548, "byteLength" : 514176, "byteStride" : 32, "target" : 34962}, {"buffer" : 0, "byteOffset" : 631728, "byteLength" : 1152, "byteStride" : 32, "target" : 34962}, {"buffer" : 0, "byteOffset" : 632884, "byteLength" : 5760, "byteStride" : 32, "target" : 34962}, {"buffer" : 0, "byteOffset" : 638648, "byteLength" : 30720, "byteStride" : 32, "target" : 34962}, {"buffer" : 0, "byteOffset" : 669372, "byteLength" : 230400, "byteStride" : 32, "target" : 34962}, {"buffer" : 0, "byteOffset" : 899776, "byteLength" : 8064, "byteStride" : 32, "target" : 34962}], "materials" : [{"name" : " BIO-20-259 White", "pbrMetallicRoughness" : {"baseColorFactor" : [1, 1, 1, 1], "metallicFactor" : 1, "roughnessFactor" : 1}, "emissiveFactor" : [0, 0, 0], "alphaMode" : "OPAQUE", "doubleSided" : false}, {"pbrMetallicRoughness" : {"baseColorFactor" : [0.39086294174194336, 0.39086294174194336, 0.39086294174194336, 1], "metallicFactor" : 0.9264069199562073, "roughnessFactor" : 0.33000001311302185}, "emissiveFactor" : [0, 0, 0], "alphaMode" : "OPAQUE", "doubleSided" : false}, {"pbrMetallicRoughness" : {"baseColorFactor" : [0.016499996185302734, 0.5, 0.3493978977203369, 1], "metallicFactor" : 0.9264069199562073, "roughnessFactor" : 0.33000001311302185}, "emissiveFactor" : [0, 0, 0], "alphaMode" : "OPAQUE", "doubleSided" : false}, {"pbrMetallicRoughness" : {"baseColorFactor" : [0.39086294174194336, 0.39086294174194336, 0.39086294174194336, 1], "metallicFactor" : 0.9264069199562073, "roughnessFactor" : 0.33000001311302185}, "emissiveFactor" : [0, 0, 0], "alphaMode" : "OPAQUE", "doubleSided" : false}, {"name" : " BIO-20-259 White", "pbrMetallicRoughness" : {"baseColorFactor" : [0.30946892280674276, 0.30946892280674276, 0.30946892280674276, 1], "metallicFactor" : 1, "roughnessFactor" : 0.33000001311302185}, "emissiveFactor" : [0, 0, 0], "alphaMode" : "OPAQUE", "doubleSided" : false}, {"name" : " BIO-20-259 White", "pbrMetallicRoughness" : {"baseColorFactor" : [1, 1, 1, 0.14], "metallicFactor" : 1, "roughnessFactor" : 0}, "emissiveFactor" : [0, 0, 0], "alphaMode" : "BLEND", "doubleSided" : false}, {"pbrMetallicRoughness" : {"baseColorFactor" : [0.593999981880188, 0.5435000061988831, 0.4490000009536743, 1], "metallicFactor" : 0, "roughnessFactor" : 0.33000001311302185}, "emissiveFactor" : [0, 0, 0], "alphaMode" : "OPAQUE", "doubleSided" : false}, {"pbrMetallicRoughness" : {"baseColorFactor" : [0.03211009129881859, 0.03211009129881859, 0.03211009129881859, 1], "metallicFactor" : 1, "roughnessFactor" : 0.6299999952316284}, "emissiveFactor" : [0, 0, 0], "alphaMode" : "OPAQUE", "doubleSided" : false}, {"name" : " BIO-20-259 White", "pbrMetallicRoughness" : {"baseColorFactor" : [1, 1, 1, 1], "metallicFactor" : 1, "roughnessFactor" : 1}, "emissiveFactor" : [0, 0, 0], "alphaMode" : "OPAQUE", "doubleSided" : false}, {"pbrMetallicRoughness" : {"baseColorFactor" : [0.03211009129881859, 0.03211009129881859, 0.03211009129881859, 1], "metallicFactor" : 1, "roughnessFactor" : 0.6299999952316284}, "emissiveFactor" : [0, 0, 0], "alphaMode" : "OPAQUE", "doubleSided" : false}], "meshes" : [{"primitives" : [{"attributes" : {"POSITION" : 1, "NORMAL" : 2, "TEXCOORD_0" : 3}, "indices" : 0, "material" : 0, "mode" : 4}]}, {"primitives" : [{"attributes" : {"POSITION" : 5, "NORMAL" : 6, "TEXCOORD_0" : 7}, "indices" : 4, "material" : 1, "mode" : 4}]}, {"primitives" : [{"attributes" : {"POSITION" : 9, "NORMAL" : 10, "TEXCOORD_0" : 11}, "indices" : 8, "material" : 2, "mode" : 4}]}, {"primitives" : [{"attributes" : {"POSITION" : 13, "NORMAL" : 14, "TEXCOORD_0" : 15}, "indices" : 12, "material" : 3, "mode" : 4}]}, {"primitives" : [{"attributes" : {"POSITION" : 17, "NORMAL" : 18, "TEXCOORD_0" : 19}, "indices" : 16, "material" : 4, "mode" : 4}]}, {"primitives" : [{"attributes" : {"POSITION" : 21, "NORMAL" : 22, "TEXCOORD_0" : 23}, "indices" : 20, "material" : 5, "mode" : 4}]}, {"primitives" : [{"attributes" : {"POSITION" : 25, "NORMAL" : 26, "TEXCOORD_0" : 27}, "indices" : 24, "material" : 6, "mode" : 4}]}, {"primitives" : [{"attributes" : {"POSITION" : 29, "NORMAL" : 30, "TEXCOORD_0" : 31}, "indices" : 28, "material" : 7, "mode" : 4}]}, {"primitives" : [{"attributes" : {"POSITION" : 33, "NORMAL" : 34, "TEXCOORD_0" : 35}, "indices" : 32, "material" : 8, "mode" : 4}]}, {"primitives" : [{"attributes" : {"POSITION" : 37, "NORMAL" : 38, "TEXCOORD_0" : 39}, "indices" : 36, "material" : 9, "mode" : 4}]}], "nodes" : [{"matrix" : [1, 0, 0, 0, 0, 1, 0, 0, 0, 0, 1, 0, 0, 0, 0.08466875624183601, 1], "mesh" : 0, "name" : "mesh_0"}, {"mesh" : 1, "name" : "mesh_1"}, {"matrix" : [36.187769590127914, 0, 0, 0, 0, 15.110239326896325, 0, 0, 0, 0, 0.3111110772358065, 0, 0, -15.24795750799292, 12.12719067871983, 1], "mesh" : 2, "name" : "mesh_2"}, {"mesh" : 3, "name" : "mesh_3"}, {"mesh" : 4, "name" : "mesh_4"}, {"matrix" : [36.187769590127914, 0, 0, 0, 0, 15.110239326896325, 0, 0, 0, 0, 0.3111110772358065, 0, 0, -15.24795750799292, 12.12719067871983, 1], "mesh" : 5, "name" : "mesh_5"}, {"matrix" : [1, 0, 0, 0, 0, 1, 0, 0, 0, 0, 1, 0, 0, 0, 0.08466875624183601, 1], "mesh" : 6, "name" : "mesh_6"}, {"mesh" : 7, "name" : "mesh_7"}, {"mesh" : 8, "name" : "mesh_8"}, {"children" : [0, 1, 2, 3, 4, 5, 6, 7, 8], "matrix" : [0.009993707658146911, 0, 0, 0, 0, 0.009993707658146911, 0, 0, 0, 0, 0.009993707658146911, 0, 0, 0, 0, 1], "name" : "e0417450-a793-43e3-af89-154b589d2204"}, {"matrix" : [1, 0, 0, 0, 0, 1, 0, 0, 0, 0, 1, 0, 0, 0.01433535983775977, 0.01548118352785427, 1], "mesh" : 9, "name" : "mesh_9"}, {"children" : [9, 10], "name" : "defaultScene"}], "scene" : 0, "scenes" : [{"nodes" : [11]}], "extensions" : {"KHR_materials_variants" : {"variants" : [{"name" : "BIO-20-259 White"}]}}}