{"accessors" : [{"bufferView" : 0, "byteOffset" : 0, "componentType" : 5123, "count" : 2052, "type" : "SCALAR", "max" : [1745], "min" : [0]}, {"bufferView" : 1, "byteOffset" : 0, "componentType" : 5126, "count" : 1746, "type" : "VEC3", "max" : [16.471525192260742, 21.994243621826172, 18.535991668701172], "min" : [15.604172706604004, 12.873430252075195, 15.194074630737305], "name" : "POSITION"}, {"bufferView" : 1, "byteOffset" : 12, "componentType" : 5126, "count" : 1746, "type" : "VEC3", "max" : [1.0000044107437134, 0.9848130345344543, 0.9848619699478149], "min" : [-1.0000044107437134, -1.0000044107437134, -1.0000044107437134], "name" : "NORMAL"}, {"bufferView" : 1, "byteOffset" : 24, "componentType" : 5126, "count" : 1746, "type" : "VEC2", "max" : [0.65625, 0.9976261854171753], "min" : [0.34375, 0.002373814582824707], "name" : "TEXCOORD_0"}, {"bufferView" : 0, "byteOffset" : 4104, "componentType" : 5123, "count" : 1056, "type" : "SCALAR", "max" : [1054], "min" : [0]}, {"bufferView" : 2, "byteOffset" : 0, "componentType" : 5126, "count" : 1055, "type" : "VEC3", "max" : [1, 1.000000238418579, 0.9980270266532898], "min" : [-0.992115318775177, -1, -0.9980275630950928], "name" : "POSITION"}, {"bufferView" : 2, "byteOffset" : 12, "componentType" : 5126, "count" : 1055, "type" : "VEC3", "max" : [1.0000044107437134, 1.0000044107437134, 1.0000042915344238], "min" : [-0.9980316162109375, -1.0000044107437134, -1.0000044107437134], "name" : "NORMAL"}, {"bufferView" : 2, "byteOffset" : 24, "componentType" : 5126, "count" : 1055, "type" : "VEC2", "max" : [0.65625, 0.9996917843818665], "min" : [0.34498199820518494, 0.0003082752227783203], "name" : "TEXCOORD_0"}, {"bufferView" : 0, "byteOffset" : 6216, "componentType" : 5123, "count" : 4248, "type" : "SCALAR", "max" : [4180], "min" : [0]}, {"bufferView" : 3, "byteOffset" : 0, "componentType" : 5126, "count" : 4181, "type" : "VEC3", "max" : [1, 1.000000238418579, 0.9980270266532898], "min" : [-1.0002027750015259, -1.109131932258606, -0.9980275630950928], "name" : "POSITION"}, {"bufferView" : 3, "byteOffset" : 12, "componentType" : 5126, "count" : 4181, "type" : "VEC3", "max" : [1.0000044107437134, 1.0000044107437134, 1.0000044107437134], "min" : [-0.998031735420227, -1.0000044107437134, -1.0000044107437134], "name" : "NORMAL"}, {"bufferView" : 3, "byteOffset" : 24, "componentType" : 5126, "count" : 4181, "type" : "VEC2", "max" : [0.65625, 0.9996917843818665], "min" : [0.3437499403953552, 0.0003082752227783203], "name" : "TEXCOORD_0"}, {"bufferView" : 0, "byteOffset" : 14712, "componentType" : 5123, "count" : 600, "type" : "SCALAR", "max" : [598], "min" : [0]}, {"bufferView" : 4, "byteOffset" : 0, "componentType" : 5126, "count" : 599, "type" : "VEC3", "max" : [1, 1, 0.9980270266532898], "min" : [-1.0000005960464478, -1, -0.9980275630950928], "name" : "POSITION"}, {"bufferView" : 4, "byteOffset" : 12, "componentType" : 5126, "count" : 599, "type" : "VEC3", "max" : [1.0000042915344238, 1.0000044107437134, 0.9980311393737793], "min" : [-1.0000044107437134, -1.0000044107437134, -0.9980311989784241], "name" : "NORMAL"}, {"bufferView" : 4, "byteOffset" : 24, "componentType" : 5126, "count" : 599, "type" : "VEC2", "max" : [0.65625, 0.9996917843818665], "min" : [0.3437499403953552, 0.0003082752227783203], "name" : "TEXCOORD_0"}, {"bufferView" : 0, "byteOffset" : 15912, "componentType" : 5123, "count" : 600, "type" : "SCALAR", "max" : [598], "min" : [0]}, {"bufferView" : 5, "byteOffset" : 0, "componentType" : 5126, "count" : 599, "type" : "VEC3", "max" : [1, 0.8571688532829285, 0.9980270266532898], "min" : [-1.0000005960464478, -1, -0.9980275630950928], "name" : "POSITION"}, {"bufferView" : 5, "byteOffset" : 12, "componentType" : 5126, "count" : 599, "type" : "VEC3", "max" : [1.0000044107437134, 1.0000044107437134, 0.9980311989784241], "min" : [-1.0000044107437134, -1.0000044107437134, -0.9980311393737793], "name" : "NORMAL"}, {"bufferView" : 5, "byteOffset" : 24, "componentType" : 5126, "count" : 599, "type" : "VEC2", "max" : [0.65625, 0.9996917843818665], "min" : [0.3437499403953552, 0.0003082752227783203], "name" : "TEXCOORD_0"}, {"bufferView" : 0, "byteOffset" : 17112, "componentType" : 5123, "count" : 16248, "type" : "SCALAR", "max" : [15463], "min" : [0]}, {"bufferView" : 6, "byteOffset" : 0, "componentType" : 5126, "count" : 15464, "type" : "VEC3", "max" : [0.1190401166677475, 0.5304113030433655, 0.07624257355928421], "min" : [-0.1190401166677475, 0.45799505710601807, -0.07749570161104202], "name" : "POSITION"}, {"bufferView" : 6, "byteOffset" : 12, "componentType" : 5126, "count" : 15464, "type" : "VEC3", "max" : [1.0000044107437134, 1.0000044107437134, 1.0000044107437134], "min" : [-1.0000044107437134, -1.0000044107437134, -1.0000044107437134], "name" : "NORMAL"}, {"bufferView" : 6, "byteOffset" : 24, "componentType" : 5126, "count" : 15464, "type" : "VEC2", "max" : [0.9638351202011108, 0.994200587272644], "min" : [0.03870731592178345, 0.010818958282470703], "name" : "TEXCOORD_0"}, {"bufferView" : 0, "byteOffset" : 49608, "componentType" : 5123, "count" : 84, "type" : "SCALAR", "max" : [83], "min" : [0]}, {"bufferView" : 7, "byteOffset" : 0, "componentType" : 5126, "count" : 84, "type" : "VEC3", "max" : [0.5, 0.5, 0.5], "min" : [-0.5, -0.13960173726081848, -0.5], "name" : "POSITION"}, {"bufferView" : 7, "byteOffset" : 12, "componentType" : 5126, "count" : 84, "type" : "VEC3", "max" : [1.0000044107437134, 1.0000044107437134, 1.0000044107437134], "min" : [-1.0000044107437134, -1.0000044107437134, -1.0000044107437134], "name" : "NORMAL"}, {"bufferView" : 7, "byteOffset" : 24, "componentType" : 5126, "count" : 84, "type" : "VEC2", "max" : [0.875, 2], "min" : [0.125, 0.25], "name" : "TEXCOORD_0"}, {"bufferView" : 0, "byteOffset" : 49776, "componentType" : 5123, "count" : 1248, "type" : "SCALAR", "max" : [1192], "min" : [0]}, {"bufferView" : 8, "byteOffset" : 0, "componentType" : 5126, "count" : 1193, "type" : "VEC3", "max" : [0.2044343799352646, 0.4610973298549652, 0.20403103530406952], "min" : [-0.20443449914455414, 0.37595513463020325, -0.20403113961219788], "name" : "POSITION"}, {"bufferView" : 8, "byteOffset" : 12, "componentType" : 5126, "count" : 1193, "type" : "VEC3", "max" : [1.0000044107437134, 1.0000044107437134, 0.9980311393737793], "min" : [-1.0000044107437134, -1.0000044107437134, -0.9980311989784241], "name" : "NORMAL"}, {"bufferView" : 8, "byteOffset" : 24, "componentType" : 5126, "count" : 1193, "type" : "VEC2", "max" : [0.875, 0.9996917843818665], "min" : [0.125, 0.0003082752227783203], "name" : "TEXCOORD_0"}], "asset" : {"generator" : "Aspose.3D 23.6.0", "version" : "2.0"}, "buffers" : [{"uri" : "data:application/octet-stream;base64,", "byteLength" : 888660}], "bufferViews" : [{"buffer" : 0, "byteOffset" : 0, "byteLength" : 52272, "target" : 34963}, {"buffer" : 0, "byteOffset" : 52276, "byteLength" : 65664, "byteStride" : 32, "target" : 34962}, {"buffer" : 0, "byteOffset" : 117944, "byteLength" : 33792, "byteStride" : 32, "target" : 34962}, {"buffer" : 0, "byteOffset" : 151740, "byteLength" : 135936, "byteStride" : 32, "target" : 34962}, {"buffer" : 0, "byteOffset" : 287680, "byteLength" : 19200, "byteStride" : 32, "target" : 34962}, {"buffer" : 0, "byteOffset" : 306884, "byteLength" : 19200, "byteStride" : 32, "target" : 34962}, {"buffer" : 0, "byteOffset" : 326088, "byteLength" : 519936, "byteStride" : 32, "target" : 34962}, {"buffer" : 0, "byteOffset" : 846028, "byteLength" : 2688, "byteStride" : 32, "target" : 34962}, {"buffer" : 0, "byteOffset" : 848720, "byteLength" : 39936, "byteStride" : 32, "target" : 34962}], "materials" : [{"pbrMetallicRoughness" : {"baseColorFactor" : [0.4019777798219466, 0.4019777798219466, 0.4019777798219466, 1], "metallicFactor" : 1, "roughnessFactor" : 0.23}, "emissiveFactor" : [0, 0, 0], "alphaMode" : "OPAQUE", "doubleSided" : false}, {"pbrMetallicRoughness" : {"baseColorFactor" : [1, 1, 1, 0.09999999999999998], "metallicFactor" : 0.66, "roughnessFactor" : 0.06428571790456772}, "emissiveFactor" : [0, 0, 0], "alphaMode" : "BLEND", "doubleSided" : false}, {"pbrMetallicRoughness" : {"baseColorFactor" : [0.04373502925049377, 0.05286064701616472, 0.06662593863608139, 1], "metallicFactor" : 1, "roughnessFactor" : 0.38}, "emissiveFactor" : [0, 0, 0], "alphaMode" : "OPAQUE", "doubleSided" : false}, {"pbrMetallicRoughness" : {"baseColorFactor" : [0.04373502925049377, 0.05286064701616472, 0.06662593863608139, 1], "metallicFactor" : 1, "roughnessFactor" : 0.38}, "emissiveFactor" : [0, 0, 0], "alphaMode" : "OPAQUE", "doubleSided" : false}, {"pbrMetallicRoughness" : {"baseColorFactor" : [0.04373502925049377, 0.05286064701616472, 0.06662593863608139, 1], "metallicFactor" : 1, "roughnessFactor" : 0.38}, "emissiveFactor" : [0, 0, 0], "alphaMode" : "OPAQUE", "doubleSided" : false}, {"pbrMetallicRoughness" : {"baseColorFactor" : [0.29613827078752575, 0.29613827078752575, 0.29613827078752575, 1], "metallicFactor" : 1, "roughnessFactor" : 0.23}, "emissiveFactor" : [0, 0, 0], "alphaMode" : "OPAQUE", "doubleSided" : false}, {"pbrMetallicRoughness" : {"baseColorFactor" : [0.04373502925049377, 0.05286064701616472, 0.06662593863608139, 1], "metallicFactor" : 1, "roughnessFactor" : 0.38}, "emissiveFactor" : [0, 0, 0], "alphaMode" : "OPAQUE", "doubleSided" : false}, {"pbrMetallicRoughness" : {"baseColorFactor" : [0.04373502925049377, 0.05286064701616472, 0.06662593863608139, 1], "metallicFactor" : 1, "roughnessFactor" : 0.41}, "emissiveFactor" : [0, 0, 0], "alphaMode" : "OPAQUE", "doubleSided" : false}], "meshes" : [{"primitives" : [{"attributes" : {"POSITION" : 1, "NORMAL" : 2, "TEXCOORD_0" : 3}, "indices" : 0, "material" : 0, "mode" : 4}]}, {"primitives" : [{"attributes" : {"POSITION" : 5, "NORMAL" : 6, "TEXCOORD_0" : 7}, "indices" : 4, "material" : 1, "mode" : 4}]}, {"primitives" : [{"attributes" : {"POSITION" : 9, "NORMAL" : 10, "TEXCOORD_0" : 11}, "indices" : 8, "material" : 2, "mode" : 4}]}, {"primitives" : [{"attributes" : {"POSITION" : 13, "NORMAL" : 14, "TEXCOORD_0" : 15}, "indices" : 12, "material" : 3, "mode" : 4}]}, {"primitives" : [{"attributes" : {"POSITION" : 17, "NORMAL" : 18, "TEXCOORD_0" : 19}, "indices" : 16, "material" : 4, "mode" : 4}]}, {"primitives" : [{"attributes" : {"POSITION" : 21, "NORMAL" : 22, "TEXCOORD_0" : 23}, "indices" : 20, "material" : 5, "mode" : 4}]}, {"primitives" : [{"attributes" : {"POSITION" : 25, "NORMAL" : 26, "TEXCOORD_0" : 27}, "indices" : 24, "material" : 6, "mode" : 4}]}, {"primitives" : [{"attributes" : {"POSITION" : 29, "NORMAL" : 30, "TEXCOORD_0" : 31}, "indices" : 28, "material" : 7, "mode" : 4}]}], "nodes" : [{"matrix" : [0.009591730897718583, 0, -0.0030515961685773085, 0, 0, 0.010065462770798223, 0, 0, 0.0030515961685773085, 0, 0.009591730897718583, 0, -0.13455601611415038, 0.4720973100359517, -1.665109049280708, 1], "mesh" : 0, "name" : "mesh_0"}, {"children" : [0], "matrix" : [1, 0, 0, 0, 0, 1, 0, 0, 0, 0, 1, 0, 0, 0, 1.771833390927394, 1], "name" : "36429e8d-f3d6-4e4d-95f7-ec2af6dc2c1c"}, {"matrix" : [0.4223218205279222, 0, 0, 0, 0, 0.4364654757580652, 0, 0, 0, 0, 0.4223218205279222, 0, 0, 1.3218100181994055, 0, 1], "mesh" : 1, "name" : "mesh_1"}, {"matrix" : [0.43, 0, 0, 0, 0, 0.5307231554514443, 0, 0, 0, 0, 0.43, 0, 0, 1.3460241254511702, 0, 1], "mesh" : 2, "name" : "mesh_2"}, {"matrix" : [0.43, 0, 0, 0, 0, 0.022946111679029477, 0, 0, 0, 0, 0.43, 0, 0, 1.9011389798453855, 0, 1], "mesh" : 3, "name" : "mesh_3"}, {"matrix" : [0.43, 0, 0, 0, 0, 0.4055057135121416, 0, 0, 0, 0, 0.43, 0, 0, 0.4064064652264199, 0, 1], "mesh" : 4, "name" : "mesh_4"}, {"children" : [2, 3, 4, 5], "matrix" : [0.4987246693477635, 0, 0, 0, 0, 0.4987246693477635, 0, 0, 0, 0, 0.4987246693477635, 0, 0, 0, 0, 1], "name" : "eb42198d-e554-43f2-97b1-2c93f490661b"}, {"matrix" : [0.8460545042465761, 0, 0.533096403893405, 0, 0, 1, 0, 0, -0.533096403893405, 0, 0.8460545042465761, 0, 0, -0.052799717150877445, 0, 1], "mesh" : 5, "name" : "mesh_5"}, {"matrix" : [0.20513031364966394, 0, 0.1289992514201646, 0, 0, 0.13487039243218374, 0, 0, -0.08413034367254218, 0, 0.1337812707826687, 0, 0, 0.4047974737223161, 0, 1], "mesh" : 6, "name" : "mesh_6"}, {"mesh" : 7, "name" : "mesh_7"}, {"children" : [1, 6, 7, 8, 9], "name" : "defaultScene"}], "scene" : 0, "scenes" : [{"nodes" : [10]}]}