{"accessors" : [{"bufferView" : 0, "byteOffset" : 0, "componentType" : 5123, "count" : 36, "type" : "SCALAR", "max" : [34], "min" : [0]}, {"bufferView" : 1, "byteOffset" : 0, "componentType" : 5126, "count" : 35, "type" : "VEC3", "max" : [0.005863398313522339, 0.43409550189971924, 0.6341729164123535], "min" : [-0.005863398313522339, -0.3030473589897156, -0.6341729164123535], "name" : "POSITION"}, {"bufferView" : 1, "byteOffset" : 12, "componentType" : 5126, "count" : 35, "type" : "VEC3", "max" : [1.0000044107437134, 2.2470329952284374E-07, 0], "min" : [-1.0000044107437134, -2.4549646582272544E-07, 0], "name" : "NORMAL"}, {"bufferView" : 1, "byteOffset" : 24, "componentType" : 5126, "count" : 35, "type" : "VEC2", "max" : [0.8745064735412598, 0.9993054866790771], "min" : [0.1254928857088089, 0.75], "name" : "TEXCOORD_0"}, {"bufferView" : 0, "byteOffset" : 72, "componentType" : 5123, "count" : 240, "type" : "SCALAR", "max" : [233], "min" : [0]}, {"bufferView" : 2, "byteOffset" : 0, "componentType" : 5126, "count" : 234, "type" : "VEC3", "max" : [0.005863398313522339, 0.43681633472442627, 0.6368977427482605], "min" : [-0.005863398313522339, -0.305768221616745, -0.6368977427482605], "name" : "POSITION"}, {"bufferView" : 2, "byteOffset" : 12, "componentType" : 5126, "count" : 234, "type" : "VEC3", "max" : [1.0000044107437134, 1.0000038146972656, 1.0000027418136597], "min" : [-1.0000044107437134, -1.0000038146972656, -1.0000028610229492], "name" : "NORMAL"}, {"bufferView" : 2, "byteOffset" : 24, "componentType" : 5126, "count" : 234, "type" : "VEC2", "max" : [0.8745062947273254, 2], "min" : [0.125534787774086, 0.00028973817825317383], "name" : "TEXCOORD_0"}, {"bufferView" : 0, "byteOffset" : 552, "componentType" : 5123, "count" : 4884, "type" : "SCALAR", "max" : [4554], "min" : [0]}, {"bufferView" : 3, "byteOffset" : 0, "componentType" : 5126, "count" : 4555, "type" : "VEC3", "max" : [0.08607292920351028, 0.03786296024918556, 0.25718045234680176], "min" : [-0.08607292920351028, -0.04289662092924118, -0.25718045234680176], "name" : "POSITION"}, {"bufferView" : 3, "byteOffset" : 12, "componentType" : 5126, "count" : 4555, "type" : "VEC3", "max" : [1.0000044107437134, 1.0000044107437134, 1.0000044107437134], "min" : [-1.0000044107437134, -1.0000044107437134, -1.0000044107437134], "name" : "NORMAL"}, {"bufferView" : 3, "byteOffset" : 24, "componentType" : 5126, "count" : 4555, "type" : "VEC2", "max" : [0.9980079531669617, 0.9980202317237854], "min" : [0.0019920319318771362, 0.008129894733428955], "name" : "TEXCOORD_0"}, {"bufferView" : 0, "byteOffset" : 10320, "componentType" : 5123, "count" : 36, "type" : "SCALAR", "max" : [34], "min" : [0]}, {"bufferView" : 4, "byteOffset" : 0, "componentType" : 5126, "count" : 35, "type" : "VEC3", "max" : [0.005863398313522339, 0.43409550189971924, 0.6341729164123535], "min" : [-0.005863398313522339, -0.3030473589897156, -0.6341729164123535], "name" : "POSITION"}, {"bufferView" : 4, "byteOffset" : 12, "componentType" : 5126, "count" : 35, "type" : "VEC3", "max" : [1.0000044107437134, 2.2470329952284374E-07, 0], "min" : [-1.0000044107437134, -2.4549646582272544E-07, 0], "name" : "NORMAL"}, {"bufferView" : 4, "byteOffset" : 24, "componentType" : 5126, "count" : 35, "type" : "VEC2", "max" : [0.8745064735412598, 0.9993054866790771], "min" : [0.1254928857088089, 0.75], "name" : "TEXCOORD_0"}, {"bufferView" : 0, "byteOffset" : 10392, "componentType" : 5123, "count" : 240, "type" : "SCALAR", "max" : [233], "min" : [0]}, {"bufferView" : 5, "byteOffset" : 0, "componentType" : 5126, "count" : 234, "type" : "VEC3", "max" : [0.005863398313522339, 0.43681633472442627, 0.6368977427482605], "min" : [-0.005863398313522339, -0.305768221616745, -0.6368977427482605], "name" : "POSITION"}, {"bufferView" : 5, "byteOffset" : 12, "componentType" : 5126, "count" : 234, "type" : "VEC3", "max" : [1.0000044107437134, 1.0000038146972656, 1.0000027418136597], "min" : [-1.0000044107437134, -1.0000038146972656, -1.0000028610229492], "name" : "NORMAL"}, {"bufferView" : 5, "byteOffset" : 24, "componentType" : 5126, "count" : 234, "type" : "VEC2", "max" : [0.8745062947273254, 2], "min" : [0.125534787774086, 0.00028973817825317383], "name" : "TEXCOORD_0"}, {"bufferView" : 0, "byteOffset" : 10872, "componentType" : 5123, "count" : 36, "type" : "SCALAR", "max" : [35], "min" : [0]}, {"bufferView" : 6, "byteOffset" : 0, "componentType" : 5126, "count" : 36, "type" : "VEC3", "max" : [0.05049610137939453, -0.07991790771484375, 0.01580977439880371], "min" : [0.03190875053405762, -0.08318710327148438, -0.012502193450927734], "name" : "POSITION"}, {"bufferView" : 6, "byteOffset" : 12, "componentType" : 5126, "count" : 36, "type" : "VEC3", "max" : [1.0000044107437134, 1.0000044107437134, 1.0000044107437134], "min" : [-1.0000044107437134, -1.0000044107437134, -1.0000044107437134], "name" : "NORMAL"}, {"bufferView" : 6, "byteOffset" : 24, "componentType" : 5126, "count" : 36, "type" : "VEC2", "max" : [0.9628076553344727, 0.99242103099823], "min" : [0.7301732301712036, 0.6396190524101257], "name" : "TEXCOORD_0"}, {"bufferView" : 0, "byteOffset" : 10944, "componentType" : 5123, "count" : 12714, "type" : "SCALAR", "max" : [12105], "min" : [0]}, {"bufferView" : 7, "byteOffset" : 0, "componentType" : 5126, "count" : 12106, "type" : "VEC3", "max" : [0.07551765441894531, -0.05170249938964844, 0.1557483673095703], "min" : [-0.07551765441894531, -0.11342620849609375, -0.15244102478027344], "name" : "POSITION"}, {"bufferView" : 7, "byteOffset" : 12, "componentType" : 5126, "count" : 12106, "type" : "VEC3", "max" : [1.0000044107437134, 1.0000044107437134, 1.0000044107437134], "min" : [-1.0000044107437134, -1.0000044107437134, -1.0000044107437134], "name" : "NORMAL"}, {"bufferView" : 7, "byteOffset" : 24, "componentType" : 5126, "count" : 12106, "type" : "VEC2", "max" : [0.9542115330696106, 0.9980079531669617], "min" : [0.0019046140369027853, 0.0019919276237487793], "name" : "TEXCOORD_0"}, {"bufferView" : 0, "byteOffset" : 36372, "componentType" : 5123, "count" : 1188, "type" : "SCALAR", "max" : [1138], "min" : [0]}, {"bufferView" : 8, "byteOffset" : 0, "componentType" : 5126, "count" : 1139, "type" : "VEC3", "max" : [0.0007181167602539062, -0.03737831115722656, 0.04741048812866211], "min" : [-0.0067138671875, -0.05495262145996094, 0.04046440124511719], "name" : "POSITION"}, {"bufferView" : 8, "byteOffset" : 12, "componentType" : 5126, "count" : 1139, "type" : "VEC3", "max" : [0.9946180582046509, 1.0000044107437134, 0.9958880543708801], "min" : [-0.9946180582046509, -1.0000044107437134, -0.9958880543708801], "name" : "NORMAL"}, {"bufferView" : 8, "byteOffset" : 24, "componentType" : 5126, "count" : 1139, "type" : "VEC2", "max" : [0.8262068033218384, 0.9488264322280884], "min" : [0.5250929594039917, 0.15432119369506836], "name" : "TEXCOORD_0"}, {"bufferView" : 0, "byteOffset" : 38748, "componentType" : 5123, "count" : 132, "type" : "SCALAR", "max" : [131], "min" : [0]}, {"bufferView" : 9, "byteOffset" : 0, "componentType" : 5126, "count" : 132, "type" : "VEC3", "max" : [0.004131317138671875, -0.05211067199707031, 0.14457130432128906], "min" : [-0.06409645080566406, -0.053981781005859375, -0.1412639617919922], "name" : "POSITION"}, {"bufferView" : 9, "byteOffset" : 12, "componentType" : 5126, "count" : 132, "type" : "VEC3", "max" : [1.0000044107437134, 1.0000044107437134, 1.0000042915344238], "min" : [-1.0000044107437134, -1.0000044107437134, -1.0000042915344238], "name" : "NORMAL"}, {"bufferView" : 9, "byteOffset" : 24, "componentType" : 5126, "count" : 132, "type" : "VEC2", "max" : [0.963823676109314, 0.992982029914856], "min" : [0.03870731592178345, 0.2295083999633789], "name" : "TEXCOORD_0"}, {"bufferView" : 0, "byteOffset" : 39012, "componentType" : 5123, "count" : 1188, "type" : "SCALAR", "max" : [1138], "min" : [0]}, {"bufferView" : 10, "byteOffset" : 0, "componentType" : 5126, "count" : 1139, "type" : "VEC3", "max" : [0.0007181167602539062, -0.03737831115722656, -0.03703784942626953], "min" : [-0.0067138671875, -0.05495262145996094, -0.04398345947265625], "name" : "POSITION"}, {"bufferView" : 10, "byteOffset" : 12, "componentType" : 5126, "count" : 1139, "type" : "VEC3", "max" : [0.9946180582046509, 1.0000044107437134, 0.9958880543708801], "min" : [-0.9946181178092957, -1.0000044107437134, -0.9958880543708801], "name" : "NORMAL"}, {"bufferView" : 10, "byteOffset" : 24, "componentType" : 5126, "count" : 1139, "type" : "VEC2", "max" : [0.927639365196228, 0.9473897218704224], "min" : [0.530537486076355, 0.010818958282470703], "name" : "TEXCOORD_0"}, {"bufferView" : 0, "byteOffset" : 41388, "componentType" : 5123, "count" : 180, "type" : "SCALAR", "max" : [176], "min" : [0]}, {"bufferView" : 11, "byteOffset" : 0, "componentType" : 5126, "count" : 177, "type" : "VEC3", "max" : [0.04927253723144531, -0.06434822082519531, 0.1288928985595703], "min" : [0.0008716583251953125, -0.09428596496582031, -0.12558555603027344], "name" : "POSITION"}, {"bufferView" : 11, "byteOffset" : 12, "componentType" : 5126, "count" : 177, "type" : "VEC3", "max" : [1.0000044107437134, 1.0000044107437134, 1.0000044107437134], "min" : [-1.0000044107437134, -1.0000044107437134, -1.0000044107437134], "name" : "NORMAL"}, {"bufferView" : 11, "byteOffset" : 24, "componentType" : 5126, "count" : 177, "type" : "VEC2", "max" : [0.9638351202011108, 0.978844165802002], "min" : [0.2310837209224701, 0.11000120639801025], "name" : "TEXCOORD_0"}], "asset" : {"generator" : "Aspose.3D 23.7.0", "version" : "2.0"}, "buffers" : [{"uri" : "data:application/octet-stream;base64,", "byteLength" : 709764}], "bufferViews" : [{"buffer" : 0, "byteOffset" : 0, "byteLength" : 41748, "target" : 34963}, {"buffer" : 0, "byteOffset" : 41752, "byteLength" : 1152, "byteStride" : 32, "target" : 34962}, {"buffer" : 0, "byteOffset" : 42908, "byteLength" : 7680, "byteStride" : 32, "target" : 34962}, {"buffer" : 0, "byteOffset" : 50592, "byteLength" : 156288, "byteStride" : 32, "target" : 34962}, {"buffer" : 0, "byteOffset" : 206884, "byteLength" : 1152, "byteStride" : 32, "target" : 34962}, {"buffer" : 0, "byteOffset" : 208040, "byteLength" : 7680, "byteStride" : 32, "target" : 34962}, {"buffer" : 0, "byteOffset" : 215724, "byteLength" : 1152, "byteStride" : 32, "target" : 34962}, {"buffer" : 0, "byteOffset" : 216880, "byteLength" : 406848, "byteStride" : 32, "target" : 34962}, {"buffer" : 0, "byteOffset" : 623732, "byteLength" : 38016, "byteStride" : 32, "target" : 34962}, {"buffer" : 0, "byteOffset" : 661752, "byteLength" : 4224, "byteStride" : 32, "target" : 34962}, {"buffer" : 0, "byteOffset" : 665980, "byteLength" : 38016, "byteStride" : 32, "target" : 34962}, {"buffer" : 0, "byteOffset" : 704000, "byteLength" : 5760, "byteStride" : 32, "target" : 34962}], "materials" : [{"pbrMetallicRoughness" : {"baseColorFactor" : [1, 1, 1, 0.040000000000000036], "metallicFactor" : 1, "roughnessFactor" : 0}, "emissiveFactor" : [0, 0, 0], "alphaMode" : "BLEND", "doubleSided" : false}, {"pbrMetallicRoughness" : {"baseColorFactor" : [0.03954623527052923, 0.17464740364527903, 0.13843161502267545, 1], "metallicFactor" : 0.32, "roughnessFactor" : 0.33000001311302185}, "emissiveFactor" : [0, 0, 0], "alphaMode" : "OPAQUE", "doubleSided" : false}, {"pbrMetallicRoughness" : {"baseColorFactor" : [0.05050504952669144, 0.05050504952669144, 0.05050504952669144, 1], "metallicFactor" : 1, "roughnessFactor" : 0.33000001311302185}, "emissiveFactor" : [0, 0, 0], "alphaMode" : "OPAQUE", "doubleSided" : false}, {"pbrMetallicRoughness" : {"baseColorFactor" : [1, 1, 1, 0.040000000000000036], "metallicFactor" : 1, "roughnessFactor" : 0}, "emissiveFactor" : [0, 0, 0], "alphaMode" : "BLEND", "doubleSided" : false}, {"pbrMetallicRoughness" : {"baseColorFactor" : [0.03954623527052923, 0.17464740364527903, 0.13843161502267545, 1], "metallicFactor" : 0.32, "roughnessFactor" : 0.33000001311302185}, "emissiveFactor" : [0, 0, 0], "alphaMode" : "OPAQUE", "doubleSided" : false}, {"pbrMetallicRoughness" : {"baseColorFactor" : [0.21952619971859377, 0.21952619971859377, 0.21952619971859377, 1], "metallicFactor" : 1, "roughnessFactor" : 0.33000001311302185}, "emissiveFactor" : [0, 0, 0], "alphaMode" : "OPAQUE", "doubleSided" : false}, {"pbrMetallicRoughness" : {"baseColorFactor" : [0.21952619971859377, 0.21952619971859377, 0.21952619971859377, 1], "metallicFactor" : 1, "roughnessFactor" : 0.33000001311302185}, "emissiveFactor" : [0, 0, 0], "alphaMode" : "OPAQUE", "doubleSided" : false}, {"pbrMetallicRoughness" : {"baseColorFactor" : [0.21952619971859377, 0.21952619971859377, 0.21952619971859377, 1], "metallicFactor" : 1, "roughnessFactor" : 0.33000001311302185}, "emissiveFactor" : [0, 0, 0], "alphaMode" : "OPAQUE", "doubleSided" : false}, {"pbrMetallicRoughness" : {"baseColorFactor" : [0.21952619971859377, 0.21952619971859377, 0.21952619971859377, 1], "metallicFactor" : 1, "roughnessFactor" : 0.33000001311302185}, "emissiveFactor" : [0, 0, 0], "alphaMode" : "OPAQUE", "doubleSided" : false}, {"pbrMetallicRoughness" : {"baseColorFactor" : [0.21952619971859377, 0.21952619971859377, 0.21952619971859377, 1], "metallicFactor" : 1, "roughnessFactor" : 0.33000001311302185}, "emissiveFactor" : [0, 0, 0], "alphaMode" : "OPAQUE", "doubleSided" : false}, {"pbrMetallicRoughness" : {"baseColorFactor" : [0.48514994004665124, 0.4178850708380236, 0.3049873140591091, 1], "metallicFactor" : 0, "roughnessFactor" : 1}, "emissiveFactor" : [0, 0, 0], "alphaMode" : "OPAQUE", "doubleSided" : false}], "meshes" : [{"primitives" : [{"attributes" : {"POSITION" : 1, "NORMAL" : 2, "TEXCOORD_0" : 3}, "indices" : 0, "material" : 0, "mode" : 4}]}, {"primitives" : [{"attributes" : {"POSITION" : 5, "NORMAL" : 6, "TEXCOORD_0" : 7}, "indices" : 4, "material" : 1, "mode" : 4}]}, {"primitives" : [{"attributes" : {"POSITION" : 9, "NORMAL" : 10, "TEXCOORD_0" : 11}, "indices" : 8, "material" : 2, "mode" : 4}]}, {"primitives" : [{"attributes" : {"POSITION" : 13, "NORMAL" : 14, "TEXCOORD_0" : 15}, "indices" : 12, "material" : 3, "mode" : 4}]}, {"primitives" : [{"attributes" : {"POSITION" : 17, "NORMAL" : 18, "TEXCOORD_0" : 19}, "indices" : 16, "material" : 4, "mode" : 4}]}, {"primitives" : [{"attributes" : {"POSITION" : 21, "NORMAL" : 22, "TEXCOORD_0" : 23}, "indices" : 20, "material" : 5, "mode" : 4}]}, {"primitives" : [{"attributes" : {"POSITION" : 25, "NORMAL" : 26, "TEXCOORD_0" : 27}, "indices" : 24, "material" : 6, "mode" : 4}]}, {"primitives" : [{"attributes" : {"POSITION" : 29, "NORMAL" : 30, "TEXCOORD_0" : 31}, "indices" : 28, "material" : 7, "mode" : 4}]}, {"primitives" : [{"attributes" : {"POSITION" : 33, "NORMAL" : 34, "TEXCOORD_0" : 35}, "indices" : 32, "material" : 8, "mode" : 4}]}, {"primitives" : [{"attributes" : {"POSITION" : 37, "NORMAL" : 38, "TEXCOORD_0" : 39}, "indices" : 36, "material" : 9, "mode" : 4}]}, {"primitives" : [{"attributes" : {"POSITION" : 41, "NORMAL" : 42, "TEXCOORD_0" : 43}, "indices" : 40, "material" : 10, "mode" : 4}]}], "nodes" : [{"matrix" : [0.3141801835495288, 0, 0, 0, 0, 0.3141801835495288, 0, 0, 0, 0, 0.3141801835495288, 0, -0.08618997657332753, 0.11846639719902541, 0, 1], "mesh" : 0, "name" : "mesh_0"}, {"matrix" : [0.3141801835495288, 0, 0, 0, 0, 0.3141801835495288, 0, 0, 0, 0, 0.3141801835495288, 0, -0.08618997657332753, 0.11846639719902541, 0, 1], "mesh" : 1, "name" : "mesh_1"}, {"matrix" : [1.1572882588504456, 0, 0, 0, 0, 1.1572882588504456, 0, 0, 0, 0, 1.1572882588504456, 0, -0.0019037952054107576, 0, 0, 1], "mesh" : 2, "name" : "mesh_2"}, {"matrix" : [0.3141801835495288, 0, 0, 0, 0, 0.3141801835495288, 0, 0, 0, 0, 0.3141801835495288, 0, 0.0824384845673953, 0.11846639719902541, 0, 1], "mesh" : 3, "name" : "mesh_3"}, {"matrix" : [0.3141801835495288, 0, 0, 0, 0, 0.3141801835495288, 0, 0, 0, 0, 0.3141801835495288, 0, 0.0824384845673953, 0.11846639719902541, 0, 1], "mesh" : 4, "name" : "mesh_4"}, {"mesh" : 5, "name" : "mesh_5"}, {"mesh" : 6, "name" : "mesh_6"}, {"mesh" : 7, "name" : "mesh_7"}, {"mesh" : 8, "name" : "mesh_8"}, {"mesh" : 9, "name" : "mesh_9"}, {"mesh" : 10, "name" : "mesh_10"}, {"children" : [5, 6, 7, 8, 9, 10], "matrix" : [2.220446049250313E-16, 0, 1.0000000000000002, 0, 0, 1, 0, 0, -1.0000000000000002, 0, 2.220446049250313E-16, 0, 0, 0, 0, 1], "name" : "46c4b1d4-68c3-430d-a541-a20bf90a9f7a"}, {"children" : [11], "matrix" : [4.440892098500626E-16, 0, -1, 0, 0, 1, 0, 0, 1, 0, 4.440892098500626E-16, 0, 0, 0.09847894475835717, 0, 1], "name" : "6f9ac67b-338c-447a-b51b-979a1bc54d6d"}, {"children" : [0, 1, 2, 3, 4, 12], "name" : "defaultScene"}], "scene" : 0, "scenes" : [{"nodes" : [13]}]}