{"accessors" : [{"bufferView" : 0, "byteOffset" : 0, "componentType" : 5123, "count" : 2100, "type" : "SCALAR", "max" : [2097], "min" : [0]}, {"bufferView" : 1, "byteOffset" : 0, "componentType" : 5126, "count" : 2098, "type" : "VEC3", "max" : [0.09924453496932983, -0.028304176405072212, 0.09904885292053223], "min" : [-0.09924513101577759, -0.13593143224716187, -0.0990493893623352], "name" : "POSITION"}, {"bufferView" : 1, "byteOffset" : 12, "componentType" : 5126, "count" : 2098, "type" : "VEC3", "max" : [1.0000044107437134, 1.0000044107437134, 1.0000044107437134], "min" : [-1.0000044107437134, -1.0000044107437134, -1.0000044107437134], "name" : "NORMAL"}, {"bufferView" : 1, "byteOffset" : 24, "componentType" : 5126, "count" : 2098, "type" : "VEC2", "max" : [0.9919049739837646, 0.9996917843818665], "min" : [0.03475633263587952, 0.02749335765838623], "name" : "TEXCOORD_0"}, {"bufferView" : 0, "byteOffset" : 4200, "componentType" : 5123, "count" : 900, "type" : "SCALAR", "max" : [899], "min" : [0]}, {"bufferView" : 2, "byteOffset" : 0, "componentType" : 5126, "count" : 900, "type" : "VEC3", "max" : [0.09683845937252045, 0.1355040818452835, 0.09664751589298248], "min" : [-0.0968390479683876, -0.03600454330444336, -0.09664804488420486], "name" : "POSITION"}, {"bufferView" : 2, "byteOffset" : 12, "componentType" : 5126, "count" : 900, "type" : "VEC3", "max" : [1.0000044107437134, 0, 0.9980311989784241], "min" : [-1.0000044107437134, -1.0000044107437134, -0.9980311393737793], "name" : "NORMAL"}, {"bufferView" : 2, "byteOffset" : 24, "componentType" : 5126, "count" : 900, "type" : "VEC2", "max" : [1.5200316905975342, 2], "min" : [-0.47996824979782104, 1], "name" : "TEXCOORD_0"}, {"bufferView" : 0, "byteOffset" : 6000, "componentType" : 5123, "count" : 3900, "type" : "SCALAR", "max" : [3623], "min" : [0]}, {"bufferView" : 3, "byteOffset" : 0, "componentType" : 5126, "count" : 3624, "type" : "VEC3", "max" : [1.081786870956421, 1.2872636318206787, 1.0796525478363037], "min" : [-1.0817874670028687, -0.27695345878601074, -1.0796531438827515], "name" : "POSITION"}, {"bufferView" : 3, "byteOffset" : 12, "componentType" : 5126, "count" : 3624, "type" : "VEC3", "max" : [1.0000044107437134, 1.0000044107437134, 0.9980311393737793], "min" : [-1.0000044107437134, -1.0000044107437134, -0.9980311989784241], "name" : "NORMAL"}, {"bufferView" : 3, "byteOffset" : 24, "componentType" : 5126, "count" : 3624, "type" : "VEC2", "max" : [0.9980080723762512, 0.9996917843818665], "min" : [0.003786146640777588, 0.020310044288635254], "name" : "TEXCOORD_0"}, {"bufferView" : 0, "byteOffset" : 13800, "componentType" : 5123, "count" : 1500, "type" : "SCALAR", "max" : [1351], "min" : [0]}, {"bufferView" : 4, "byteOffset" : 0, "componentType" : 5126, "count" : 1352, "type" : "VEC3", "max" : [0.09683845937252045, 0.13611190021038055, 0.09664751589298248], "min" : [-0.0968390479683876, 0.1355040818452835, -0.09664804488420486], "name" : "POSITION"}, {"bufferView" : 4, "byteOffset" : 12, "componentType" : 5126, "count" : 1352, "type" : "VEC3", "max" : [0.7106416821479797, 0.9924070835113525, 0.7092528343200684], "min" : [-0.7106319069862366, 0.7035455703735352, -0.7092374563217163], "name" : "NORMAL"}, {"bufferView" : 4, "byteOffset" : 24, "componentType" : 5126, "count" : 1352, "type" : "VEC2", "max" : [0.65625, 0.31293267011642456], "min" : [0.34374991059303284, 0.0003082752227783203], "name" : "TEXCOORD_0"}, {"bufferView" : 0, "byteOffset" : 16800, "componentType" : 5123, "count" : 360, "type" : "SCALAR", "max" : [358], "min" : [0]}, {"bufferView" : 5, "byteOffset" : 0, "componentType" : 5126, "count" : 359, "type" : "VEC3", "max" : [0.6845595836639404, 0.41530841588974, 0.680809736251831], "min" : [-0.6845600605010986, -0.22797006368637085, -0.6808100938796997], "name" : "POSITION"}, {"bufferView" : 5, "byteOffset" : 12, "componentType" : 5126, "count" : 359, "type" : "VEC3", "max" : [1.0000044107437134, 1.0000044107437134, 0.9945263266563416], "min" : [-1.0000044107437134, -1.0000044107437134, -0.9945263266563416], "name" : "NORMAL"}, {"bufferView" : 5, "byteOffset" : 24, "componentType" : 5126, "count" : 359, "type" : "VEC2", "max" : [0.65625, 0.9991441965103149], "min" : [0.3437499403953552, 0.0008559226989746094], "name" : "TEXCOORD_0"}, {"bufferView" : 0, "byteOffset" : 17520, "componentType" : 5123, "count" : 360, "type" : "SCALAR", "max" : [358], "min" : [0]}, {"bufferView" : 6, "byteOffset" : 0, "componentType" : 5126, "count" : 359, "type" : "VEC3", "max" : [0.6845595836639404, 0.41530841588974, 0.680809736251831], "min" : [-0.6845600605010986, -0.22797006368637085, -0.6808100938796997], "name" : "POSITION"}, {"bufferView" : 6, "byteOffset" : 12, "componentType" : 5126, "count" : 359, "type" : "VEC3", "max" : [1.0000044107437134, 1.0000044107437134, 0.9945263266563416], "min" : [-1.0000044107437134, -1.0000044107437134, -0.9945263266563416], "name" : "NORMAL"}, {"bufferView" : 6, "byteOffset" : 24, "componentType" : 5126, "count" : 359, "type" : "VEC2", "max" : [0.65625, 0.9991441965103149], "min" : [0.3437499403953552, 0.0008559226989746094], "name" : "TEXCOORD_0"}, {"bufferView" : 0, "byteOffset" : 18240, "componentType" : 5123, "count" : 360, "type" : "SCALAR", "max" : [358], "min" : [0]}, {"bufferView" : 7, "byteOffset" : 0, "componentType" : 5126, "count" : 359, "type" : "VEC3", "max" : [0.6845595836639404, 0.41530841588974, 0.680809736251831], "min" : [-0.6845600605010986, -0.22797006368637085, -0.6808100938796997], "name" : "POSITION"}, {"bufferView" : 7, "byteOffset" : 12, "componentType" : 5126, "count" : 359, "type" : "VEC3", "max" : [1.0000044107437134, 1.0000044107437134, 0.9945263266563416], "min" : [-1.0000044107437134, -1.0000044107437134, -0.9945263266563416], "name" : "NORMAL"}, {"bufferView" : 7, "byteOffset" : 24, "componentType" : 5126, "count" : 359, "type" : "VEC2", "max" : [0.65625, 0.9991441965103149], "min" : [0.3437499403953552, 0.0008559226989746094], "name" : "TEXCOORD_0"}], "asset" : {"generator" : "Aspose.3D 23.7.0", "version" : "2.0"}, "buffers" : [{"uri" : "data:application/octet-stream;base64,", "byteLength" : 322352}], "bufferViews" : [{"buffer" : 0, "byteOffset" : 0, "byteLength" : 18960, "target" : 34963}, {"buffer" : 0, "byteOffset" : 18964, "byteLength" : 67200, "byteStride" : 32, "target" : 34962}, {"buffer" : 0, "byteOffset" : 86168, "byteLength" : 28800, "byteStride" : 32, "target" : 34962}, {"buffer" : 0, "byteOffset" : 114972, "byteLength" : 124800, "byteStride" : 32, "target" : 34962}, {"buffer" : 0, "byteOffset" : 239776, "byteLength" : 48000, "byteStride" : 32, "target" : 34962}, {"buffer" : 0, "byteOffset" : 287780, "byteLength" : 11520, "byteStride" : 32, "target" : 34962}, {"buffer" : 0, "byteOffset" : 299304, "byteLength" : 11520, "byteStride" : 32, "target" : 34962}, {"buffer" : 0, "byteOffset" : 310828, "byteLength" : 11520, "byteStride" : 32, "target" : 34962}], "images" : [{"uri" : "data:image/jpeg;base64,"}], "materials" : [{"pbrMetallicRoughness" : {"baseColorFactor" : [1, 1, 1, 1], "metallicFactor" : 0.9, "roughnessFactor" : 0.800000011920929}, "emissiveFactor" : [0, 0, 0], "alphaMode" : "OPAQUE", "doubleSided" : false}, {"pbrMetallicRoughness" : {"baseColorFactor" : [1, 1, 1, 0.050000000000000044], "metallicFactor" : 1, "roughnessFactor" : 0}, "emissiveFactor" : [0, 0, 0], "alphaMode" : "BLEND", "doubleSided" : false}, {"pbrMetallicRoughness" : {"baseColorFactor" : [1, 1, 1, 1], "baseColorTexture" : {"index" : 0, "texCoord" : 0}, "metallicFactor" : 1, "roughnessFactor" : 0.34}, "emissiveFactor" : [0, 0, 0], "alphaMode" : "OPAQUE", "doubleSided" : false}, {"pbrMetallicRoughness" : {"baseColorFactor" : [1, 1, 1, 0.41999999999999993], "metallicFactor" : 1, "roughnessFactor" : 0.2}, "emissiveFactor" : [0, 0, 0], "alphaMode" : "BLEND", "doubleSided" : false}, {"pbrMetallicRoughness" : {"baseColorFactor" : [1, 1, 1, 1], "metallicFactor" : 0.9, "roughnessFactor" : 0.800000011920929}, "emissiveFactor" : [0, 0, 0], "alphaMode" : "OPAQUE", "doubleSided" : false}, {"pbrMetallicRoughness" : {"baseColorFactor" : [1, 1, 1, 1], "metallicFactor" : 0.9, "roughnessFactor" : 0.800000011920929}, "emissiveFactor" : [0, 0, 0], "alphaMode" : "OPAQUE", "doubleSided" : false}, {"pbrMetallicRoughness" : {"baseColorFactor" : [1, 1, 1, 1], "metallicFactor" : 0.9, "roughnessFactor" : 0.800000011920929}, "emissiveFactor" : [0, 0, 0], "alphaMode" : "OPAQUE", "doubleSided" : false}], "meshes" : [{"primitives" : [{"attributes" : {"POSITION" : 1, "NORMAL" : 2, "TEXCOORD_0" : 3}, "indices" : 0, "material" : 0, "mode" : 4}]}, {"primitives" : [{"attributes" : {"POSITION" : 5, "NORMAL" : 6, "TEXCOORD_0" : 7}, "indices" : 4, "material" : 1, "mode" : 4}]}, {"primitives" : [{"attributes" : {"POSITION" : 9, "NORMAL" : 10, "TEXCOORD_0" : 11}, "indices" : 8, "material" : 2, "mode" : 4}]}, {"primitives" : [{"attributes" : {"POSITION" : 13, "NORMAL" : 14, "TEXCOORD_0" : 15}, "indices" : 12, "material" : 3, "mode" : 4}]}, {"primitives" : [{"attributes" : {"POSITION" : 17, "NORMAL" : 18, "TEXCOORD_0" : 19}, "indices" : 16, "material" : 4, "mode" : 4}]}, {"primitives" : [{"attributes" : {"POSITION" : 21, "NORMAL" : 22, "TEXCOORD_0" : 23}, "indices" : 20, "material" : 5, "mode" : 4}]}, {"primitives" : [{"attributes" : {"POSITION" : 25, "NORMAL" : 26, "TEXCOORD_0" : 27}, "indices" : 24, "material" : 6, "mode" : 4}]}], "nodes" : [{"mesh" : 0, "name" : "mesh_0"}, {"mesh" : 1, "name" : "mesh_1"}, {"matrix" : [0.04043997105739776, 0, 0, 0, 0, 0.04043997105739776, 0, 0, 0, 0, 0.04043997105739776, 0, 0, -0.08681344763526462, 0, 1], "mesh" : 2, "name" : "mesh_2"}, {"mesh" : 3, "name" : "mesh_3"}, {"matrix" : [0.010227867344888179, 0, 0, 0, 0, 0.010227867344888179, 0, 0, 0, 0, 0.010227867344888179, 0, 0.05178024974475453, -0.14001794743418683, 0.07106469420374119, 1], "mesh" : 4, "name" : "mesh_4"}, {"matrix" : [0.010227867344888179, 0, 0, 0, 0, 0.010227867344888179, 0, 0, 0, 0, 0.010227867344888179, 0, -0.08842978381513436, -0.14001794743418683, 0.013379018907728565, 1], "mesh" : 5, "name" : "mesh_5"}, {"matrix" : [0.010227867344888179, 0, 0, 0, 0, 0.010227867344888179, 0, 0, 0, 0, 0.010227867344888179, 0, 0.03476130104794579, -0.14001794743418683, -0.08077935709281783, 1], "mesh" : 6, "name" : "mesh_6"}, {"children" : [0, 1, 2, 3, 4, 5, 6], "name" : "defaultScene"}], "samplers" : [{"magFilter" : 9729, "minFilter" : 9987, "wrapS" : 10497, "wrapT" : 10497}], "scene" : 0, "scenes" : [{"nodes" : [7]}], "textures" : [{"sampler" : 0, "source" : 0, "name" : ""}]}