{"accessors" : [{"bufferView" : 0, "byteOffset" : 0, "componentType" : 5123, "count" : 240, "type" : "SCALAR", "max" : [233], "min" : [0]}, {"bufferView" : 1, "byteOffset" : 0, "componentType" : 5126, "count" : 234, "type" : "VEC3", "max" : [0.005863398313522339, 0.21118272840976715, 0.5], "min" : [-0.005863398313522339, -0.21118274331092834, -0.5], "name" : "POSITION"}, {"bufferView" : 1, "byteOffset" : 12, "componentType" : 5126, "count" : 234, "type" : "VEC3", "max" : [1.0000044107437134, 1.0000038146972656, 1.000001311302185], "min" : [-1.0000044107437134, -1.0000038146972656, -1.000001311302185], "name" : "NORMAL"}, {"bufferView" : 1, "byteOffset" : 24, "componentType" : 5126, "count" : 234, "type" : "VEC2", "max" : [0.8745062947273254, 2], "min" : [0.125534787774086, 0.00028973817825317383], "name" : "TEXCOORD_0"}, {"bufferView" : 0, "byteOffset" : 480, "componentType" : 5123, "count" : 36, "type" : "SCALAR", "max" : [34], "min" : [0]}, {"bufferView" : 2, "byteOffset" : 0, "componentType" : 5126, "count" : 35, "type" : "VEC3", "max" : [0.005863398313522339, 0.20904673635959625, 0.4978608787059784], "min" : [-0.005863398313522339, -0.20904673635959625, -0.4978608787059784], "name" : "POSITION"}, {"bufferView" : 2, "byteOffset" : 12, "componentType" : 5126, "count" : 35, "type" : "VEC3", "max" : [1.0000044107437134, 9.022257074775553E-08, 0], "min" : [-1.0000044107437134, -2.376157794969913E-07, 0], "name" : "NORMAL"}, {"bufferView" : 2, "byteOffset" : 24, "componentType" : 5126, "count" : 35, "type" : "VEC2", "max" : [0.8745064735412598, 0.9993054866790771], "min" : [0.1254928857088089, 0.75], "name" : "TEXCOORD_0"}, {"bufferView" : 0, "byteOffset" : 552, "componentType" : 5123, "count" : 4884, "type" : "SCALAR", "max" : [4508], "min" : [0]}, {"bufferView" : 3, "byteOffset" : 0, "componentType" : 5126, "count" : 4509, "type" : "VEC3", "max" : [0.10249999910593033, 0.027048630639910698, 0.17749999463558197], "min" : [-0.10249999910593033, -0.03575103357434273, -0.17749999463558197], "name" : "POSITION"}, {"bufferView" : 3, "byteOffset" : 12, "componentType" : 5126, "count" : 4509, "type" : "VEC3", "max" : [1.0000044107437134, 1.0000044107437134, 1.0000044107437134], "min" : [-1.0000044107437134, -1.0000044107437134, -1.0000044107437134], "name" : "NORMAL"}, {"bufferView" : 3, "byteOffset" : 24, "componentType" : 5126, "count" : 4509, "type" : "VEC2", "max" : [0.9444975256919861, 0.9980079531669617], "min" : [0.001885224599391222, 0.0019919872283935547], "name" : "TEXCOORD_0"}, {"bufferView" : 0, "byteOffset" : 10320, "componentType" : 5123, "count" : 1464, "type" : "SCALAR", "max" : [1305], "min" : [0]}, {"bufferView" : 4, "byteOffset" : 0, "componentType" : 5126, "count" : 1306, "type" : "VEC3", "max" : [0.0460769347846508, 0.03082059882581234, 0.09908996522426605], "min" : [-0.0460769347846508, -0.0121548967435956, -0.09908996522426605], "name" : "POSITION"}, {"bufferView" : 4, "byteOffset" : 12, "componentType" : 5126, "count" : 1306, "type" : "VEC3", "max" : [1.0000044107437134, 1.0000044107437134, 1.0000044107437134], "min" : [-1.0000044107437134, -1.0000044107437134, -1.0000044107437134], "name" : "NORMAL"}, {"bufferView" : 4, "byteOffset" : 24, "componentType" : 5126, "count" : 1306, "type" : "VEC2", "max" : [0.950617790222168, 0.7764250040054321], "min" : [0.02188001573085785, 0.22357511520385742], "name" : "TEXCOORD_0"}, {"bufferView" : 0, "byteOffset" : 13248, "componentType" : 5123, "count" : 240, "type" : "SCALAR", "max" : [233], "min" : [0]}, {"bufferView" : 5, "byteOffset" : 0, "componentType" : 5126, "count" : 234, "type" : "VEC3", "max" : [0.005863398313522339, 0.21118272840976715, 0.5], "min" : [-0.005863398313522339, -0.21118274331092834, -0.5], "name" : "POSITION"}, {"bufferView" : 5, "byteOffset" : 12, "componentType" : 5126, "count" : 234, "type" : "VEC3", "max" : [1.0000044107437134, 1.0000038146972656, 1.000001311302185], "min" : [-1.0000044107437134, -1.0000038146972656, -1.000001311302185], "name" : "NORMAL"}, {"bufferView" : 5, "byteOffset" : 24, "componentType" : 5126, "count" : 234, "type" : "VEC2", "max" : [0.8745062947273254, 2], "min" : [0.125534787774086, 0.00028973817825317383], "name" : "TEXCOORD_0"}, {"bufferView" : 0, "byteOffset" : 13728, "componentType" : 5123, "count" : 36, "type" : "SCALAR", "max" : [34], "min" : [0]}, {"bufferView" : 6, "byteOffset" : 0, "componentType" : 5126, "count" : 35, "type" : "VEC3", "max" : [0.005863398313522339, 0.20904673635959625, 0.4978608787059784], "min" : [-0.005863398313522339, -0.20904673635959625, -0.4978608787059784], "name" : "POSITION"}, {"bufferView" : 6, "byteOffset" : 12, "componentType" : 5126, "count" : 35, "type" : "VEC3", "max" : [1.0000044107437134, 9.022257074775553E-08, 0], "min" : [-1.0000044107437134, -2.376157794969913E-07, 0], "name" : "NORMAL"}, {"bufferView" : 6, "byteOffset" : 24, "componentType" : 5126, "count" : 35, "type" : "VEC2", "max" : [0.8745064735412598, 0.9993054866790771], "min" : [0.1254928857088089, 0.75], "name" : "TEXCOORD_0"}], "asset" : {"generator" : "Aspose.3D 23.7.0", "version" : "2.0"}, "buffers" : [{"uri" : "data:application/octet-stream;base64,", "byteLength" : 234628}], "bufferViews" : [{"buffer" : 0, "byteOffset" : 0, "byteLength" : 13800, "target" : 34963}, {"buffer" : 0, "byteOffset" : 13804, "byteLength" : 7680, "byteStride" : 32, "target" : 34962}, {"buffer" : 0, "byteOffset" : 21488, "byteLength" : 1152, "byteStride" : 32, "target" : 34962}, {"buffer" : 0, "byteOffset" : 22644, "byteLength" : 156288, "byteStride" : 32, "target" : 34962}, {"buffer" : 0, "byteOffset" : 178936, "byteLength" : 46848, "byteStride" : 32, "target" : 34962}, {"buffer" : 0, "byteOffset" : 225788, "byteLength" : 7680, "byteStride" : 32, "target" : 34962}, {"buffer" : 0, "byteOffset" : 233472, "byteLength" : 1152, "byteStride" : 32, "target" : 34962}], "images" : [{"uri" : "data:image/jpeg;base64,"}], "materials" : [{"pbrMetallicRoughness" : {"baseColorFactor" : [0.04970656597728775, 0.11193242782769693, 0.09305896283800832, 1], "metallicFactor" : 0, "roughnessFactor" : 0.33000001311302185}, "emissiveFactor" : [0, 0, 0], "alphaMode" : "OPAQUE", "doubleSided" : false}, {"pbrMetallicRoughness" : {"baseColorFactor" : [1, 1, 1, 0.20999999999999996], "metallicFactor" : 0, "roughnessFactor" : 0.33000001311302185}, "emissiveFactor" : [0, 0, 0], "alphaMode" : "BLEND", "doubleSided" : false}, {"pbrMetallicRoughness" : {"baseColorFactor" : [0.02217388478862708, 0.02217388478862708, 0.02217388478862708, 1], "metallicFactor" : 1, "roughnessFactor" : 0.33000001311302185}, "emissiveFactor" : [0, 0, 0], "alphaMode" : "OPAQUE", "doubleSided" : false}, {"pbrMetallicRoughness" : {"baseColorFactor" : [1, 1, 1, 1], "baseColorTexture" : {"index" : 0, "texCoord" : 0}, "metallicFactor" : 1, "roughnessFactor" : 0.33000001311302185}, "emissiveFactor" : [0, 0, 0], "alphaMode" : "OPAQUE", "doubleSided" : false}, {"pbrMetallicRoughness" : {"baseColorFactor" : [0.04970656597728775, 0.11193242782769693, 0.09305896283800832, 1], "metallicFactor" : 0, "roughnessFactor" : 0.33000001311302185}, "emissiveFactor" : [0, 0, 0], "alphaMode" : "OPAQUE", "doubleSided" : false}, {"pbrMetallicRoughness" : {"baseColorFactor" : [1, 1, 1, 0.20999999999999996], "metallicFactor" : 0, "roughnessFactor" : 0.33000001311302185}, "emissiveFactor" : [0, 0, 0], "alphaMode" : "BLEND", "doubleSided" : false}], "meshes" : [{"primitives" : [{"attributes" : {"POSITION" : 1, "NORMAL" : 2, "TEXCOORD_0" : 3}, "indices" : 0, "material" : 0, "mode" : 4}]}, {"primitives" : [{"attributes" : {"POSITION" : 5, "NORMAL" : 6, "TEXCOORD_0" : 7}, "indices" : 4, "material" : 1, "mode" : 4}]}, {"primitives" : [{"attributes" : {"POSITION" : 9, "NORMAL" : 10, "TEXCOORD_0" : 11}, "indices" : 8, "material" : 2, "mode" : 4}]}, {"primitives" : [{"attributes" : {"POSITION" : 13, "NORMAL" : 14, "TEXCOORD_0" : 15}, "indices" : 12, "material" : 3, "mode" : 4}]}, {"primitives" : [{"attributes" : {"POSITION" : 17, "NORMAL" : 18, "TEXCOORD_0" : 19}, "indices" : 16, "material" : 4, "mode" : 4}]}, {"primitives" : [{"attributes" : {"POSITION" : 21, "NORMAL" : 22, "TEXCOORD_0" : 23}, "indices" : 20, "material" : 5, "mode" : 4}]}], "nodes" : [{"matrix" : [0.3141801835495288, 0, 0, 0, 0, 0.3141801835495288, 0, 0, 0, 0, 0.3141801835495288, 0, 0.08636361880631199, 0.07790989843701002, 0, 1], "mesh" : 0, "name" : "mesh_0"}, {"matrix" : [0.3141801835495288, 0, 0, 0, 0, 0.3141801835495288, 0, 0, 0, 0, 0.3141801835495288, 0, 0.08636361880631199, 0.07790989843701002, 0, 1], "mesh" : 1, "name" : "mesh_1"}, {"mesh" : 2, "name" : "mesh_2"}, {"mesh" : 3, "name" : "mesh_3"}, {"matrix" : [0.3141801835495288, 0, 0, 0, 0, 0.3141801835495288, 0, 0, 0, 0, 0.3141801835495288, 0, -0.0872670071268683, 0.07790989843701002, 0, 1], "mesh" : 4, "name" : "mesh_4"}, {"matrix" : [0.3141801835495288, 0, 0, 0, 0, 0.3141801835495288, 0, 0, 0, 0, 0.3141801835495288, 0, -0.0872670071268683, 0.07790989843701002, 0, 1], "mesh" : 5, "name" : "mesh_5"}, {"children" : [0, 1, 2, 3, 4, 5], "name" : "defaultScene"}], "samplers" : [{"magFilter" : 9729, "minFilter" : 9987, "wrapS" : 10497, "wrapT" : 10497}], "scene" : 0, "scenes" : [{"nodes" : [6]}], "textures" : [{"sampler" : 0, "source" : 0, "name" : ""}]}