{"accessors" : [{"bufferView" : 0, "byteOffset" : 0, "componentType" : 5123, "count" : 564, "type" : "SCALAR", "max" : [526], "min" : [0]}, {"bufferView" : 1, "byteOffset" : 0, "componentType" : 5126, "count" : 527, "type" : "VEC3", "max" : [-0.08711263537406921, 0.19999998807907104, 0.30000007152557373], "min" : [-0.10499998927116394, -0.19999998807907104, -0.30000007152557373], "name" : "POSITION"}, {"bufferView" : 1, "byteOffset" : 12, "componentType" : 5126, "count" : 527, "type" : "VEC3", "max" : [1.0000041723251343, 0.9999191761016846, 0.9999191164970398], "min" : [-1.0000041723251343, -0.9999191761016846, -0.9999191164970398], "name" : "NORMAL"}, {"bufferView" : 1, "byteOffset" : 24, "componentType" : 5126, "count" : 527, "type" : "VEC2", "max" : [0.875, 1], "min" : [0.125, 0.0006338357925415039], "name" : "TEXCOORD_0"}, {"bufferView" : 0, "byteOffset" : 1128, "componentType" : 5123, "count" : 12, "type" : "SCALAR", "max" : [11], "min" : [0]}, {"bufferView" : 2, "byteOffset" : 0, "componentType" : 5126, "count" : 12, "type" : "VEC3", "max" : [0.10442209243774414, 0.19945457577705383, 0.29945462942123413], "min" : [0.10089462995529175, -0.19945457577705383, -0.29945462942123413], "name" : "POSITION"}, {"bufferView" : 2, "byteOffset" : 12, "componentType" : 5126, "count" : 12, "type" : "VEC3", "max" : [1.0000044107437134, 0, 0], "min" : [-1.0000044107437134, 0, 0], "name" : "NORMAL"}, {"bufferView" : 2, "byteOffset" : 24, "componentType" : 5126, "count" : 12, "type" : "VEC2", "max" : [0.8747727274894714, 0.9996591210365295], "min" : [0.12522727251052856, 0.7503408789634705], "name" : "TEXCOORD_0"}, {"bufferView" : 0, "byteOffset" : 1152, "componentType" : 5123, "count" : 1200, "type" : "SCALAR", "max" : [1145], "min" : [0]}, {"bufferView" : 3, "byteOffset" : 0, "componentType" : 5126, "count" : 1146, "type" : "VEC3", "max" : [0.10870666801929474, 0.16767150163650513, 0.2537952661514282], "min" : [-0.0870673656463623, 0.147648423910141, 0.23377220332622528], "name" : "POSITION"}, {"bufferView" : 3, "byteOffset" : 12, "componentType" : 5126, "count" : 1146, "type" : "VEC3", "max" : [1.0000044107437134, 1.0000044107437134, 1.0000044107437134], "min" : [-1.0000044107437134, -1.0000044107437134, -1.0000044107437134], "name" : "NORMAL"}, {"bufferView" : 3, "byteOffset" : 24, "componentType" : 5126, "count" : 1146, "type" : "VEC2", "max" : [0.65625, 0.9950888752937317], "min" : [0.3437499701976776, 7.450580596923828E-08], "name" : "TEXCOORD_0"}, {"bufferView" : 0, "byteOffset" : 3552, "componentType" : 5123, "count" : 1200, "type" : "SCALAR", "max" : [1145], "min" : [0]}, {"bufferView" : 4, "byteOffset" : 0, "componentType" : 5126, "count" : 1146, "type" : "VEC3", "max" : [0.10870666801929474, 0.16767150163650513, -0.23522092401981354], "min" : [-0.0870673656463623, 0.147648423910141, -0.25524401664733887], "name" : "POSITION"}, {"bufferView" : 4, "byteOffset" : 12, "componentType" : 5126, "count" : 1146, "type" : "VEC3", "max" : [1.0000044107437134, 1.0000044107437134, 1.0000044107437134], "min" : [-1.0000044107437134, -1.0000044107437134, -1.0000044107437134], "name" : "NORMAL"}, {"bufferView" : 4, "byteOffset" : 24, "componentType" : 5126, "count" : 1146, "type" : "VEC2", "max" : [0.65625, 0.9950888752937317], "min" : [0.3437499701976776, 7.450580596923828E-08], "name" : "TEXCOORD_0"}, {"bufferView" : 0, "byteOffset" : 5952, "componentType" : 5123, "count" : 1200, "type" : "SCALAR", "max" : [1145], "min" : [0]}, {"bufferView" : 5, "byteOffset" : 0, "componentType" : 5126, "count" : 1146, "type" : "VEC3", "max" : [0.10870666801929474, -0.12841469049453735, -0.23522092401981354], "min" : [-0.0870673656463623, -0.14843779802322388, -0.25524401664733887], "name" : "POSITION"}, {"bufferView" : 5, "byteOffset" : 12, "componentType" : 5126, "count" : 1146, "type" : "VEC3", "max" : [1.0000044107437134, 1.0000044107437134, 1.0000044107437134], "min" : [-1.0000044107437134, -1.0000044107437134, -1.0000044107437134], "name" : "NORMAL"}, {"bufferView" : 5, "byteOffset" : 24, "componentType" : 5126, "count" : 1146, "type" : "VEC2", "max" : [0.65625, 0.9950888752937317], "min" : [0.3437499701976776, 7.450580596923828E-08], "name" : "TEXCOORD_0"}, {"bufferView" : 0, "byteOffset" : 8352, "componentType" : 5123, "count" : 12714, "type" : "SCALAR", "max" : [12105], "min" : [0]}, {"bufferView" : 6, "byteOffset" : 0, "componentType" : 5126, "count" : 12106, "type" : "VEC3", "max" : [0.07551765441894531, -0.05170249938964844, 0.1557483673095703], "min" : [-0.07551765441894531, -0.11342620849609375, -0.15244102478027344], "name" : "POSITION"}, {"bufferView" : 6, "byteOffset" : 12, "componentType" : 5126, "count" : 12106, "type" : "VEC3", "max" : [1.0000044107437134, 1.0000044107437134, 1.0000044107437134], "min" : [-1.0000044107437134, -1.0000044107437134, -1.0000044107437134], "name" : "NORMAL"}, {"bufferView" : 6, "byteOffset" : 24, "componentType" : 5126, "count" : 12106, "type" : "VEC2", "max" : [0.9542115330696106, 0.9980079531669617], "min" : [0.0019046140369027853, 0.0019919276237487793], "name" : "TEXCOORD_0"}, {"bufferView" : 0, "byteOffset" : 33780, "componentType" : 5123, "count" : 1188, "type" : "SCALAR", "max" : [1138], "min" : [0]}, {"bufferView" : 7, "byteOffset" : 0, "componentType" : 5126, "count" : 1139, "type" : "VEC3", "max" : [0.0007181167602539062, -0.03737831115722656, 0.047410428524017334], "min" : [-0.0067138671875, -0.05495262145996094, 0.040464550256729126], "name" : "POSITION"}, {"bufferView" : 7, "byteOffset" : 12, "componentType" : 5126, "count" : 1139, "type" : "VEC3", "max" : [0.9946180582046509, 1.0000044107437134, 0.9958880543708801], "min" : [-0.9946180582046509, -1.0000044107437134, -0.9958880543708801], "name" : "NORMAL"}, {"bufferView" : 7, "byteOffset" : 24, "componentType" : 5126, "count" : 1139, "type" : "VEC2", "max" : [0.8262068033218384, 0.9488264322280884], "min" : [0.5250929594039917, 0.15432119369506836], "name" : "TEXCOORD_0"}, {"bufferView" : 0, "byteOffset" : 36156, "componentType" : 5123, "count" : 1188, "type" : "SCALAR", "max" : [1138], "min" : [0]}, {"bufferView" : 8, "byteOffset" : 0, "componentType" : 5126, "count" : 1139, "type" : "VEC3", "max" : [0.0007181167602539062, -0.03737831115722656, -0.037037789821624756], "min" : [-0.0067138671875, -0.05495262145996094, -0.043983668088912964], "name" : "POSITION"}, {"bufferView" : 8, "byteOffset" : 12, "componentType" : 5126, "count" : 1139, "type" : "VEC3", "max" : [0.9946180582046509, 1.0000044107437134, 0.9958880543708801], "min" : [-0.9946181178092957, -1.0000044107437134, -0.9958880543708801], "name" : "NORMAL"}, {"bufferView" : 8, "byteOffset" : 24, "componentType" : 5126, "count" : 1139, "type" : "VEC2", "max" : [0.927639365196228, 0.9473897218704224], "min" : [0.530537486076355, 0.010818958282470703], "name" : "TEXCOORD_0"}, {"bufferView" : 0, "byteOffset" : 38532, "componentType" : 5123, "count" : 132, "type" : "SCALAR", "max" : [131], "min" : [0]}, {"bufferView" : 9, "byteOffset" : 0, "componentType" : 5126, "count" : 132, "type" : "VEC3", "max" : [0.004131317138671875, -0.05211067199707031, 0.14457225799560547], "min" : [-0.06409645080566406, -0.053981781005859375, -0.1412649154663086], "name" : "POSITION"}, {"bufferView" : 9, "byteOffset" : 12, "componentType" : 5126, "count" : 132, "type" : "VEC3", "max" : [1.0000044107437134, 1.0000044107437134, 1.0000042915344238], "min" : [-1.0000044107437134, -1.0000044107437134, -1.0000042915344238], "name" : "NORMAL"}, {"bufferView" : 9, "byteOffset" : 24, "componentType" : 5126, "count" : 132, "type" : "VEC2", "max" : [0.963823676109314, 0.992982029914856], "min" : [0.03870731592178345, 0.2295083999633789], "name" : "TEXCOORD_0"}, {"bufferView" : 0, "byteOffset" : 38796, "componentType" : 5123, "count" : 36, "type" : "SCALAR", "max" : [35], "min" : [0]}, {"bufferView" : 10, "byteOffset" : 0, "componentType" : 5126, "count" : 36, "type" : "VEC3", "max" : [0.05049610137939453, -0.07991790771484375, 0.01580977439880371], "min" : [0.03190875053405762, -0.08318710327148438, -0.012502193450927734], "name" : "POSITION"}, {"bufferView" : 10, "byteOffset" : 12, "componentType" : 5126, "count" : 36, "type" : "VEC3", "max" : [1.0000044107437134, 1.0000044107437134, 1.0000044107437134], "min" : [-1.0000044107437134, -1.0000044107437134, -1.0000044107437134], "name" : "NORMAL"}, {"bufferView" : 10, "byteOffset" : 24, "componentType" : 5126, "count" : 36, "type" : "VEC2", "max" : [0.9628076553344727, 0.99242103099823], "min" : [0.7301732301712036, 0.6396190524101257], "name" : "TEXCOORD_0"}, {"bufferView" : 0, "byteOffset" : 38868, "componentType" : 5123, "count" : 180, "type" : "SCALAR", "max" : [176], "min" : [0]}, {"bufferView" : 11, "byteOffset" : 0, "componentType" : 5126, "count" : 177, "type" : "VEC3", "max" : [0.04927253723144531, -0.06434822082519531, 0.12889313697814941], "min" : [0.0008716583251953125, -0.09428596496582031, -0.125585675239563], "name" : "POSITION"}, {"bufferView" : 11, "byteOffset" : 12, "componentType" : 5126, "count" : 177, "type" : "VEC3", "max" : [1.0000044107437134, 1.0000044107437134, 1.0000044107437134], "min" : [-1.0000044107437134, -1.0000044107437134, -1.0000044107437134], "name" : "NORMAL"}, {"bufferView" : 11, "byteOffset" : 24, "componentType" : 5126, "count" : 177, "type" : "VEC2", "max" : [0.9638351202011108, 0.978844165802002], "min" : [0.2310837209224701, 0.11000120639801025], "name" : "TEXCOORD_0"}, {"bufferView" : 0, "byteOffset" : 39228, "componentType" : 5123, "count" : 1200, "type" : "SCALAR", "max" : [1145], "min" : [0]}, {"bufferView" : 12, "byteOffset" : 0, "componentType" : 5126, "count" : 1146, "type" : "VEC3", "max" : [0.10870666801929474, -0.12841469049453735, 0.2537952661514282], "min" : [-0.0870673656463623, -0.14843779802322388, 0.23377220332622528], "name" : "POSITION"}, {"bufferView" : 12, "byteOffset" : 12, "componentType" : 5126, "count" : 1146, "type" : "VEC3", "max" : [1.0000044107437134, 1.0000044107437134, 1.0000044107437134], "min" : [-1.0000044107437134, -1.0000044107437134, -1.0000044107437134], "name" : "NORMAL"}, {"bufferView" : 12, "byteOffset" : 24, "componentType" : 5126, "count" : 1146, "type" : "VEC2", "max" : [0.65625, 0.9950888752937317], "min" : [0.3437499701976776, 7.450580596923828E-08], "name" : "TEXCOORD_0"}, {"bufferView" : 0, "byteOffset" : 41628, "componentType" : 5123, "count" : 8052, "type" : "SCALAR", "max" : [7464], "min" : [0]}, {"bufferView" : 13, "byteOffset" : 0, "componentType" : 5126, "count" : 7465, "type" : "VEC3", "max" : [0.07957284152507782, -0.05392826348543167, 0.2029595971107483], "min" : [-0.07957284152507782, -0.14520736038684845, -0.2029595971107483], "name" : "POSITION"}, {"bufferView" : 13, "byteOffset" : 12, "componentType" : 5126, "count" : 7465, "type" : "VEC3", "max" : [1.0000044107437134, 1.0000044107437134, 1.0000044107437134], "min" : [-1.0000044107437134, -1.0000044107437134, -1.0000044107437134], "name" : "NORMAL"}, {"bufferView" : 13, "byteOffset" : 24, "componentType" : 5126, "count" : 7465, "type" : "VEC2", "max" : [0.9980080127716064, 0.9980129599571228], "min" : [0.00199203216470778, 0.004482448101043701], "name" : "TEXCOORD_0"}, {"bufferView" : 0, "byteOffset" : 57732, "componentType" : 5123, "count" : 312, "type" : "SCALAR", "max" : [300], "min" : [0]}, {"bufferView" : 14, "byteOffset" : 0, "componentType" : 5126, "count" : 301, "type" : "VEC3", "max" : [0.10442209243774414, 0.19999998807907104, 0.30000007152557373], "min" : [0.10089462995529175, -0.19999998807907104, -0.30000007152557373], "name" : "POSITION"}, {"bufferView" : 14, "byteOffset" : 12, "componentType" : 5126, "count" : 301, "type" : "VEC3", "max" : [0.958148181438446, 0.9984070658683777, 0.9984076023101807], "min" : [-0.9581629633903503, -0.9984070658683777, -0.9984076023101807], "name" : "NORMAL"}, {"bufferView" : 14, "byteOffset" : 24, "componentType" : 5126, "count" : 301, "type" : "VEC2", "max" : [0.08701261132955551, 0.9980079531669617], "min" : [0.0001736778940539807, 0.00199204683303833], "name" : "TEXCOORD_0"}], "asset" : {"generator" : "Aspose.3D 23.7.0", "version" : "2.0"}, "buffers" : [{"uri" : "data:application/octet-stream;base64,", "byteLength" : 992112}], "bufferViews" : [{"buffer" : 0, "byteOffset" : 0, "byteLength" : 58356, "target" : 34963}, {"buffer" : 0, "byteOffset" : 58360, "byteLength" : 18048, "byteStride" : 32, "target" : 34962}, {"buffer" : 0, "byteOffset" : 76412, "byteLength" : 384, "byteStride" : 32, "target" : 34962}, {"buffer" : 0, "byteOffset" : 76800, "byteLength" : 38400, "byteStride" : 32, "target" : 34962}, {"buffer" : 0, "byteOffset" : 115204, "byteLength" : 38400, "byteStride" : 32, "target" : 34962}, {"buffer" : 0, "byteOffset" : 153608, "byteLength" : 38400, "byteStride" : 32, "target" : 34962}, {"buffer" : 0, "byteOffset" : 192012, "byteLength" : 406848, "byteStride" : 32, "target" : 34962}, {"buffer" : 0, "byteOffset" : 598864, "byteLength" : 38016, "byteStride" : 32, "target" : 34962}, {"buffer" : 0, "byteOffset" : 636884, "byteLength" : 38016, "byteStride" : 32, "target" : 34962}, {"buffer" : 0, "byteOffset" : 674904, "byteLength" : 4224, "byteStride" : 32, "target" : 34962}, {"buffer" : 0, "byteOffset" : 679132, "byteLength" : 1152, "byteStride" : 32, "target" : 34962}, {"buffer" : 0, "byteOffset" : 680288, "byteLength" : 5760, "byteStride" : 32, "target" : 34962}, {"buffer" : 0, "byteOffset" : 686052, "byteLength" : 38400, "byteStride" : 32, "target" : 34962}, {"buffer" : 0, "byteOffset" : 724456, "byteLength" : 257664, "byteStride" : 32, "target" : 34962}, {"buffer" : 0, "byteOffset" : 982124, "byteLength" : 9984, "byteStride" : 32, "target" : 34962}], "materials" : [{"pbrMetallicRoughness" : {"baseColorFactor" : [0.03211009129881859, 0.03211009129881859, 0.03211009129881859, 1], "metallicFactor" : 1, "roughnessFactor" : 0.6299999952316284}, "emissiveFactor" : [0, 0, 0], "alphaMode" : "OPAQUE", "doubleSided" : false}, {"pbrMetallicRoughness" : {"baseColorFactor" : [1, 1, 1, 0.09999999999999998], "metallicFactor" : 1, "roughnessFactor" : 0}, "emissiveFactor" : [0, 0, 0], "alphaMode" : "BLEND", "doubleSided" : false}, {"pbrMetallicRoughness" : {"baseColorFactor" : [0.46778379610254284, 0.46778379610254284, 0.46778379610254284, 1], "metallicFactor" : 0.9264069199562073, "roughnessFactor" : 0.33000001311302185}, "emissiveFactor" : [0, 0, 0], "alphaMode" : "OPAQUE", "doubleSided" : false}, {"pbrMetallicRoughness" : {"baseColorFactor" : [0.46778379610254284, 0.46778379610254284, 0.46778379610254284, 1], "metallicFactor" : 0.9264069199562073, "roughnessFactor" : 0.33000001311302185}, "emissiveFactor" : [0, 0, 0], "alphaMode" : "OPAQUE", "doubleSided" : false}, {"pbrMetallicRoughness" : {"baseColorFactor" : [0.46778379610254284, 0.46778379610254284, 0.46778379610254284, 1], "metallicFactor" : 0.9264069199562073, "roughnessFactor" : 0.33000001311302185}, "emissiveFactor" : [0, 0, 0], "alphaMode" : "OPAQUE", "doubleSided" : false}, {"pbrMetallicRoughness" : {"baseColorFactor" : [0.25818285291079235, 0.25818285291079235, 0.25818285291079235, 1], "metallicFactor" : 1, "roughnessFactor" : 0.33000001311302185}, "emissiveFactor" : [0, 0, 0], "alphaMode" : "OPAQUE", "doubleSided" : false}, {"pbrMetallicRoughness" : {"baseColorFactor" : [0.25818285291079235, 0.25818285291079235, 0.25818285291079235, 1], "metallicFactor" : 1, "roughnessFactor" : 0.33000001311302185}, "emissiveFactor" : [0, 0, 0], "alphaMode" : "OPAQUE", "doubleSided" : false}, {"pbrMetallicRoughness" : {"baseColorFactor" : [0.25818285291079235, 0.25818285291079235, 0.25818285291079235, 1], "metallicFactor" : 1, "roughnessFactor" : 0.33000001311302185}, "emissiveFactor" : [0, 0, 0], "alphaMode" : "OPAQUE", "doubleSided" : false}, {"pbrMetallicRoughness" : {"baseColorFactor" : [0.25818285291079235, 0.25818285291079235, 0.25818285291079235, 1], "metallicFactor" : 1, "roughnessFactor" : 0.33000001311302185}, "emissiveFactor" : [0, 0, 0], "alphaMode" : "OPAQUE", "doubleSided" : false}, {"pbrMetallicRoughness" : {"baseColorFactor" : [0.25818285291079235, 0.25818285291079235, 0.25818285291079235, 1], "metallicFactor" : 1, "roughnessFactor" : 0.33000001311302185}, "emissiveFactor" : [0, 0, 0], "alphaMode" : "OPAQUE", "doubleSided" : false}, {"pbrMetallicRoughness" : {"baseColorFactor" : [0.19461783043107173, 0.1844749944900301, 0.1412632911304446, 1], "metallicFactor" : 0, "roughnessFactor" : 1}, "emissiveFactor" : [0, 0, 0], "alphaMode" : "OPAQUE", "doubleSided" : false}, {"pbrMetallicRoughness" : {"baseColorFactor" : [0.46778379610254284, 0.46778379610254284, 0.46778379610254284, 1], "metallicFactor" : 0.9264069199562073, "roughnessFactor" : 0.33000001311302185}, "emissiveFactor" : [0, 0, 0], "alphaMode" : "OPAQUE", "doubleSided" : false}, {"pbrMetallicRoughness" : {"baseColorFactor" : [0.41254261347374327, 0.41254261347374327, 0.41254261347374327, 1], "metallicFactor" : 1, "roughnessFactor" : 0.4}, "emissiveFactor" : [0, 0, 0], "alphaMode" : "OPAQUE", "doubleSided" : false}, {"pbrMetallicRoughness" : {"baseColorFactor" : [0.04970656597728775, 0.23839757380151394, 0.1912016827303171, 1], "metallicFactor" : 0.9264069199562073, "roughnessFactor" : 0.33000001311302185}, "emissiveFactor" : [0, 0, 0], "alphaMode" : "OPAQUE", "doubleSided" : false}], "meshes" : [{"primitives" : [{"attributes" : {"POSITION" : 1, "NORMAL" : 2, "TEXCOORD_0" : 3}, "indices" : 0, "material" : 0, "mode" : 4}]}, {"primitives" : [{"attributes" : {"POSITION" : 5, "NORMAL" : 6, "TEXCOORD_0" : 7}, "indices" : 4, "material" : 1, "mode" : 4}]}, {"primitives" : [{"attributes" : {"POSITION" : 9, "NORMAL" : 10, "TEXCOORD_0" : 11}, "indices" : 8, "material" : 2, "mode" : 4}]}, {"primitives" : [{"attributes" : {"POSITION" : 13, "NORMAL" : 14, "TEXCOORD_0" : 15}, "indices" : 12, "material" : 3, "mode" : 4}]}, {"primitives" : [{"attributes" : {"POSITION" : 17, "NORMAL" : 18, "TEXCOORD_0" : 19}, "indices" : 16, "material" : 4, "mode" : 4}]}, {"primitives" : [{"attributes" : {"POSITION" : 21, "NORMAL" : 22, "TEXCOORD_0" : 23}, "indices" : 20, "material" : 5, "mode" : 4}]}, {"primitives" : [{"attributes" : {"POSITION" : 25, "NORMAL" : 26, "TEXCOORD_0" : 27}, "indices" : 24, "material" : 6, "mode" : 4}]}, {"primitives" : [{"attributes" : {"POSITION" : 29, "NORMAL" : 30, "TEXCOORD_0" : 31}, "indices" : 28, "material" : 7, "mode" : 4}]}, {"primitives" : [{"attributes" : {"POSITION" : 33, "NORMAL" : 34, "TEXCOORD_0" : 35}, "indices" : 32, "material" : 8, "mode" : 4}]}, {"primitives" : [{"attributes" : {"POSITION" : 37, "NORMAL" : 38, "TEXCOORD_0" : 39}, "indices" : 36, "material" : 9, "mode" : 4}]}, {"primitives" : [{"attributes" : {"POSITION" : 41, "NORMAL" : 42, "TEXCOORD_0" : 43}, "indices" : 40, "material" : 10, "mode" : 4}]}, {"primitives" : [{"attributes" : {"POSITION" : 45, "NORMAL" : 46, "TEXCOORD_0" : 47}, "indices" : 44, "material" : 11, "mode" : 4}]}, {"primitives" : [{"attributes" : {"POSITION" : 49, "NORMAL" : 50, "TEXCOORD_0" : 51}, "indices" : 48, "material" : 12, "mode" : 4}]}, {"primitives" : [{"attributes" : {"POSITION" : 53, "NORMAL" : 54, "TEXCOORD_0" : 55}, "indices" : 52, "material" : 13, "mode" : 4}]}], "nodes" : [{"mesh" : 0, "name" : "mesh_0"}, {"mesh" : 1, "name" : "mesh_1"}, {"mesh" : 2, "name" : "mesh_2"}, {"mesh" : 3, "name" : "mesh_3"}, {"mesh" : 4, "name" : "mesh_4"}, {"mesh" : 5, "name" : "mesh_5"}, {"mesh" : 6, "name" : "mesh_6"}, {"mesh" : 7, "name" : "mesh_7"}, {"mesh" : 8, "name" : "mesh_8"}, {"mesh" : 9, "name" : "mesh_9"}, {"mesh" : 10, "name" : "mesh_10"}, {"mesh" : 11, "name" : "mesh_11"}, {"mesh" : 12, "name" : "mesh_12"}, {"mesh" : 13, "name" : "mesh_13"}, {"children" : [0, 1, 2, 3, 4, 5, 6, 7, 8, 9, 10, 11, 12, 13], "name" : "defaultScene"}], "scene" : 0, "scenes" : [{"nodes" : [14]}]}