{"extensionsUsed" : ["KHR_materials_variants"], "accessors" : [{"bufferView" : 0, "byteOffset" : 0, "componentType" : 5123, "count" : 444, "type" : "SCALAR", "max" : [413], "min" : [0]}, {"bufferView" : 1, "byteOffset" : 0, "componentType" : 5126, "count" : 414, "type" : "VEC3", "max" : [0.20148710906505585, 0.11805878579616547, 0.6266552209854126], "min" : [-0.20148710906505585, -0.11805877089500427, -0.6266552209854126], "name" : "POSITION"}, {"bufferView" : 1, "byteOffset" : 12, "componentType" : 5126, "count" : 414, "type" : "VEC3", "max" : [1.0000044107437134, 1.0000044107437134, 1.0000044107437134], "min" : [-1.0000044107437134, -1.0000039339065552, -1.0000044107437134], "name" : "NORMAL"}, {"bufferView" : 1, "byteOffset" : 24, "componentType" : 5126, "count" : 414, "type" : "VEC2", "max" : [0.8805004954338074, 0.9980079531669617], "min" : [0.0017574859084561467, 0.0019919872283935547], "name" : "TEXCOORD_0"}, {"bufferView" : 0, "byteOffset" : 888, "componentType" : 5123, "count" : 624, "type" : "SCALAR", "max" : [598], "min" : [0]}, {"bufferView" : 2, "byteOffset" : 0, "componentType" : 5126, "count" : 599, "type" : "VEC3", "max" : [0.22472967207431793, 0.16619376838207245, 0.6432318687438965], "min" : [-0.22472967207431793, 0.11805878579616547, -0.6432318687438965], "name" : "POSITION"}, {"bufferView" : 2, "byteOffset" : 12, "componentType" : 5126, "count" : 599, "type" : "VEC3", "max" : [1.0000044107437134, 1.0000044107437134, 1.0000044107437134], "min" : [-1.0000044107437134, -1.0000044107437134, -1.0000044107437134], "name" : "NORMAL"}, {"bufferView" : 2, "byteOffset" : 24, "componentType" : 5126, "count" : 599, "type" : "VEC2", "max" : [0.9106178283691406, 0.9980079531669617], "min" : [0.0018176004523411393, 0.0019919872283935547], "name" : "TEXCOORD_0"}, {"bufferView" : 0, "byteOffset" : 2136, "componentType" : 5123, "count" : 828, "type" : "SCALAR", "max" : [780], "min" : [0]}, {"bufferView" : 3, "byteOffset" : 0, "componentType" : 5126, "count" : 781, "type" : "VEC3", "max" : [0.06501218676567078, -0.03913772106170654, 0.13169912993907928], "min" : [-0.06501218676567078, -0.12242881208658218, -0.13169912993907928], "name" : "POSITION"}, {"bufferView" : 3, "byteOffset" : 12, "componentType" : 5126, "count" : 781, "type" : "VEC3", "max" : [1.0000044107437134, 1.0000044107437134, 1.0000044107437134], "min" : [-1.0000044107437134, -1.0000044107437134, -1.0000044107437134], "name" : "NORMAL"}, {"bufferView" : 3, "byteOffset" : 24, "componentType" : 5126, "count" : 781, "type" : "VEC2", "max" : [0.9364781379699707, 0.9980079531669617], "min" : [0.0018692179583013058, 0.0019919872283935547], "name" : "TEXCOORD_0"}, {"bufferView" : 0, "byteOffset" : 3792, "componentType" : 5123, "count" : 1200, "type" : "SCALAR", "max" : [1145], "min" : [0]}, {"bufferView" : 4, "byteOffset" : 0, "componentType" : 5126, "count" : 1146, "type" : "VEC3", "max" : [0.4770679473876953, 0.5504050254821777, 0.4770679473876953], "min" : [-0.4770677089691162, -0.9999995231628418, -0.4770679473876953], "name" : "POSITION"}, {"bufferView" : 4, "byteOffset" : 12, "componentType" : 5126, "count" : 1146, "type" : "VEC3", "max" : [1.0000044107437134, 1.0000044107437134, 1.0000044107437134], "min" : [-1.0000044107437134, -1.0000044107437134, -1.0000044107437134], "name" : "NORMAL"}, {"bufferView" : 4, "byteOffset" : 24, "componentType" : 5126, "count" : 1146, "type" : "VEC2", "max" : [0.65625, 0.9950888752937317], "min" : [0.3437499701976776, 7.450580596923828E-08], "name" : "TEXCOORD_0"}, {"bufferView" : 0, "byteOffset" : 6192, "componentType" : 5123, "count" : 1200, "type" : "SCALAR", "max" : [1145], "min" : [0]}, {"bufferView" : 5, "byteOffset" : 0, "componentType" : 5126, "count" : 1146, "type" : "VEC3", "max" : [0.4770679473876953, 0.5504050254821777, 0.4770679473876953], "min" : [-0.4770677089691162, -0.9999995231628418, -0.4770679473876953], "name" : "POSITION"}, {"bufferView" : 5, "byteOffset" : 12, "componentType" : 5126, "count" : 1146, "type" : "VEC3", "max" : [1.0000044107437134, 1.0000044107437134, 1.0000044107437134], "min" : [-1.0000044107437134, -1.0000044107437134, -1.0000044107437134], "name" : "NORMAL"}, {"bufferView" : 5, "byteOffset" : 24, "componentType" : 5126, "count" : 1146, "type" : "VEC2", "max" : [0.65625, 0.9950888752937317], "min" : [0.3437499701976776, 7.450580596923828E-08], "name" : "TEXCOORD_0"}, {"bufferView" : 0, "byteOffset" : 8592, "componentType" : 5123, "count" : 1200, "type" : "SCALAR", "max" : [1145], "min" : [0]}, {"bufferView" : 6, "byteOffset" : 0, "componentType" : 5126, "count" : 1146, "type" : "VEC3", "max" : [0.4770679473876953, 0.5504050254821777, 0.4770679473876953], "min" : [-0.4770677089691162, -0.9999995231628418, -0.4770679473876953], "name" : "POSITION"}, {"bufferView" : 6, "byteOffset" : 12, "componentType" : 5126, "count" : 1146, "type" : "VEC3", "max" : [1.0000044107437134, 1.0000044107437134, 1.0000044107437134], "min" : [-1.0000044107437134, -1.0000044107437134, -1.0000044107437134], "name" : "NORMAL"}, {"bufferView" : 6, "byteOffset" : 24, "componentType" : 5126, "count" : 1146, "type" : "VEC2", "max" : [0.65625, 0.9950888752937317], "min" : [0.3437499701976776, 7.450580596923828E-08], "name" : "TEXCOORD_0"}, {"bufferView" : 0, "byteOffset" : 10992, "componentType" : 5123, "count" : 1200, "type" : "SCALAR", "max" : [1145], "min" : [0]}, {"bufferView" : 7, "byteOffset" : 0, "componentType" : 5126, "count" : 1146, "type" : "VEC3", "max" : [0.4770679473876953, 0.5504050254821777, 0.4770679473876953], "min" : [-0.4770677089691162, -0.9999995231628418, -0.4770679473876953], "name" : "POSITION"}, {"bufferView" : 7, "byteOffset" : 12, "componentType" : 5126, "count" : 1146, "type" : "VEC3", "max" : [1.0000044107437134, 1.0000044107437134, 1.0000044107437134], "min" : [-1.0000044107437134, -1.0000044107437134, -1.0000044107437134], "name" : "NORMAL"}, {"bufferView" : 7, "byteOffset" : 24, "componentType" : 5126, "count" : 1146, "type" : "VEC2", "max" : [0.65625, 0.9950888752937317], "min" : [0.3437499701976776, 7.450580596923828E-08], "name" : "TEXCOORD_0"}, {"bufferView" : 0, "byteOffset" : 13392, "componentType" : 5123, "count" : 288, "type" : "SCALAR", "max" : [273], "min" : [0]}, {"bufferView" : 8, "byteOffset" : 0, "componentType" : 5126, "count" : 274, "type" : "VEC3", "max" : [0.5, 0.5, 0.5], "min" : [0.4820995330810547, -0.5, -0.5], "name" : "POSITION"}, {"bufferView" : 8, "byteOffset" : 12, "componentType" : 5126, "count" : 274, "type" : "VEC3", "max" : [0.43059077858924866, 1.0000028610229492, 1.0000032186508179], "min" : [-0.43060293793678284, -1.0000028610229492, -1.0000032186508179], "name" : "NORMAL"}, {"bufferView" : 8, "byteOffset" : 24, "componentType" : 5126, "count" : 274, "type" : "VEC2", "max" : [0.09369224309921265, 0.9980079531669617], "min" : [0.00018701041699387133, 0.0019919276237487793], "name" : "TEXCOORD_0"}, {"bufferView" : 0, "byteOffset" : 13968, "componentType" : 5123, "count" : 84, "type" : "SCALAR", "max" : [82], "min" : [0]}, {"bufferView" : 9, "byteOffset" : 0, "componentType" : 5126, "count" : 83, "type" : "VEC3", "max" : [0.5, 0.4993007779121399, 0.499404639005661], "min" : [0.4820995330810547, -0.4993007779121399, -0.499404639005661], "name" : "POSITION"}, {"bufferView" : 9, "byteOffset" : 12, "componentType" : 5126, "count" : 83, "type" : "VEC3", "max" : [1.0000044107437134, 4.959785201208433E-06, 0], "min" : [-1.0000044107437134, -5.260160378384171E-06, 0], "name" : "NORMAL"}, {"bufferView" : 9, "byteOffset" : 24, "componentType" : 5126, "count" : 83, "type" : "VEC2", "max" : [0.9144582152366638, 0.9980079531669617], "min" : [0.0018252659356221557, 0.0019919276237487793], "name" : "TEXCOORD_0"}, {"bufferView" : 0, "byteOffset" : 14136, "componentType" : 5123, "count" : 84, "type" : "SCALAR", "max" : [82], "min" : [0]}, {"bufferView" : 10, "byteOffset" : 0, "componentType" : 5126, "count" : 83, "type" : "VEC3", "max" : [0.5, 0.4993007779121399, 0.499404639005661], "min" : [0.4820995330810547, -0.4993007779121399, -0.499404639005661], "name" : "POSITION"}, {"bufferView" : 10, "byteOffset" : 12, "componentType" : 5126, "count" : 83, "type" : "VEC3", "max" : [1.0000044107437134, 4.959785201208433E-06, 0], "min" : [-1.0000044107437134, -5.260160378384171E-06, 0], "name" : "NORMAL"}, {"bufferView" : 10, "byteOffset" : 24, "componentType" : 5126, "count" : 83, "type" : "VEC2", "max" : [0.9144582152366638, 0.9980079531669617], "min" : [0.0018252659356221557, 0.0019919276237487793], "name" : "TEXCOORD_0"}, {"bufferView" : 0, "byteOffset" : 14304, "componentType" : 5123, "count" : 288, "type" : "SCALAR", "max" : [273], "min" : [0]}, {"bufferView" : 11, "byteOffset" : 0, "componentType" : 5126, "count" : 274, "type" : "VEC3", "max" : [0.5, 0.5, 0.5], "min" : [0.4820995330810547, -0.5, -0.5], "name" : "POSITION"}, {"bufferView" : 11, "byteOffset" : 12, "componentType" : 5126, "count" : 274, "type" : "VEC3", "max" : [0.43059077858924866, 1.0000028610229492, 1.0000032186508179], "min" : [-0.43060293793678284, -1.0000028610229492, -1.0000032186508179], "name" : "NORMAL"}, {"bufferView" : 11, "byteOffset" : 24, "componentType" : 5126, "count" : 274, "type" : "VEC2", "max" : [0.09369224309921265, 0.9980079531669617], "min" : [0.00018701041699387133, 0.0019919276237487793], "name" : "TEXCOORD_0"}], "asset" : {"generator" : "Aspose.3D 23.7.0", "version" : "2.0"}, "buffers" : [{"uri" : "data:application/octet-stream;base64,", "byteLength" : 253008}], "bufferViews" : [{"buffer" : 0, "byteOffset" : 0, "byteLength" : 14880, "target" : 34963}, {"buffer" : 0, "byteOffset" : 14884, "byteLength" : 14208, "byteStride" : 32, "target" : 34962}, {"buffer" : 0, "byteOffset" : 29096, "byteLength" : 19968, "byteStride" : 32, "target" : 34962}, {"buffer" : 0, "byteOffset" : 49068, "byteLength" : 26496, "byteStride" : 32, "target" : 34962}, {"buffer" : 0, "byteOffset" : 75568, "byteLength" : 38400, "byteStride" : 32, "target" : 34962}, {"buffer" : 0, "byteOffset" : 113972, "byteLength" : 38400, "byteStride" : 32, "target" : 34962}, {"buffer" : 0, "byteOffset" : 152376, "byteLength" : 38400, "byteStride" : 32, "target" : 34962}, {"buffer" : 0, "byteOffset" : 190780, "byteLength" : 38400, "byteStride" : 32, "target" : 34962}, {"buffer" : 0, "byteOffset" : 229184, "byteLength" : 9216, "byteStride" : 32, "target" : 34962}, {"buffer" : 0, "byteOffset" : 238404, "byteLength" : 2688, "byteStride" : 32, "target" : 34962}, {"buffer" : 0, "byteOffset" : 241096, "byteLength" : 2688, "byteStride" : 32, "target" : 34962}, {"buffer" : 0, "byteOffset" : 243788, "byteLength" : 9216, "byteStride" : 32, "target" : 34962}], "materials" : [{"name" : " BIO-20-259 White", "pbrMetallicRoughness" : {"baseColorFactor" : [0.450785782828426, 0.450785782828426, 0.450785782828426, 1], "metallicFactor" : 1, "roughnessFactor" : 0.62}, "emissiveFactor" : [0, 0, 0], "alphaMode" : "OPAQUE", "doubleSided" : false}, {"pbrMetallicRoughness" : {"baseColorFactor" : [0.03211009129881859, 0.03211009129881859, 0.03211009129881859, 1], "metallicFactor" : 1, "roughnessFactor" : 0.6299999952316284}, "emissiveFactor" : [0, 0, 0], "alphaMode" : "OPAQUE", "doubleSided" : false}, {"name" : " BIO-20-259 White", "pbrMetallicRoughness" : {"baseColorFactor" : [0.3613067797729723, 0.3613067797729723, 0.3613067797729723, 1], "metallicFactor" : 0.9264069199562073, "roughnessFactor" : 0.4}, "emissiveFactor" : [0, 0, 0], "alphaMode" : "OPAQUE", "doubleSided" : false}, {"pbrMetallicRoughness" : {"baseColorFactor" : [0.39086294174194336, 0.39086294174194336, 0.39086294174194336, 1], "metallicFactor" : 0.9264069199562073, "roughnessFactor" : 0.33000001311302185}, "emissiveFactor" : [0, 0, 0], "alphaMode" : "OPAQUE", "doubleSided" : false}, {"pbrMetallicRoughness" : {"baseColorFactor" : [0.39086294174194336, 0.39086294174194336, 0.39086294174194336, 1], "metallicFactor" : 0.9264069199562073, "roughnessFactor" : 0.33000001311302185}, "emissiveFactor" : [0, 0, 0], "alphaMode" : "OPAQUE", "doubleSided" : false}, {"pbrMetallicRoughness" : {"baseColorFactor" : [0.39086294174194336, 0.39086294174194336, 0.39086294174194336, 1], "metallicFactor" : 0.9264069199562073, "roughnessFactor" : 0.33000001311302185}, "emissiveFactor" : [0, 0, 0], "alphaMode" : "OPAQUE", "doubleSided" : false}, {"pbrMetallicRoughness" : {"baseColorFactor" : [0.39086294174194336, 0.39086294174194336, 0.39086294174194336, 1], "metallicFactor" : 0.9264069199562073, "roughnessFactor" : 0.33000001311302185}, "emissiveFactor" : [0, 0, 0], "alphaMode" : "OPAQUE", "doubleSided" : false}, {"name" : " BIO-20-259 White", "pbrMetallicRoughness" : {"baseColorFactor" : [0.051269458367115384, 0.25818285291079235, 0.21223075740342195, 1], "metallicFactor" : 1, "roughnessFactor" : 0.34}, "emissiveFactor" : [0, 0, 0], "alphaMode" : "OPAQUE", "doubleSided" : false}, {"name" : " BIO-20-259 White", "pbrMetallicRoughness" : {"baseColorFactor" : [1, 1, 1, 0.09999999999999998], "metallicFactor" : 1, "roughnessFactor" : 0}, "emissiveFactor" : [0, 0, 0], "alphaMode" : "BLEND", "doubleSided" : false}, {"name" : " BIO-20-259 White", "pbrMetallicRoughness" : {"baseColorFactor" : [1, 1, 1, 0.09999999999999998], "metallicFactor" : 1, "roughnessFactor" : 0}, "emissiveFactor" : [0, 0, 0], "alphaMode" : "BLEND", "doubleSided" : false}, {"name" : " BIO-20-259 White", "pbrMetallicRoughness" : {"baseColorFactor" : [0.051269458367115384, 0.25818285291079235, 0.21223075740342195, 1], "metallicFactor" : 1, "roughnessFactor" : 0.34}, "emissiveFactor" : [0, 0, 0], "alphaMode" : "OPAQUE", "doubleSided" : false}], "meshes" : [{"primitives" : [{"attributes" : {"POSITION" : 1, "NORMAL" : 2, "TEXCOORD_0" : 3}, "indices" : 0, "material" : 0, "mode" : 4}]}, {"primitives" : [{"attributes" : {"POSITION" : 5, "NORMAL" : 6, "TEXCOORD_0" : 7}, "indices" : 4, "material" : 1, "mode" : 4}]}, {"primitives" : [{"attributes" : {"POSITION" : 9, "NORMAL" : 10, "TEXCOORD_0" : 11}, "indices" : 8, "material" : 2, "mode" : 4}]}, {"primitives" : [{"attributes" : {"POSITION" : 13, "NORMAL" : 14, "TEXCOORD_0" : 15}, "indices" : 12, "material" : 3, "mode" : 4}]}, {"primitives" : [{"attributes" : {"POSITION" : 17, "NORMAL" : 18, "TEXCOORD_0" : 19}, "indices" : 16, "material" : 4, "mode" : 4}]}, {"primitives" : [{"attributes" : {"POSITION" : 21, "NORMAL" : 22, "TEXCOORD_0" : 23}, "indices" : 20, "material" : 5, "mode" : 4}]}, {"primitives" : [{"attributes" : {"POSITION" : 25, "NORMAL" : 26, "TEXCOORD_0" : 27}, "indices" : 24, "material" : 6, "mode" : 4}]}, {"primitives" : [{"attributes" : {"POSITION" : 29, "NORMAL" : 30, "TEXCOORD_0" : 31}, "indices" : 28, "material" : 7, "mode" : 4}]}, {"primitives" : [{"attributes" : {"POSITION" : 33, "NORMAL" : 34, "TEXCOORD_0" : 35}, "indices" : 32, "material" : 8, "mode" : 4}]}, {"primitives" : [{"attributes" : {"POSITION" : 37, "NORMAL" : 38, "TEXCOORD_0" : 39}, "indices" : 36, "material" : 9, "mode" : 4}]}, {"primitives" : [{"attributes" : {"POSITION" : 41, "NORMAL" : 42, "TEXCOORD_0" : 43}, "indices" : 40, "material" : 10, "mode" : 4}]}], "nodes" : [{"matrix" : [0.3495735457559452, 0, 0, 0, 0, 0.3495735457559452, 0, 0, 0, 0, 0.3495735457559452, 0, 0, -0.10581867405044201, 0, 1], "mesh" : 0, "name" : "mesh_0"}, {"matrix" : [0.3495735457559452, 0, 0, 0, 0, 0.3495735457559452, 0, 0, 0, 0, 0.3495735457559452, 0, 0, -0.10581867405044201, 0, 1], "mesh" : 1, "name" : "mesh_1"}, {"mesh" : 2, "name" : "mesh_2"}, {"matrix" : [-9.319462878526E-18, 0.02098556477351143, 0, 0, 0.02098556477351143, 9.319462878526E-18, 2.5699904728180216E-18, 0, 2.5699904728180224E-18, 1.2933352831098754E-33, -0.02098556477351143, 0, 0.08792619894569495, -0.08043573724044967, 0.17296840067383937, 1], "mesh" : 3, "name" : "mesh_3"}, {"matrix" : [-9.319462878526E-18, 0.02098556477351143, 0, 0, 0.02098556477351143, 9.319462878526E-18, 2.5699904728180216E-18, 0, 2.5699904728180224E-18, 1.2933352831098754E-33, -0.02098556477351143, 0, 0.08792619894569495, -0.08043573724044967, -0.17274284101352974, 1], "mesh" : 4, "name" : "mesh_4"}, {"matrix" : [-4.659731439263E-18, 0.020985564773511434, 0, 0, -0.020985564773511434, -4.659731439263E-18, 0, 0, 0, 0, 0.02098556477351143, 0, -0.08774350710986885, -0.08043573724044967, -0.17274284101352974, 1], "mesh" : 5, "name" : "mesh_5"}, {"matrix" : [-4.659731439263E-18, 0.020985564773511434, 0, 0, -0.020985564773511434, -4.659731439263E-18, 0, 0, 0, 0, 0.02098556477351143, 0, -0.08774350710986885, -0.08043573724044967, 0.17296840067383937, 1], "mesh" : 6, "name" : "mesh_6"}, {"matrix" : [0.19, 0, 0, 0, 0, 0.4, 0, 0, 0, 0, 0.47, 0, 0, 0, 0, 1], "mesh" : 7, "name" : "mesh_7"}, {"matrix" : [0.19, 0, 0, 0, 0, 0.4, 0, 0, 0, 0, 0.47, 0, 0, 0, 0, 1], "mesh" : 8, "name" : "mesh_8"}, {"matrix" : [0.19, 0, 0, 0, 0, 0.4, 0, 0, 0, 0, 0.47, 0, -0.18639162927807465, 0, 0, 1], "mesh" : 9, "name" : "mesh_9"}, {"matrix" : [0.19, 0, 0, 0, 0, 0.4, 0, 0, 0, 0, 0.47, 0, -0.18639162927807465, 0, 0, 1], "mesh" : 10, "name" : "mesh_10"}, {"children" : [0, 1, 2, 3, 4, 5, 6, 7, 8, 9, 10], "name" : "defaultScene"}], "scene" : 0, "scenes" : [{"nodes" : [11]}], "extensions" : {"KHR_materials_variants" : {"variants" : [{"name" : "BIO-20-259 White"}]}}}