{"accessors" : [{"bufferView" : 0, "byteOffset" : 0, "componentType" : 5123, "count" : 16248, "type" : "SCALAR", "max" : [15492], "min" : [0]}, {"bufferView" : 1, "byteOffset" : 0, "componentType" : 5126, "count" : 15493, "type" : "VEC3", "max" : [16.20712661743164, -17.516422271728516, 8.28525161743164], "min" : [-16.20712661743164, -24.592437744140625, -6.736996650695801], "name" : "POSITION"}, {"bufferView" : 1, "byteOffset" : 12, "componentType" : 5126, "count" : 15493, "type" : "VEC3", "max" : [1.0000044107437134, 1.0000044107437134, 1.0000044107437134], "min" : [-1.0000044107437134, -1.0000044107437134, -1.0000044107437134], "name" : "NORMAL"}, {"bufferView" : 1, "byteOffset" : 24, "componentType" : 5126, "count" : 15493, "type" : "VEC2", "max" : [0.9638351202011108, 0.994200587272644], "min" : [0.03870731592178345, 0.010818958282470703], "name" : "TEXCOORD_0"}, {"bufferView" : 0, "byteOffset" : 32496, "componentType" : 5123, "count" : 420, "type" : "SCALAR", "max" : [408], "min" : [0]}, {"bufferView" : 2, "byteOffset" : 0, "componentType" : 5126, "count" : 409, "type" : "VEC3", "max" : [22.7076473236084, -18.797006607055664, 9.797294616699219], "min" : [-22.709455490112305, -29.522600173950195, -8.171514511108398], "name" : "POSITION"}, {"bufferView" : 2, "byteOffset" : 12, "componentType" : 5126, "count" : 409, "type" : "VEC3", "max" : [1.0000044107437134, 1.0000044107437134, 1.0000044107437134], "min" : [-1.0000044107437134, -1.0000044107437134, -1.0000044107437134], "name" : "NORMAL"}, {"bufferView" : 2, "byteOffset" : 24, "componentType" : 5126, "count" : 409, "type" : "VEC2", "max" : [0.9753024578094482, 0.9926588535308838], "min" : [0.051126718521118164, 0.06655585765838623], "name" : "TEXCOORD_0"}, {"bufferView" : 0, "byteOffset" : 33336, "componentType" : 5123, "count" : 276, "type" : "SCALAR", "max" : [261], "min" : [0]}, {"bufferView" : 3, "byteOffset" : 0, "componentType" : 5126, "count" : 262, "type" : "VEC3", "max" : [18.09745216369629, -7.679466247558594, 11.179474830627441], "min" : [-18.09745216369629, -22.81707763671875, 10.853567123413086], "name" : "POSITION"}, {"bufferView" : 3, "byteOffset" : 12, "componentType" : 5126, "count" : 262, "type" : "VEC3", "max" : [0.9997720122337341, 0.9997718334197998, 1.0000042915344238], "min" : [-0.9997720122337341, -0.9997720122337341, -1.0000042915344238], "name" : "NORMAL"}, {"bufferView" : 3, "byteOffset" : 24, "componentType" : 5126, "count" : 262, "type" : "VEC2", "max" : [0.9859355688095093, 0.990528404712677], "min" : [0.07789945602416992, 0.41253089904785156], "name" : "TEXCOORD_0"}, {"bufferView" : 0, "byteOffset" : 33888, "componentType" : 5123, "count" : 480, "type" : "SCALAR", "max" : [439], "min" : [0]}, {"bufferView" : 4, "byteOffset" : 0, "componentType" : 5126, "count" : 440, "type" : "VEC3", "max" : [16.18606948852539, -19.560949325561523, 12.791261672973633], "min" : [14.186068534851074, -21.560949325561523, 9.762493133544922], "name" : "POSITION"}, {"bufferView" : 4, "byteOffset" : 12, "componentType" : 5126, "count" : 440, "type" : "VEC3", "max" : [1.0000044107437134, 1.0000044107437134, 1.0000044107437134], "min" : [-1.0000044107437134, -1.0000044107437134, -1.0000044107437134], "name" : "NORMAL"}, {"bufferView" : 4, "byteOffset" : 24, "componentType" : 5126, "count" : 440, "type" : "VEC2", "max" : [0.7929054498672485, 0.5889120697975159], "min" : [0.01050904393196106, 0.22460830211639404], "name" : "TEXCOORD_0"}, {"bufferView" : 0, "byteOffset" : 34848, "componentType" : 5123, "count" : 480, "type" : "SCALAR", "max" : [439], "min" : [0]}, {"bufferView" : 5, "byteOffset" : 0, "componentType" : 5126, "count" : 440, "type" : "VEC3", "max" : [-14.438282012939453, -19.560949325561523, 12.791261672973633], "min" : [-16.438282012939453, -21.560949325561523, 9.762493133544922], "name" : "POSITION"}, {"bufferView" : 5, "byteOffset" : 12, "componentType" : 5126, "count" : 440, "type" : "VEC3", "max" : [1.0000044107437134, 1.0000044107437134, 1.0000044107437134], "min" : [-1.0000044107437134, -1.0000044107437134, -1.0000044107437134], "name" : "NORMAL"}, {"bufferView" : 5, "byteOffset" : 24, "componentType" : 5126, "count" : 440, "type" : "VEC2", "max" : [0.9909114837646484, 0.48108696937561035], "min" : [0.630499541759491, 0.0724976658821106], "name" : "TEXCOORD_0"}, {"bufferView" : 0, "byteOffset" : 35808, "componentType" : 5123, "count" : 4320, "type" : "SCALAR", "max" : [3924], "min" : [0]}, {"bufferView" : 6, "byteOffset" : 0, "componentType" : 5126, "count" : 3925, "type" : "VEC3", "max" : [29.90701675415039, 29.90695571899414, 9.924860954284668], "min" : [-29.906972885131836, -29.906997680664062, -9.924860954284668], "name" : "POSITION"}, {"bufferView" : 6, "byteOffset" : 12, "componentType" : 5126, "count" : 3925, "type" : "VEC3", "max" : [1.0000044107437134, 1.0000044107437134, 1.0000044107437134], "min" : [-1.0000044107437134, -1.0000044107437134, -1.0000044107437134], "name" : "NORMAL"}, {"bufferView" : 6, "byteOffset" : 24, "componentType" : 5126, "count" : 3925, "type" : "VEC2", "max" : [0.6578108072280884, 0.993760883808136], "min" : [0.01050904393196106, 0.0031831860542297363], "name" : "TEXCOORD_0"}, {"bufferView" : 0, "byteOffset" : 44448, "componentType" : 5123, "count" : 120, "type" : "SCALAR", "max" : [118], "min" : [0]}, {"bufferView" : 7, "byteOffset" : 0, "componentType" : 5126, "count" : 119, "type" : "VEC3", "max" : [0.148443341255188, 1, 0.6604188680648804], "min" : [-0.14844340085983276, -1, -0.6604191064834595], "name" : "POSITION"}, {"bufferView" : 7, "byteOffset" : 12, "componentType" : 5126, "count" : 119, "type" : "VEC3", "max" : [1.0000044107437134, 0, 1.0000044107437134], "min" : [-1.0000044107437134, 0, -1.0000044107437134], "name" : "NORMAL"}, {"bufferView" : 7, "byteOffset" : 24, "componentType" : 5126, "count" : 119, "type" : "VEC2", "max" : [0.8765992522239685, 0.7751811146736145], "min" : [0.4312620162963867, 0.2687278985977173], "name" : "TEXCOORD_0"}, {"bufferView" : 0, "byteOffset" : 44688, "componentType" : 5123, "count" : 57846, "type" : "SCALAR", "max" : [56654], "min" : [0]}, {"bufferView" : 8, "byteOffset" : 0, "componentType" : 5126, "count" : 56655, "type" : "VEC3", "max" : [2.1239492893218994, 129.95497131347656, 2.000000238418579], "min" : [-2.048870801925659, 27.564620971679688, -2.0000009536743164], "name" : "POSITION"}, {"bufferView" : 8, "byteOffset" : 12, "componentType" : 5126, "count" : 56655, "type" : "VEC3", "max" : [1.0000044107437134, 1.0000044107437134, 1.0000044107437134], "min" : [-1.0000044107437134, -1.0000044107437134, -1.0000044107437134], "name" : "NORMAL"}, {"bufferView" : 8, "byteOffset" : 24, "componentType" : 5126, "count" : 56655, "type" : "VEC2", "max" : [0.5951916575431824, 0.9871082305908203], "min" : [0.014370191842317581, 0.019873380661010742], "name" : "TEXCOORD_0"}, {"bufferView" : 0, "byteOffset" : 160380, "componentType" : 5123, "count" : 660, "type" : "SCALAR", "max" : [586], "min" : [0]}, {"bufferView" : 9, "byteOffset" : 0, "componentType" : 5126, "count" : 587, "type" : "VEC3", "max" : [0.5000000596046448, 0.5000002384185791, 0.5], "min" : [-0.5000000596046448, -0.5, -0.5], "name" : "POSITION"}, {"bufferView" : 9, "byteOffset" : 12, "componentType" : 5126, "count" : 587, "type" : "VEC3", "max" : [1.0000042915344238, 1.0000039339065552, 0.999825656414032], "min" : [-1.0000042915344238, -1.0000039339065552, -0.999825656414032], "name" : "NORMAL"}, {"bufferView" : 9, "byteOffset" : 24, "componentType" : 5126, "count" : 587, "type" : "VEC2", "max" : [0.875, 2], "min" : [0.125, 0.019793927669525146], "name" : "TEXCOORD_0"}], "asset" : {"generator" : "Aspose.3D 23.4.0", "version" : "2.0"}, "buffers" : [{"uri" : "data:application/octet-stream;base64,", "byteLength" : 2748940}], "bufferViews" : [{"buffer" : 0, "byteOffset" : 0, "byteLength" : 161700, "target" : 34963}, {"buffer" : 0, "byteOffset" : 161704, "byteLength" : 519936, "byteStride" : 32, "target" : 34962}, {"buffer" : 0, "byteOffset" : 681644, "byteLength" : 13440, "byteStride" : 32, "target" : 34962}, {"buffer" : 0, "byteOffset" : 695088, "byteLength" : 8832, "byteStride" : 32, "target" : 34962}, {"buffer" : 0, "byteOffset" : 703924, "byteLength" : 15360, "byteStride" : 32, "target" : 34962}, {"buffer" : 0, "byteOffset" : 719288, "byteLength" : 15360, "byteStride" : 32, "target" : 34962}, {"buffer" : 0, "byteOffset" : 734652, "byteLength" : 138240, "byteStride" : 32, "target" : 34962}, {"buffer" : 0, "byteOffset" : 872896, "byteLength" : 3840, "byteStride" : 32, "target" : 34962}, {"buffer" : 0, "byteOffset" : 876740, "byteLength" : 1851072, "byteStride" : 32, "target" : 34962}, {"buffer" : 0, "byteOffset" : 2727816, "byteLength" : 21120, "byteStride" : 32, "target" : 34962}], "images" : [{"uri" : "data:image/jpeg;base64,"}], "materials" : [{"pbrMetallicRoughness" : {"baseColorFactor" : [0.4178850708380236, 0.4178850708380236, 0.4178850708380236, 1], "metallicFactor" : 1, "roughnessFactor" : 0.09}, "emissiveFactor" : [0, 0, 0], "alphaMode" : "OPAQUE", "doubleSided" : false}, {"pbrMetallicRoughness" : {"baseColorFactor" : [0.158960835050774, 0.158960835050774, 0.158960835050774, 1], "metallicFactor" : 1, "roughnessFactor" : 0.25}, "emissiveFactor" : [0, 0, 0], "alphaMode" : "OPAQUE", "doubleSided" : false}, {"pbrMetallicRoughness" : {"baseColorFactor" : [1, 1, 1, 0.040000000000000036], "metallicFactor" : 0, "roughnessFactor" : 0}, "emissiveFactor" : [0, 0, 0], "alphaMode" : "BLEND", "doubleSided" : true}, {"pbrMetallicRoughness" : {"baseColorFactor" : [0.21952619971859377, 0.21952619971859377, 0.21952619971859377, 1], "metallicFactor" : 1, "roughnessFactor" : 0}, "emissiveFactor" : [0, 0, 0], "alphaMode" : "OPAQUE", "doubleSided" : false}, {"pbrMetallicRoughness" : {"baseColorFactor" : [0.21952619971859377, 0.21952619971859377, 0.21952619971859377, 1], "metallicFactor" : 1, "roughnessFactor" : 0}, "emissiveFactor" : [0, 0, 0], "alphaMode" : "OPAQUE", "doubleSided" : false}, {"pbrMetallicRoughness" : {"baseColorFactor" : [0.158960835050774, 0.158960835050774, 0.158960835050774, 1], "metallicFactor" : 1, "roughnessFactor" : 0.25}, "emissiveFactor" : [0, 0, 0], "alphaMode" : "OPAQUE", "doubleSided" : false}, {"pbrMetallicRoughness" : {"baseColorFactor" : [1, 1, 1, 1], "baseColorTexture" : {"index" : 0, "texCoord" : 0}, "metallicFactor" : 0, "roughnessFactor" : 1}, "emissiveFactor" : [0, 0, 0], "alphaMode" : "OPAQUE", "doubleSided" : false}, {"pbrMetallicRoughness" : {"baseColorFactor" : [0.2806122303009033, 0.2806122303009033, 0.2806122303009033, 1], "metallicFactor" : 1, "roughnessFactor" : 0.3622449040412903}, "emissiveFactor" : [0, 0, 0], "alphaMode" : "OPAQUE", "doubleSided" : false}, {"pbrMetallicRoughness" : {"baseColorFactor" : [1, 1, 1, 0.040000000000000036], "metallicFactor" : 0, "roughnessFactor" : 0}, "emissiveFactor" : [0, 0, 0], "alphaMode" : "BLEND", "doubleSided" : true}], "meshes" : [{"primitives" : [{"attributes" : {"POSITION" : 1, "NORMAL" : 2, "TEXCOORD_0" : 3}, "indices" : 0, "material" : 0, "mode" : 4}]}, {"primitives" : [{"attributes" : {"POSITION" : 5, "NORMAL" : 6, "TEXCOORD_0" : 7}, "indices" : 4, "material" : 1, "mode" : 4}]}, {"primitives" : [{"attributes" : {"POSITION" : 9, "NORMAL" : 10, "TEXCOORD_0" : 11}, "indices" : 8, "material" : 2, "mode" : 4}]}, {"primitives" : [{"attributes" : {"POSITION" : 13, "NORMAL" : 14, "TEXCOORD_0" : 15}, "indices" : 12, "material" : 3, "mode" : 4}]}, {"primitives" : [{"attributes" : {"POSITION" : 17, "NORMAL" : 18, "TEXCOORD_0" : 19}, "indices" : 16, "material" : 4, "mode" : 4}]}, {"primitives" : [{"attributes" : {"POSITION" : 21, "NORMAL" : 22, "TEXCOORD_0" : 23}, "indices" : 20, "material" : 5, "mode" : 4}]}, {"primitives" : [{"attributes" : {"POSITION" : 25, "NORMAL" : 26, "TEXCOORD_0" : 27}, "indices" : 24, "material" : 6, "mode" : 4}]}, {"primitives" : [{"attributes" : {"POSITION" : 29, "NORMAL" : 30, "TEXCOORD_0" : 31}, "indices" : 28, "material" : 7, "mode" : 4}]}, {"primitives" : [{"attributes" : {"POSITION" : 33, "NORMAL" : 34, "TEXCOORD_0" : 35}, "indices" : 32, "material" : 8, "mode" : 4}]}], "nodes" : [{"mesh" : 0, "name" : "mesh_0"}, {"mesh" : 1, "name" : "mesh_1"}, {"matrix" : [1, 0, 0, 0, 0, 1, 0, 0, 0, 0, 1, 0, 0, 0, 1.118447957795504, 1], "mesh" : 2, "name" : "mesh_2"}, {"mesh" : 3, "name" : "mesh_3"}, {"mesh" : 4, "name" : "mesh_4"}, {"mesh" : 5, "name" : "mesh_5"}, {"children" : [1, 2, 3, 4, 5], "name" : "00200976-159f-4a90-83a2-dfe73bd187e9"}, {"matrix" : [2.220446049250313E-16, 0, -1.0000000000000002, 0, 0, 1, 0, 0, 1.0000000000000002, 0, 2.220446049250313E-16, 0, -0.02253623780117575, -0.7757279925020623, -0.0804235064059659, 1], "mesh" : 6, "name" : "mesh_6"}, {"children" : [7], "name" : "943d9ac4-5ca6-4903-9a9f-c94a0fbe394e"}, {"mesh" : 7, "name" : "mesh_7"}, {"matrix" : [36.187769590127914, 0, 0, 0, 0, 15.110239326896325, 0, 0, 0, 0, 0.3111110772358065, 0, 0, -15.24795750799292, 12.12719067871983, 1], "mesh" : 8, "name" : "mesh_8"}, {"children" : [0, 6, 8, 9, 10], "name" : "defaultScene"}], "samplers" : [{"magFilter" : 9729, "minFilter" : 9987, "wrapS" : 10497, "wrapT" : 10497}], "scene" : 0, "scenes" : [{"nodes" : [11]}], "textures" : [{"sampler" : 0, "source" : 0, "name" : ""}]}