{"accessors" : [{"bufferView" : 0, "byteOffset" : 0, "componentType" : 5123, "count" : 16248, "type" : "SCALAR", "max" : [15492], "min" : [0]}, {"bufferView" : 1, "byteOffset" : 0, "componentType" : 5126, "count" : 15493, "type" : "VEC3", "max" : [16.20712661743164, -17.516422271728516, 8.28525161743164], "min" : [-16.20712661743164, -24.592437744140625, -6.736996650695801], "name" : "POSITION"}, {"bufferView" : 1, "byteOffset" : 12, "componentType" : 5126, "count" : 15493, "type" : "VEC3", "max" : [1.0000044107437134, 1.0000044107437134, 1.0000044107437134], "min" : [-1.0000044107437134, -1.0000044107437134, -1.0000044107437134], "name" : "NORMAL"}, {"bufferView" : 1, "byteOffset" : 24, "componentType" : 5126, "count" : 15493, "type" : "VEC2", "max" : [0.9638351202011108, 0.994200587272644], "min" : [0.03870731592178345, 0.010818958282470703], "name" : "TEXCOORD_0"}], "asset" : {"generator" : "Aspose.3D 23.4.0", "version" : "2.0"}, "buffers" : [{"uri" : "data:application/octet-stream;base64,", "byteLength" : 552440}], "bufferViews" : [{"buffer" : 0, "byteOffset" : 0, "byteLength" : 32496, "target" : 34963}, {"buffer" : 0, "byteOffset" : 32500, "byteLength" : 519936, "byteStride" : 32, "target" : 34962}], "materials" : [{"pbrMetallicRoughness" : {"baseColorFactor" : [0.5, 0.5, 0.5, 1], "metallicFactor" : 1, "roughnessFactor" : 0.23}, "emissiveFactor" : [0, 0, 0], "alphaMode" : "OPAQUE", "doubleSided" : false}], "meshes" : [{"primitives" : [{"attributes" : {"POSITION" : 1, "NORMAL" : 2, "TEXCOORD_0" : 3}, "indices" : 0, "material" : 0, "mode" : 4}]}], "nodes" : [{"matrix" : [0.014036343284917499, 0, 0, 0, 0, 0.014036343284917499, 0, 0, 0, 0, 0.014036343284917499, 0, 0, 21.08453715927444, -0.7668808235019475, 1], "mesh" : 0, "name" : "mesh_0"}, {"children" : [0], "name" : "defaultScene"}], "scene" : 0, "scenes" : [{"nodes" : [1]}]}