{"accessors" : [{"bufferView" : 0, "byteOffset" : 0, "componentType" : 5123, "count" : 132, "type" : "SCALAR", "max" : [125], "min" : [0]}, {"bufferView" : 1, "byteOffset" : 0, "componentType" : 5126, "count" : 126, "type" : "VEC3", "max" : [0.39911627769470215, 0.698119044303894, -0.015989819541573524], "min" : [-0.39911627769470215, -0.24298664927482605, -0.3307743966579437], "name" : "POSITION"}, {"bufferView" : 1, "byteOffset" : 12, "componentType" : 5126, "count" : 126, "type" : "VEC3", "max" : [1.0000044107437134, 1.0000044107437134, 0.9999664425849915], "min" : [-1.0000044107437134, -1.0000044107437134, -1.0000044107437134], "name" : "NORMAL"}, {"bufferView" : 1, "byteOffset" : 24, "componentType" : 5126, "count" : 126, "type" : "VEC2", "max" : [0.875, 2], "min" : [0.125, 0.25], "name" : "TEXCOORD_0"}, {"bufferView" : 0, "byteOffset" : 264, "componentType" : 5123, "count" : 132, "type" : "SCALAR", "max" : [127], "min" : [0]}, {"bufferView" : 2, "byteOffset" : 0, "componentType" : 5126, "count" : 128, "type" : "VEC3", "max" : [0.4129731059074402, 0.12050870805978775, 0.417602002620697], "min" : [0.36697375774383545, -0.12050870805978775, 0.3700186312198639], "name" : "POSITION"}, {"bufferView" : 2, "byteOffset" : 12, "componentType" : 5126, "count" : 128, "type" : "VEC3", "max" : [0.9999879002571106, 0.9931953549385071, 0.9937571287155151], "min" : [-0.9999879002571106, -0.9931954145431519, -0.9937571287155151], "name" : "NORMAL"}, {"bufferView" : 2, "byteOffset" : 24, "componentType" : 5126, "count" : 128, "type" : "VEC2", "max" : [0.875, 2], "min" : [0.125, 0.25], "name" : "TEXCOORD_0"}, {"bufferView" : 0, "byteOffset" : 528, "componentType" : 5123, "count" : 636, "type" : "SCALAR", "max" : [629], "min" : [0]}, {"bufferView" : 3, "byteOffset" : 0, "componentType" : 5126, "count" : 630, "type" : "VEC3", "max" : [0.4149714410305023, 0.7395691871643066, 0.33437785506248474], "min" : [-0.4149714410305023, -0.6318124532699585, -0.415934681892395], "name" : "POSITION"}, {"bufferView" : 3, "byteOffset" : 12, "componentType" : 5126, "count" : 630, "type" : "VEC3", "max" : [1.0000044107437134, 1.0000044107437134, 1.0000044107437134], "min" : [-1.0000044107437134, -1.0000044107437134, -1.0000044107437134], "name" : "NORMAL"}, {"bufferView" : 3, "byteOffset" : 24, "componentType" : 5126, "count" : 630, "type" : "VEC2", "max" : [0.875, 2], "min" : [0.125, 0.024997472763061523], "name" : "TEXCOORD_0"}, {"bufferView" : 0, "byteOffset" : 1800, "componentType" : 5123, "count" : 492, "type" : "SCALAR", "max" : [477], "min" : [0]}, {"bufferView" : 4, "byteOffset" : 0, "componentType" : 5126, "count" : 478, "type" : "VEC3", "max" : [0.4149715006351471, 0.7317517399787903, 0.35954609513282776], "min" : [-0.4149715006351471, -0.6239950060844421, 0.336667537689209], "name" : "POSITION"}, {"bufferView" : 4, "byteOffset" : 12, "componentType" : 5126, "count" : 478, "type" : "VEC3", "max" : [1.0000044107437134, 1.0000044107437134, 1.0000044107437134], "min" : [-1.0000044107437134, -1.0000044107437134, -1.0000044107437134], "name" : "NORMAL"}, {"bufferView" : 4, "byteOffset" : 24, "componentType" : 5126, "count" : 478, "type" : "VEC2", "max" : [0.875, 2], "min" : [0.125, 4.780905671353253E-10], "name" : "TEXCOORD_0"}, {"bufferView" : 0, "byteOffset" : 2784, "componentType" : 5123, "count" : 1080, "type" : "SCALAR", "max" : [1078], "min" : [0]}, {"bufferView" : 5, "byteOffset" : 0, "componentType" : 5126, "count" : 1079, "type" : "VEC3", "max" : [0.06593992561101913, 1.1776823997497559, -0.0035875262692570686], "min" : [-0.06593995541334152, 1.046525001525879, -0.04275466501712799], "name" : "POSITION"}, {"bufferView" : 5, "byteOffset" : 12, "componentType" : 5126, "count" : 1079, "type" : "VEC3", "max" : [1.0000044107437134, 0.9945266246795654, 1.0000044107437134], "min" : [-1.0000044107437134, -0.9945266246795654, -1.0000044107437134], "name" : "NORMAL"}, {"bufferView" : 5, "byteOffset" : 24, "componentType" : 5126, "count" : 1079, "type" : "VEC2", "max" : [0.65625, 0.9991441965103149], "min" : [0.3437499403953552, 0.0008559226989746094], "name" : "TEXCOORD_0"}, {"bufferView" : 0, "byteOffset" : 4944, "componentType" : 5123, "count" : 1440, "type" : "SCALAR", "max" : [1378], "min" : [0]}, {"bufferView" : 6, "byteOffset" : 0, "componentType" : 5126, "count" : 1379, "type" : "VEC3", "max" : [0.06286700069904327, 1.049604892730713, 0.03969591110944748], "min" : [-0.06286701560020447, 0.9419524073600769, -0.08603812754154205], "name" : "POSITION"}, {"bufferView" : 6, "byteOffset" : 12, "componentType" : 5126, "count" : 1379, "type" : "VEC3", "max" : [0.9988288283348083, 1.0000044107437134, 0.9988288879394531], "min" : [-0.9988288283348083, -1.0000044107437134, -0.9988288879394531], "name" : "NORMAL"}, {"bufferView" : 6, "byteOffset" : 24, "componentType" : 5126, "count" : 1379, "type" : "VEC2", "max" : [0.65625, 2], "min" : [0.3437499701976776, 7.450580596923828E-08], "name" : "TEXCOORD_0"}, {"bufferView" : 0, "byteOffset" : 7824, "componentType" : 5123, "count" : 444, "type" : "SCALAR", "max" : [407], "min" : [0]}, {"bufferView" : 7, "byteOffset" : 0, "componentType" : 5126, "count" : 408, "type" : "VEC3", "max" : [-0.24633106589317322, -0.7109403610229492, -0.2479223757982254], "min" : [-0.4741945266723633, -1.1662099361419678, -0.48166048526763916], "name" : "POSITION"}, {"bufferView" : 7, "byteOffset" : 12, "componentType" : 5126, "count" : 408, "type" : "VEC3", "max" : [1.0000044107437134, 1.0000044107437134, 1.0000042915344238], "min" : [-1.0000044107437134, -1.0000044107437134, -1.0000044107437134], "name" : "NORMAL"}, {"bufferView" : 7, "byteOffset" : 24, "componentType" : 5126, "count" : 408, "type" : "VEC2", "max" : [0.875, 2], "min" : [0.125, 0.016397953033447266], "name" : "TEXCOORD_0"}, {"bufferView" : 0, "byteOffset" : 8712, "componentType" : 5123, "count" : 444, "type" : "SCALAR", "max" : [407], "min" : [0]}, {"bufferView" : 8, "byteOffset" : 0, "componentType" : 5126, "count" : 408, "type" : "VEC3", "max" : [-0.24750874936580658, -0.7109403610229492, 0.41057950258255005], "min" : [-0.48124682903289795, -1.1662099361419678, 0.18271604180335999], "name" : "POSITION"}, {"bufferView" : 8, "byteOffset" : 12, "componentType" : 5126, "count" : 408, "type" : "VEC3", "max" : [1.0000044107437134, 1.0000044107437134, 1.0000044107437134], "min" : [-1.0000044107437134, -1.0000044107437134, -1.0000044107437134], "name" : "NORMAL"}, {"bufferView" : 8, "byteOffset" : 24, "componentType" : 5126, "count" : 408, "type" : "VEC2", "max" : [0.875, 2], "min" : [0.125, 0.016397953033447266], "name" : "TEXCOORD_0"}, {"bufferView" : 0, "byteOffset" : 9600, "componentType" : 5123, "count" : 444, "type" : "SCALAR", "max" : [407], "min" : [0]}, {"bufferView" : 9, "byteOffset" : 0, "componentType" : 5126, "count" : 408, "type" : "VEC3", "max" : [0.4834058880805969, -0.7109403610229492, -0.24768102169036865], "min" : [0.24966780841350555, -1.1662099361419678, -0.4755444824695587], "name" : "POSITION"}, {"bufferView" : 9, "byteOffset" : 12, "componentType" : 5126, "count" : 408, "type" : "VEC3", "max" : [1.0000044107437134, 1.0000044107437134, 1.0000044107437134], "min" : [-1.0000042915344238, -1.0000044107437134, -1.0000044107437134], "name" : "NORMAL"}, {"bufferView" : 9, "byteOffset" : 24, "componentType" : 5126, "count" : 408, "type" : "VEC2", "max" : [0.875, 2], "min" : [0.125, 0.016397953033447266], "name" : "TEXCOORD_0"}, {"bufferView" : 0, "byteOffset" : 10488, "componentType" : 5123, "count" : 444, "type" : "SCALAR", "max" : [407], "min" : [0]}, {"bufferView" : 10, "byteOffset" : 0, "componentType" : 5126, "count" : 408, "type" : "VEC3", "max" : [0.47635355591773987, -0.7109403610229492, 0.4166954755783081], "min" : [0.2484900951385498, -1.1662099361419678, 0.18295739591121674], "name" : "POSITION"}, {"bufferView" : 10, "byteOffset" : 12, "componentType" : 5126, "count" : 408, "type" : "VEC3", "max" : [1.0000044107437134, 1.0000044107437134, 1.0000044107437134], "min" : [-1.0000044107437134, -1.0000044107437134, -1.0000042915344238], "name" : "NORMAL"}, {"bufferView" : 10, "byteOffset" : 24, "componentType" : 5126, "count" : 408, "type" : "VEC2", "max" : [0.875, 2], "min" : [0.125, 0.016397953033447266], "name" : "TEXCOORD_0"}, {"bufferView" : 0, "byteOffset" : 11376, "componentType" : 5123, "count" : 708, "type" : "SCALAR", "max" : [650], "min" : [0]}, {"bufferView" : 11, "byteOffset" : 0, "componentType" : 5126, "count" : 651, "type" : "VEC3", "max" : [0.4541049897670746, -0.6284570693969727, 0.46791040897369385], "min" : [-0.4541049897670746, -0.7101643085479736, -0.4498482048511505], "name" : "POSITION"}, {"bufferView" : 11, "byteOffset" : 12, "componentType" : 5126, "count" : 651, "type" : "VEC3", "max" : [0.993520975112915, 1.0000044107437134, 0.993829071521759], "min" : [-0.993520975112915, -1.0000044107437134, -0.9938497543334961], "name" : "NORMAL"}, {"bufferView" : 11, "byteOffset" : 24, "componentType" : 5126, "count" : 651, "type" : "VEC2", "max" : [0.875, 2], "min" : [0.125, 0.004106640815734863], "name" : "TEXCOORD_0"}, {"bufferView" : 0, "byteOffset" : 12792, "componentType" : 5123, "count" : 84, "type" : "SCALAR", "max" : [83], "min" : [0]}, {"bufferView" : 12, "byteOffset" : 0, "componentType" : 5126, "count" : 84, "type" : "VEC3", "max" : [0.17472277581691742, 0.4022204577922821, 0.1524367332458496], "min" : [-0.17350561916828156, 0.23830658197402954, -0.13616347312927246], "name" : "POSITION"}, {"bufferView" : 12, "byteOffset" : 12, "componentType" : 5126, "count" : 84, "type" : "VEC3", "max" : [1.0000044107437134, 1.0000044107437134, 1.0000044107437134], "min" : [-1.0000044107437134, -1.0000044107437134, -1.0000044107437134], "name" : "NORMAL"}, {"bufferView" : 12, "byteOffset" : 24, "componentType" : 5126, "count" : 84, "type" : "VEC2", "max" : [0.875, 2], "min" : [0.125, 0.25], "name" : "TEXCOORD_0"}, {"bufferView" : 0, "byteOffset" : 12960, "componentType" : 5123, "count" : 50796, "type" : "SCALAR", "max" : [47199], "min" : [0]}, {"bufferView" : 13, "byteOffset" : 0, "componentType" : 5126, "count" : 47200, "type" : "VEC3", "max" : [0.20183034241199493, 0.9203861951828003, 0.18982252478599548], "min" : [-0.20061318576335907, 0.8304930925369263, -0.1887420266866684], "name" : "POSITION"}, {"bufferView" : 13, "byteOffset" : 12, "componentType" : 5126, "count" : 47200, "type" : "VEC3", "max" : [0.9999285936355591, 1.0000044107437134, 0.9992708563804626], "min" : [-0.9999285936355591, -1.0000044107437134, -0.9991536736488342], "name" : "NORMAL"}, {"bufferView" : 13, "byteOffset" : 24, "componentType" : 5126, "count" : 47200, "type" : "VEC2", "max" : [0.875, 2], "min" : [0.125, 0], "name" : "TEXCOORD_0"}, {"bufferView" : 0, "byteOffset" : 114552, "componentType" : 5123, "count" : 36, "type" : "SCALAR", "max" : [35], "min" : [0]}, {"bufferView" : 14, "byteOffset" : 0, "componentType" : 5126, "count" : 36, "type" : "VEC3", "max" : [0.5, 0.5, 0.5], "min" : [-0.5, -0.5, -0.5], "name" : "POSITION"}, {"bufferView" : 14, "byteOffset" : 12, "componentType" : 5126, "count" : 36, "type" : "VEC3", "max" : [1.0000044107437134, 1.0000044107437134, 1.0000044107437134], "min" : [-1.0000044107437134, -1.0000044107437134, -1.0000044107437134], "name" : "NORMAL"}, {"bufferView" : 14, "byteOffset" : 24, "componentType" : 5126, "count" : 36, "type" : "VEC2", "max" : [0.875, 2], "min" : [0.125, 0.25], "name" : "TEXCOORD_0"}, {"bufferView" : 0, "byteOffset" : 114624, "componentType" : 5123, "count" : 36, "type" : "SCALAR", "max" : [35], "min" : [0]}, {"bufferView" : 15, "byteOffset" : 0, "componentType" : 5126, "count" : 36, "type" : "VEC3", "max" : [0.5, 0.5, 0.5], "min" : [-0.5, -0.5, -0.5], "name" : "POSITION"}, {"bufferView" : 15, "byteOffset" : 12, "componentType" : 5126, "count" : 36, "type" : "VEC3", "max" : [1.0000044107437134, 1.0000044107437134, 1.0000044107437134], "min" : [-1.0000044107437134, -1.0000044107437134, -1.0000044107437134], "name" : "NORMAL"}, {"bufferView" : 15, "byteOffset" : 24, "componentType" : 5126, "count" : 36, "type" : "VEC2", "max" : [0.875, 2], "min" : [0.125, 0.25], "name" : "TEXCOORD_0"}, {"bufferView" : 0, "byteOffset" : 114696, "componentType" : 5123, "count" : 36, "type" : "SCALAR", "max" : [35], "min" : [0]}, {"bufferView" : 16, "byteOffset" : 0, "componentType" : 5126, "count" : 36, "type" : "VEC3", "max" : [0.5, 0.5, 0.5], "min" : [-0.5, -0.5, -0.5], "name" : "POSITION"}, {"bufferView" : 16, "byteOffset" : 12, "componentType" : 5126, "count" : 36, "type" : "VEC3", "max" : [1.0000044107437134, 1.0000044107437134, 1.0000044107437134], "min" : [-1.0000044107437134, -1.0000044107437134, -1.0000044107437134], "name" : "NORMAL"}, {"bufferView" : 16, "byteOffset" : 24, "componentType" : 5126, "count" : 36, "type" : "VEC2", "max" : [0.875, 2], "min" : [0.125, 0.25], "name" : "TEXCOORD_0"}, {"bufferView" : 0, "byteOffset" : 114768, "componentType" : 5123, "count" : 36, "type" : "SCALAR", "max" : [35], "min" : [0]}, {"bufferView" : 17, "byteOffset" : 0, "componentType" : 5126, "count" : 36, "type" : "VEC3", "max" : [0.5, 0.5, 0.5], "min" : [-0.5, -0.5, -0.5], "name" : "POSITION"}, {"bufferView" : 17, "byteOffset" : 12, "componentType" : 5126, "count" : 36, "type" : "VEC3", "max" : [1.0000044107437134, 1.0000044107437134, 1.0000044107437134], "min" : [-1.0000044107437134, -1.0000044107437134, -1.0000044107437134], "name" : "NORMAL"}, {"bufferView" : 17, "byteOffset" : 24, "componentType" : 5126, "count" : 36, "type" : "VEC2", "max" : [0.875, 2], "min" : [0.125, 0.25], "name" : "TEXCOORD_0"}, {"bufferView" : 0, "byteOffset" : 114840, "componentType" : 5123, "count" : 15438, "type" : "SCALAR", "max" : [14699], "min" : [0]}, {"bufferView" : 18, "byteOffset" : 0, "componentType" : 5126, "count" : 14700, "type" : "VEC3", "max" : [0.11960389465093613, 0.4186113476753235, 0.13224783539772034], "min" : [-0.11960389465093613, 0.3425629436969757, -0.01878582313656807], "name" : "POSITION"}, {"bufferView" : 18, "byteOffset" : 12, "componentType" : 5126, "count" : 14700, "type" : "VEC3", "max" : [1.0000044107437134, 1.0000044107437134, 1.0000044107437134], "min" : [-1.0000044107437134, -1.0000044107437134, -1.0000044107437134], "name" : "NORMAL"}, {"bufferView" : 18, "byteOffset" : 24, "componentType" : 5126, "count" : 14700, "type" : "VEC2", "max" : [0.9638351202011108, 0.994200587272644], "min" : [0.03870731592178345, 0.010818958282470703], "name" : "TEXCOORD_0"}], "asset" : {"generator" : "Aspose.3D 23.6.0", "version" : "2.0"}, "buffers" : [{"uri" : "data:application/octet-stream;base64,", "byteLength" : 2477248}], "bufferViews" : [{"buffer" : 0, "byteOffset" : 0, "byteLength" : 145716, "target" : 34963}, {"buffer" : 0, "byteOffset" : 145720, "byteLength" : 4224, "byteStride" : 32, "target" : 34962}, {"buffer" : 0, "byteOffset" : 149948, "byteLength" : 4224, "byteStride" : 32, "target" : 34962}, {"buffer" : 0, "byteOffset" : 154176, "byteLength" : 20352, "byteStride" : 32, "target" : 34962}, {"buffer" : 0, "byteOffset" : 174532, "byteLength" : 15744, "byteStride" : 32, "target" : 34962}, {"buffer" : 0, "byteOffset" : 190280, "byteLength" : 34560, "byteStride" : 32, "target" : 34962}, {"buffer" : 0, "byteOffset" : 224844, "byteLength" : 46080, "byteStride" : 32, "target" : 34962}, {"buffer" : 0, "byteOffset" : 270928, "byteLength" : 14208, "byteStride" : 32, "target" : 34962}, {"buffer" : 0, "byteOffset" : 285140, "byteLength" : 14208, "byteStride" : 32, "target" : 34962}, {"buffer" : 0, "byteOffset" : 299352, "byteLength" : 14208, "byteStride" : 32, "target" : 34962}, {"buffer" : 0, "byteOffset" : 313564, "byteLength" : 14208, "byteStride" : 32, "target" : 34962}, {"buffer" : 0, "byteOffset" : 327776, "byteLength" : 22656, "byteStride" : 32, "target" : 34962}, {"buffer" : 0, "byteOffset" : 350436, "byteLength" : 2688, "byteStride" : 32, "target" : 34962}, {"buffer" : 0, "byteOffset" : 353128, "byteLength" : 1625472, "byteStride" : 32, "target" : 34962}, {"buffer" : 0, "byteOffset" : 1978604, "byteLength" : 1152, "byteStride" : 32, "target" : 34962}, {"buffer" : 0, "byteOffset" : 1979760, "byteLength" : 1152, "byteStride" : 32, "target" : 34962}, {"buffer" : 0, "byteOffset" : 1980916, "byteLength" : 1152, "byteStride" : 32, "target" : 34962}, {"buffer" : 0, "byteOffset" : 1982072, "byteLength" : 1152, "byteStride" : 32, "target" : 34962}, {"buffer" : 0, "byteOffset" : 1983228, "byteLength" : 494016, "byteStride" : 32, "target" : 34962}], "materials" : [{"pbrMetallicRoughness" : {"baseColorFactor" : [0.8307698767709715, 0.9734452903978066, 1, 1], "metallicFactor" : 1, "roughnessFactor" : 0}, "emissiveFactor" : [0, 0, 0], "alphaMode" : "OPAQUE", "doubleSided" : false}, {"pbrMetallicRoughness" : {"baseColorFactor" : [0.07618538147321911, 0.07618538147321911, 0.09084171117479915, 1], "metallicFactor" : 1, "roughnessFactor" : 0.5}, "emissiveFactor" : [0, 0, 0], "alphaMode" : "OPAQUE", "doubleSided" : false}, {"pbrMetallicRoughness" : {"baseColorFactor" : [0.07618538147321911, 0.07618538147321911, 0.09084171117479915, 1], "metallicFactor" : 1, "roughnessFactor" : 0.5}, "emissiveFactor" : [0, 0, 0], "alphaMode" : "OPAQUE", "doubleSided" : false}, {"pbrMetallicRoughness" : {"baseColorFactor" : [0.07618538147321911, 0.07618538147321911, 0.09084171117479915, 1], "metallicFactor" : 1, "roughnessFactor" : 0.5}, "emissiveFactor" : [0, 0, 0], "alphaMode" : "OPAQUE", "doubleSided" : false}, {"pbrMetallicRoughness" : {"baseColorFactor" : [0.07618538147321911, 0.07618538147321911, 0.09084171117479915, 1], "metallicFactor" : 1, "roughnessFactor" : 0.5}, "emissiveFactor" : [0, 0, 0], "alphaMode" : "OPAQUE", "doubleSided" : false}, {"pbrMetallicRoughness" : {"baseColorFactor" : [0.07618538147321911, 0.07618538147321911, 0.09084171117479915, 1], "metallicFactor" : 1, "roughnessFactor" : 0.5}, "emissiveFactor" : [0, 0, 0], "alphaMode" : "OPAQUE", "doubleSided" : false}, {"pbrMetallicRoughness" : {"baseColorFactor" : [0.07618538147321911, 0.07618538147321911, 0.09084171117479915, 1], "metallicFactor" : 1, "roughnessFactor" : 0.5}, "emissiveFactor" : [0, 0, 0], "alphaMode" : "OPAQUE", "doubleSided" : false}, {"pbrMetallicRoughness" : {"baseColorFactor" : [0.07618538147321911, 0.07618538147321911, 0.09084171117479915, 1], "metallicFactor" : 1, "roughnessFactor" : 0.5}, "emissiveFactor" : [0, 0, 0], "alphaMode" : "OPAQUE", "doubleSided" : false}, {"pbrMetallicRoughness" : {"baseColorFactor" : [0.07618538147321911, 0.07618538147321911, 0.09084171117479915, 1], "metallicFactor" : 1, "roughnessFactor" : 0.5}, "emissiveFactor" : [0, 0, 0], "alphaMode" : "OPAQUE", "doubleSided" : false}, {"pbrMetallicRoughness" : {"baseColorFactor" : [0.07618538147321911, 0.07618538147321911, 0.09084171117479915, 1], "metallicFactor" : 1, "roughnessFactor" : 0.5}, "emissiveFactor" : [0, 0, 0], "alphaMode" : "OPAQUE", "doubleSided" : false}, {"pbrMetallicRoughness" : {"baseColorFactor" : [0.07618538147321911, 0.07618538147321911, 0.09084171117479915, 1], "metallicFactor" : 1, "roughnessFactor" : 0.5}, "emissiveFactor" : [0, 0, 0], "alphaMode" : "OPAQUE", "doubleSided" : false}, {"pbrMetallicRoughness" : {"baseColorFactor" : [0.07618538147321911, 0.07618538147321911, 0.09084171117479915, 1], "metallicFactor" : 1, "roughnessFactor" : 0.5}, "emissiveFactor" : [0, 0, 0], "alphaMode" : "OPAQUE", "doubleSided" : false}, {"pbrMetallicRoughness" : {"baseColorFactor" : [0.07618538147321911, 0.07618538147321911, 0.09084171117479915, 1], "metallicFactor" : 1, "roughnessFactor" : 0.5}, "emissiveFactor" : [0, 0, 0], "alphaMode" : "OPAQUE", "doubleSided" : false}, {"pbrMetallicRoughness" : {"baseColorFactor" : [0.07618538147321911, 0.07618538147321911, 0.09084171117479915, 1], "metallicFactor" : 1, "roughnessFactor" : 0.5}, "emissiveFactor" : [0, 0, 0], "alphaMode" : "OPAQUE", "doubleSided" : false}, {"pbrMetallicRoughness" : {"baseColorFactor" : [1, 1, 1, 0.18999999999999995], "metallicFactor" : 0.7914438247680664, "roughnessFactor" : 0.10235293954610825}, "emissiveFactor" : [0, 0, 0], "alphaMode" : "BLEND", "doubleSided" : false}, {"pbrMetallicRoughness" : {"baseColorFactor" : [1, 1, 1, 0.18999999999999995], "metallicFactor" : 0.7914438247680664, "roughnessFactor" : 0.10235293954610825}, "emissiveFactor" : [0, 0, 0], "alphaMode" : "BLEND", "doubleSided" : false}, {"pbrMetallicRoughness" : {"baseColorFactor" : [1, 1, 1, 0.18999999999999995], "metallicFactor" : 0.7914438247680664, "roughnessFactor" : 0.10235293954610825}, "emissiveFactor" : [0, 0, 0], "alphaMode" : "BLEND", "doubleSided" : false}, {"pbrMetallicRoughness" : {"baseColorFactor" : [0.22696587349938613, 0.22696587349938613, 0.22696587349938613, 1], "metallicFactor" : 1, "roughnessFactor" : 0.32}, "emissiveFactor" : [0, 0, 0], "alphaMode" : "OPAQUE", "doubleSided" : false}], "meshes" : [{"primitives" : [{"attributes" : {"POSITION" : 1, "NORMAL" : 2, "TEXCOORD_0" : 3}, "indices" : 0, "material" : 0, "mode" : 4}]}, {"primitives" : [{"attributes" : {"POSITION" : 5, "NORMAL" : 6, "TEXCOORD_0" : 7}, "indices" : 4, "material" : 1, "mode" : 4}]}, {"primitives" : [{"attributes" : {"POSITION" : 9, "NORMAL" : 10, "TEXCOORD_0" : 11}, "indices" : 8, "material" : 2, "mode" : 4}]}, {"primitives" : [{"attributes" : {"POSITION" : 13, "NORMAL" : 14, "TEXCOORD_0" : 15}, "indices" : 12, "material" : 3, "mode" : 4}]}, {"primitives" : [{"attributes" : {"POSITION" : 17, "NORMAL" : 18, "TEXCOORD_0" : 19}, "indices" : 16, "material" : 4, "mode" : 4}]}, {"primitives" : [{"attributes" : {"POSITION" : 21, "NORMAL" : 22, "TEXCOORD_0" : 23}, "indices" : 20, "material" : 5, "mode" : 4}]}, {"primitives" : [{"attributes" : {"POSITION" : 25, "NORMAL" : 26, "TEXCOORD_0" : 27}, "indices" : 24, "material" : 6, "mode" : 4}]}, {"primitives" : [{"attributes" : {"POSITION" : 29, "NORMAL" : 30, "TEXCOORD_0" : 31}, "indices" : 28, "material" : 7, "mode" : 4}]}, {"primitives" : [{"attributes" : {"POSITION" : 33, "NORMAL" : 34, "TEXCOORD_0" : 35}, "indices" : 32, "material" : 8, "mode" : 4}]}, {"primitives" : [{"attributes" : {"POSITION" : 37, "NORMAL" : 38, "TEXCOORD_0" : 39}, "indices" : 36, "material" : 9, "mode" : 4}]}, {"primitives" : [{"attributes" : {"POSITION" : 41, "NORMAL" : 42, "TEXCOORD_0" : 43}, "indices" : 40, "material" : 10, "mode" : 4}]}, {"primitives" : [{"attributes" : {"POSITION" : 45, "NORMAL" : 46, "TEXCOORD_0" : 47}, "indices" : 44, "material" : 11, "mode" : 4}]}, {"primitives" : [{"attributes" : {"POSITION" : 49, "NORMAL" : 50, "TEXCOORD_0" : 51}, "indices" : 48, "material" : 12, "mode" : 4}]}, {"primitives" : [{"attributes" : {"POSITION" : 53, "NORMAL" : 54, "TEXCOORD_0" : 55}, "indices" : 52, "material" : 13, "mode" : 4}]}, {"primitives" : [{"attributes" : {"POSITION" : 57, "NORMAL" : 58, "TEXCOORD_0" : 59}, "indices" : 56, "material" : 14, "mode" : 4}]}, {"primitives" : [{"attributes" : {"POSITION" : 61, "NORMAL" : 62, "TEXCOORD_0" : 63}, "indices" : 60, "material" : 15, "mode" : 4}]}, {"primitives" : [{"attributes" : {"POSITION" : 65, "NORMAL" : 66, "TEXCOORD_0" : 67}, "indices" : 64, "material" : 16, "mode" : 4}]}, {"primitives" : [{"attributes" : {"POSITION" : 69, "NORMAL" : 70, "TEXCOORD_0" : 71}, "indices" : 68, "material" : 17, "mode" : 4}]}], "nodes" : [{"mesh" : 0, "name" : "mesh_0"}, {"mesh" : 1, "name" : "mesh_1"}, {"mesh" : 2, "name" : "mesh_2"}, {"mesh" : 3, "name" : "mesh_3"}, {"mesh" : 4, "name" : "mesh_4"}, {"mesh" : 5, "name" : "mesh_5"}, {"mesh" : 6, "name" : "mesh_6"}, {"mesh" : 7, "name" : "mesh_7"}, {"mesh" : 8, "name" : "mesh_8"}, {"mesh" : 9, "name" : "mesh_9"}, {"mesh" : 10, "name" : "mesh_10"}, {"children" : [0, 1, 2, 3, 4, 5, 6, 7, 8, 9, 10], "matrix" : [0.43624930656514116, 0, 0, 0, 0, 0.43624930656514116, 0, 0, 0, 0, 0.43624930656514116, 0, 0, 0.5053169577996927, 0.012012437346729458, 1], "name" : "ac0b5c5f-e46c-40a0-9611-d5548df7e732"}, {"mesh" : 11, "name" : "mesh_11"}, {"mesh" : 12, "name" : "mesh_12"}, {"matrix" : [0.012091740876507467, 0, 0, 0, 0, 0.020908973760942758, 0, 0, 0, 0, 0.01767267703125168, 0, 0.17085709522011097, 0.539075333482388, 0.16864377420644203, 1], "mesh" : 13, "name" : "mesh_13"}, {"matrix" : [0.2675071647632123, 0, 0, 0, 0, 0.3756566765223165, 0, 0, 0, 0, 0.002488082060723372, 0, 0, 0.5925888313846109, 0.154206754430091, 1], "mesh" : 14, "name" : "mesh_14"}, {"matrix" : [4.46613135044266E-17, 0, 0.10056833742820627, 0, 0, 0.37133878360858136, 0, 0, -0.002488082060723372, 0, 1.1049303963887578E-18, 0, -0.17395060201861226, 0.5925888313846109, 0.06859003634975863, 1], "mesh" : 15, "name" : "mesh_15"}, {"matrix" : [4.46613135044266E-17, 0, 0.10056833742820627, 0, 0, 0.37133878360858136, 0, 0, -0.002488082060723372, 0, 1.1049303963887578E-18, 0, 0.17547782046639604, 0.5925888313846109, 0.06859003634975863, 1], "mesh" : 16, "name" : "mesh_16"}, {"mesh" : 17, "name" : "mesh_17"}, {"children" : [11, 12, 13, 14, 15, 16, 17, 18], "name" : "defaultScene"}], "scene" : 0, "scenes" : [{"nodes" : [19]}]}